<?xml version="1.0" encoding="utf-8"?>
<!-- Generator: Adobe Illustrator 25.0.1, SVG Export Plug-In . SVG Version: 6.00 Build 0)  -->
<svg version="1.0" id="Layer_1" xmlns="http://www.w3.org/2000/svg" xmlns:xlink="http://www.w3.org/1999/xlink" x="0px" y="0px"
	 viewBox="0 0 24 24" style="enable-background:new 0 0 24 24;" xml:space="preserve">
<style type="text/css">
	.st0{fill-rule:evenodd;clip-rule:evenodd;fill:#333333;}
	.st1{fill:#FFFFFF;filter:url(#Adobe_OpacityMaskFilter);}
	.st2{fill-rule:evenodd;clip-rule:evenodd;}
	.st3{mask:url(#a_1_);}
	.st4{fill:#333333;}
	.st5{fill:#FFFFFF;filter:url(#Adobe_OpacityMaskFilter_1_);}
	.st6{mask:url(#b_1_);}
	.st7{fill:#FFFFFF;filter:url(#Adobe_OpacityMaskFilter_2_);}
	.st8{mask:url(#c_1_);}
	.st9{fill:#FFFFFF;filter:url(#Adobe_OpacityMaskFilter_3_);}
	.st10{mask:url(#d_1_);}
</style>
<g transform="translate(-565 -2265)">
	<g transform="translate(572.38 2278.85)">
		<path id="path0_fill" class="st0" d="M575.7,2279.2v5.8c0.7,0.2,1.3,0.8,1.3,1.5c0,0.9-0.8,1.6-1.7,1.6s-1.7-0.7-1.7-1.6
			c0-0.7,0.5-1.4,1.3-1.5v-5.4h-2.2c-0.2,0-0.4-0.2-0.4-0.4c0-0.2,0.2-0.4,0.4-0.4h2.6C575.5,2278.9,575.7,2279,575.7,2279.2z
			 M574.4,2286.5c0,0.5,0.4,0.9,0.9,0.9s0.9-0.4,0.9-0.8c0-0.5-0.4-0.8-0.9-0.8S574.4,2286.1,574.4,2286.5L574.4,2286.5z"/>
	</g>
	<defs>
		<filter id="Adobe_OpacityMaskFilter" filterUnits="userSpaceOnUse" x="572.3" y="2278.8" width="4.8" height="9.4">
			<feColorMatrix  type="matrix" values="1 0 0 0 0  0 1 0 0 0  0 0 1 0 0  0 0 0 1 0"/>
		</filter>
	</defs>
	<mask maskUnits="userSpaceOnUse" x="572.3" y="2278.8" width="4.8" height="9.4" id="a_1_">
		<path class="st1" d="M571.4,2277.9h6v11h-6V2277.9z"/>
		<g transform="translate(572.38 2278.85)">
			<path id="path0_fill_2_" class="st2" d="M575.7,2279.2v5.8c0.7,0.2,1.3,0.8,1.3,1.5c0,0.9-0.8,1.6-1.7,1.6s-1.7-0.7-1.7-1.6
				c0-0.7,0.5-1.4,1.3-1.5v-5.4h-2.2c-0.2,0-0.4-0.2-0.4-0.4c0-0.2,0.2-0.4,0.4-0.4h2.6C575.5,2278.9,575.7,2279,575.7,2279.2z
				 M574.4,2286.5c0,0.5,0.4,0.9,0.9,0.9s0.9-0.4,0.9-0.8c0-0.5-0.4-0.8-0.9-0.8S574.4,2286.1,574.4,2286.5L574.4,2286.5z"/>
		</g>
	</mask>
	<g class="st3">
		<g transform="translate(572.38 2278.85)">
			<path id="path1_stroke_2x" class="st4" d="M575.7,2285h-0.1v0.1L575.7,2285L575.7,2285L575.7,2285z M574.9,2285l0,0.1L574.9,2285
				L574.9,2285L574.9,2285z M574.9,2279.6L574.9,2279.6L574.9,2279.6L574.9,2279.6L574.9,2279.6z M575.8,2285v-5.8h-0.2v5.8H575.8z
				 M577.1,2286.5c0-0.8-0.6-1.4-1.4-1.6l0,0.2c0.7,0.1,1.2,0.7,1.2,1.4H577.1z M575.3,2288.2c1,0,1.8-0.7,1.8-1.7h-0.2
				c0,0.8-0.7,1.5-1.6,1.5V2288.2z M573.6,2286.5c0,0.9,0.8,1.7,1.8,1.7v-0.2c-0.9,0-1.6-0.7-1.6-1.5
				C573.8,2286.5,573.6,2286.5,573.6,2286.5z M574.9,2284.9c-0.8,0.2-1.3,0.8-1.4,1.6h0.2c0-0.7,0.5-1.3,1.2-1.4L574.9,2284.9
				L574.9,2284.9z M574.8,2279.6v5.4h0.2v-5.4H574.8z M572.8,2279.7h2.2v-0.2h-2.2V2279.7z M572.3,2279.2c0,0.3,0.2,0.5,0.5,0.5
				v-0.2c-0.2,0-0.3-0.1-0.3-0.3H572.3z M572.8,2278.8c-0.2,0-0.5,0.2-0.5,0.5h0.2c0-0.1,0.1-0.3,0.3-0.3L572.8,2278.8L572.8,2278.8
				z M575.3,2278.8h-2.6v0.2h2.6V2278.8z M575.8,2279.2c0-0.3-0.2-0.5-0.5-0.5c0,0,0,0,0,0v0.2c0.2,0,0.3,0.1,0.3,0.3H575.8z
				 M575.3,2287.3c-0.5,0-0.8-0.3-0.8-0.7h-0.2c0,0.5,0.5,0.9,1,0.9V2287.3z M576.1,2286.5c0,0.4-0.3,0.7-0.8,0.7v0.2
				c0.5,0,1-0.4,1-0.9C576.3,2286.5,576.1,2286.5,576.1,2286.5z M575.3,2285.8c0.5,0,0.8,0.3,0.8,0.7h0.2c0-0.5-0.5-0.9-1-0.9
				C575.3,2285.6,575.3,2285.8,575.3,2285.8z M574.5,2286.5c0-0.4,0.3-0.7,0.8-0.7v-0.2c-0.5,0-1,0.4-1,0.9
				C574.3,2286.5,574.5,2286.5,574.5,2286.5z"/>
		</g>
	</g>
</g>
<g transform="translate(-565 -2265)">
	<g transform="translate(576.08 2278.85)">
		<path id="path2_fill" class="st0" d="M579.4,2279.2v5.8c0.7,0.2,1.3,0.8,1.3,1.5c0,0.9-0.8,1.6-1.7,1.6s-1.7-0.7-1.7-1.6
			c0-0.7,0.5-1.4,1.3-1.5v-5.4h-2.2c-0.2,0-0.4-0.2-0.4-0.4c0-0.2,0.2-0.4,0.4-0.4h2.6C579.2,2278.9,579.4,2279,579.4,2279.2z
			 M578.1,2286.5c0,0.5,0.4,0.9,0.9,0.9s0.9-0.4,0.9-0.8c0-0.5-0.4-0.8-0.9-0.8S578.1,2286.1,578.1,2286.5L578.1,2286.5z"/>
	</g>
	<defs>
		<filter id="Adobe_OpacityMaskFilter_1_" filterUnits="userSpaceOnUse" x="576" y="2278.8" width="4.8" height="9.4">
			<feColorMatrix  type="matrix" values="1 0 0 0 0  0 1 0 0 0  0 0 1 0 0  0 0 0 1 0"/>
		</filter>
	</defs>
	<mask maskUnits="userSpaceOnUse" x="576" y="2278.8" width="4.8" height="9.4" id="b_1_">
		<path class="st5" d="M575.1,2277.9h6v11h-6V2277.9z"/>
		<g transform="translate(576.08 2278.85)">
			<path id="path2_fill_2_" class="st2" d="M579.4,2279.2v5.8c0.7,0.2,1.3,0.8,1.3,1.5c0,0.9-0.8,1.6-1.7,1.6s-1.7-0.7-1.7-1.6
				c0-0.7,0.5-1.4,1.3-1.5v-5.4h-2.2c-0.2,0-0.4-0.2-0.4-0.4c0-0.2,0.2-0.4,0.4-0.4h2.6C579.2,2278.9,579.4,2279,579.4,2279.2z
				 M578.1,2286.5c0,0.5,0.4,0.9,0.9,0.9s0.9-0.4,0.9-0.8c0-0.5-0.4-0.8-0.9-0.8S578.1,2286.1,578.1,2286.5L578.1,2286.5z"/>
		</g>
	</mask>
	<g class="st6">
		<g transform="translate(576.08 2278.85)">
			<path id="path3_stroke_2x" class="st4" d="M579.4,2285h-0.1v0.1L579.4,2285L579.4,2285L579.4,2285z M578.6,2285l0,0.1L578.6,2285
				L578.6,2285L578.6,2285z M578.6,2279.6L578.6,2279.6L578.6,2279.6L578.6,2279.6L578.6,2279.6z M579.5,2285v-5.8h-0.2v5.8H579.5z
				 M580.8,2286.5c0-0.8-0.6-1.4-1.4-1.6l0,0.2c0.7,0.1,1.2,0.7,1.2,1.4H580.8z M579,2288.2c1,0,1.8-0.7,1.8-1.7h-0.2
				c0,0.8-0.7,1.5-1.6,1.5V2288.2z M577.3,2286.5c0,0.9,0.8,1.7,1.8,1.7v-0.2c-0.9,0-1.6-0.7-1.6-1.5
				C577.5,2286.5,577.3,2286.5,577.3,2286.5z M578.6,2284.9c-0.8,0.2-1.3,0.8-1.4,1.6h0.2c0-0.7,0.5-1.3,1.2-1.4L578.6,2284.9
				L578.6,2284.9z M578.5,2279.6v5.4h0.2v-5.4H578.5z M576.5,2279.7h2.2v-0.2h-2.2V2279.7z M576,2279.2c0,0.3,0.2,0.5,0.5,0.5v-0.2
				c-0.2,0-0.3-0.1-0.3-0.3H576z M576.5,2278.8c-0.2,0-0.5,0.2-0.5,0.5h0.2c0-0.1,0.1-0.3,0.3-0.3L576.5,2278.8L576.5,2278.8z
				 M579,2278.8h-2.6v0.2h2.6V2278.8z M579.5,2279.2c0-0.3-0.2-0.5-0.5-0.5c0,0,0,0,0,0v0.2c0.2,0,0.3,0.1,0.3,0.3H579.5z
				 M579,2287.3c-0.5,0-0.8-0.3-0.8-0.7H578c0,0.5,0.5,0.9,1,0.9V2287.3z M579.8,2286.5c0,0.4-0.3,0.7-0.8,0.7v0.2
				c0.5,0,1-0.4,1-0.9C580,2286.5,579.8,2286.5,579.8,2286.5z M579,2285.8c0.5,0,0.8,0.3,0.8,0.7h0.2c0-0.5-0.5-0.9-1-0.9
				C579,2285.6,579,2285.8,579,2285.8z M578.2,2286.5c0-0.4,0.3-0.7,0.8-0.7v-0.2c-0.5,0-1,0.4-1,0.9
				C578,2286.5,578.2,2286.5,578.2,2286.5z"/>
		</g>
	</g>
</g>
<g transform="translate(-565 -2265)">
	<g transform="translate(579.77 2278.85)">
		<path id="path4_fill" class="st0" d="M583.4,2283.5c0.1-0.7,0.7-1.1,1.4-1.1c0.8,0,1.5,0.7,1.5,1.5s-0.7,1.5-1.5,1.5
			c-0.7,0-1.3-0.5-1.4-1.1h-1.1c-0.2,0-0.3-0.2-0.3-0.3v-4.3h-1.9c-0.2,0-0.3-0.2-0.3-0.3c0-0.2,0.2-0.3,0.3-0.3h2.2
			c0.2,0,0.3,0.1,0.3,0.3v4.3C582.7,2283.5,583.4,2283.5,583.4,2283.5z M584,2283.8c0,0.4,0.4,0.8,0.8,0.8c0.4,0,0.8-0.4,0.8-0.8
			c0,0,0,0,0,0c0-0.4-0.3-0.8-0.8-0.8c0,0,0,0,0,0C584.3,2283,584,2283.4,584,2283.8C584,2283.8,584,2283.8,584,2283.8z"/>
	</g>
	<defs>
		<filter id="Adobe_OpacityMaskFilter_2_" filterUnits="userSpaceOnUse" x="579.7" y="2278.8" width="6.7" height="6.7">
			<feColorMatrix  type="matrix" values="1 0 0 0 0  0 1 0 0 0  0 0 1 0 0  0 0 0 1 0"/>
		</filter>
	</defs>
	<mask maskUnits="userSpaceOnUse" x="579.7" y="2278.8" width="6.7" height="6.7" id="c_1_">
		<path class="st7" d="M578.8,2277.9h8v8h-8V2277.9z"/>
		<g transform="translate(579.77 2278.85)">
			<path id="path4_fill_2_" class="st2" d="M583.4,2283.5c0.1-0.7,0.7-1.1,1.4-1.1c0.8,0,1.5,0.7,1.5,1.5s-0.7,1.5-1.5,1.5
				c-0.7,0-1.3-0.5-1.4-1.1h-1.1c-0.2,0-0.3-0.2-0.3-0.3v-4.3h-1.9c-0.2,0-0.3-0.2-0.3-0.3c0-0.2,0.2-0.3,0.3-0.3h2.2
				c0.2,0,0.3,0.1,0.3,0.3v4.3C582.7,2283.5,583.4,2283.5,583.4,2283.5z M584,2283.8c0,0.4,0.4,0.8,0.8,0.8c0.4,0,0.8-0.4,0.8-0.8
				c0,0,0,0,0,0c0-0.4-0.3-0.8-0.8-0.8c0,0,0,0,0,0C584.3,2283,584,2283.4,584,2283.8C584,2283.8,584,2283.8,584,2283.8z"/>
		</g>
	</mask>
	<g class="st8">
		<g transform="translate(579.77 2278.85)">
			<path id="path5_stroke_2x" class="st4" d="M583.4,2283.5v0.1h0.1l0-0.1L583.4,2283.5z M583.4,2284.2l0.1,0l0-0.1h-0.1V2284.2z
				 M582,2279.5h0.1v-0.1L582,2279.5L582,2279.5z M582.7,2283.5h-0.1v0.1h0.1V2283.5z M584.8,2282.2c-0.7,0-1.3,0.5-1.5,1.2l0.2,0
				c0.1-0.6,0.7-1,1.3-1.1C584.8,2282.5,584.8,2282.2,584.8,2282.2z M586.3,2283.8c0-0.9-0.7-1.6-1.5-1.6v0.2c0.8,0,1.3,0.6,1.3,1.4
				C586.1,2283.8,586.3,2283.8,586.3,2283.8z M584.8,2285.4c0.9,0,1.5-0.7,1.5-1.6h-0.2c0,0.8-0.6,1.4-1.3,1.4
				C584.8,2285.2,584.8,2285.4,584.8,2285.4z M583.3,2284.2c0.2,0.7,0.8,1.2,1.5,1.2v-0.2c-0.6,0-1.2-0.5-1.3-1.1L583.3,2284.2
				L583.3,2284.2z M582.3,2284.3h1v-0.2h-1C582.3,2284.1,582.3,2284.3,582.3,2284.3z M581.9,2283.8c0,0.2,0.2,0.4,0.4,0.4v-0.2
				c-0.1,0-0.2-0.1-0.2-0.2C582.1,2283.8,581.9,2283.8,581.9,2283.8z M581.9,2279.5v4.3h0.2v-4.3
				C582.1,2279.5,581.9,2279.5,581.9,2279.5z M580.1,2279.6h1.9v-0.2h-1.9C580.1,2279.4,580.1,2279.6,580.1,2279.6z M579.7,2279.2
				c0,0.2,0.2,0.4,0.4,0.4v-0.2c-0.1,0-0.2-0.1-0.2-0.2H579.7z M580.1,2278.8c-0.2,0-0.4,0.2-0.4,0.4h0.2c0-0.1,0.1-0.2,0.2-0.2
				V2278.8z M582.3,2278.8h-2.2v0.2h2.2V2278.8z M582.8,2279.2c0-0.2-0.2-0.4-0.4-0.4l0,0v0.2c0.1,0,0.2,0.1,0.2,0.2H582.8z
				 M582.8,2283.5v-4.3h-0.2v4.3H582.8z M583.4,2283.4h-0.7v0.2h0.7V2283.4z M584.8,2284.5c-0.4,0-0.7-0.3-0.7-0.7c0,0,0,0,0,0h-0.2
				c0,0.5,0.4,0.9,0.9,0.9c0,0,0,0,0,0C584.8,2284.7,584.8,2284.5,584.8,2284.5z M585.5,2283.8c0,0.4-0.3,0.7-0.7,0.7c0,0,0,0,0,0
				v0.2c0.5,0,0.9-0.4,0.9-0.9c0,0,0,0,0,0S585.5,2283.8,585.5,2283.8z M584.8,2283.1c0.4,0,0.7,0.3,0.7,0.7h0.2
				c0-0.5-0.4-0.9-0.9-0.9c0,0,0,0,0,0S584.8,2283.1,584.8,2283.1z M584.1,2283.8c0-0.4,0.3-0.7,0.7-0.7c0,0,0,0,0,0v-0.2
				c-0.5,0-0.9,0.4-0.9,0.9c0,0,0,0,0,0S584.1,2283.8,584.1,2283.8z"/>
		</g>
	</g>
</g>
<g transform="translate(-565 -2265)">
	<g transform="translate(565.92 2265.92)">
		<path id="path6_fill" class="st0" d="M585.4,2272.1c0.7,0.2,1.4,0.6,1.8,1.2c0.5,0.7,0.8,1.5,0.8,2.3c0,2.1-1.7,3.7-3.8,3.7h-0.2
			c-0.2,0-0.3-0.2-0.4-0.3c0-0.2,0.2-0.4,0.3-0.4c0,0,0,0,0,0h0.2c1.7,0,3.1-1.4,3.1-3c0-1.4-1-2.7-2.4-3c-0.2,0-0.3-0.2-0.3-0.3
			c-0.1-3.2-2.7-5.8-6-5.8c-2.2,0-4.2,1.1-5.2,3c-0.1,0.2-0.3,0.2-0.4,0.2c-0.3-0.1-0.6-0.2-0.9-0.2c-1.2,0-2.2,0.9-2.3,2
			c0,0.2-0.1,0.3-0.3,0.3c-1.6,0.3-2.8,1.7-2.8,3.4c0,1.9,1.6,3.5,3.5,3.5c0,0,0,0,0,0h1.2c0.2,0,0.4,0.2,0.4,0.3l0,0v4.7
			c0,0.2-0.2,0.3-0.4,0.3h-1.1c-0.2,0.7-0.8,1.2-1.5,1.1c-0.8,0-1.5-0.7-1.5-1.5c0-0.8,0.7-1.5,1.5-1.5c0.7,0,1.3,0.5,1.5,1.2h0.8
			v-4h-0.8c-2.3,0-4.2-1.8-4.2-4.1c0,0,0,0,0,0c0-1.9,1.3-3.6,3.2-4c0.4-1.6,2-2.7,3.7-2.3c0.1,0,0.2,0,0.2,0.1
			c1.2-2,3.4-3.1,5.7-3.1c1.8,0,3.4,0.7,4.7,1.9C584.6,2269,585.3,2270.5,585.4,2272.1z M567.9,2283.8c0,0.5,0.4,0.8,0.8,0.8
			c0.4,0,0.8-0.4,0.8-0.8c0-0.4-0.4-0.8-0.8-0.8C568.3,2283,567.9,2283.4,567.9,2283.8z"/>
	</g>
	<defs>
		<filter id="Adobe_OpacityMaskFilter_3_" filterUnits="userSpaceOnUse" x="565.8" y="2265.8" width="22.4" height="19.6">
			<feColorMatrix  type="matrix" values="1 0 0 0 0  0 1 0 0 0  0 0 1 0 0  0 0 0 1 0"/>
		</filter>
	</defs>
	<mask maskUnits="userSpaceOnUse" x="565.8" y="2265.8" width="22.4" height="19.6" id="d_1_">
		<path class="st9" d="M564.9,2264.9h24v21h-24V2264.9z"/>
		<g transform="translate(565.92 2265.92)">
			<path id="path6_fill_2_" class="st2" d="M585.4,2272.1c0.7,0.2,1.4,0.6,1.8,1.2c0.5,0.7,0.8,1.5,0.8,2.3c0,2.1-1.7,3.7-3.8,3.7
				h-0.2c-0.2,0-0.3-0.2-0.4-0.3c0-0.2,0.2-0.4,0.3-0.4c0,0,0,0,0,0h0.2c1.7,0,3.1-1.4,3.1-3c0-1.4-1-2.7-2.4-3
				c-0.2,0-0.3-0.2-0.3-0.3c-0.1-3.2-2.7-5.8-6-5.8c-2.2,0-4.2,1.1-5.2,3c-0.1,0.2-0.3,0.2-0.4,0.2c-0.3-0.1-0.6-0.2-0.9-0.2
				c-1.2,0-2.2,0.9-2.3,2c0,0.2-0.1,0.3-0.3,0.3c-1.6,0.3-2.8,1.7-2.8,3.4c0,1.9,1.6,3.5,3.5,3.5c0,0,0,0,0,0h1.2
				c0.2,0,0.4,0.2,0.4,0.3l0,0v4.7c0,0.2-0.2,0.3-0.4,0.3h-1.1c-0.2,0.7-0.8,1.2-1.5,1.1c-0.8,0-1.5-0.7-1.5-1.5
				c0-0.8,0.7-1.5,1.5-1.5c0.7,0,1.3,0.5,1.5,1.2h0.8v-4h-0.8c-2.3,0-4.2-1.8-4.2-4.1c0,0,0,0,0,0c0-1.9,1.3-3.6,3.2-4
				c0.4-1.6,2-2.7,3.7-2.3c0.1,0,0.2,0,0.2,0.1c1.2-2,3.4-3.1,5.7-3.1c1.8,0,3.4,0.7,4.7,1.9C584.6,2269,585.3,2270.5,585.4,2272.1z
				 M567.9,2283.8c0,0.5,0.4,0.8,0.8,0.8c0.4,0,0.8-0.4,0.8-0.8c0-0.4-0.4-0.8-0.8-0.8C568.3,2283,567.9,2283.4,567.9,2283.8z"/>
		</g>
	</mask>
	<g class="st10">
		<g transform="translate(565.92 2265.92)">
			<path id="path7_stroke_2x" class="st4" d="M587.2,2273.4L587.2,2273.4L587.2,2273.4z M585.4,2272.1L585.4,2272.1L585.4,2272.1
				L585.4,2272.1L585.4,2272.1L585.4,2272.1z M585,2272.8l0-0.1L585,2272.8z M584.7,2272.4L584.7,2272.4L584.7,2272.4z
				 M573.5,2269.6L573.5,2269.6L573.5,2269.6z M573,2269.8L573,2269.8L573,2269.8z M569.8,2271.6l-0.1,0L569.8,2271.6z
				 M569.5,2271.9l0,0.1L569.5,2271.9z M570.2,2284.1v-0.1h-0.1l0,0.1L570.2,2284.1z M570.2,2283.4l-0.1,0l0,0.1h0.1V2283.4
				L570.2,2283.4z M571,2283.4L571,2283.4L571,2283.4L571,2283.4L571,2283.4z M571,2279.4L571,2279.4l0.1-0.1H571V2279.4z
				 M569.1,2271.3L569.1,2271.3L569.1,2271.3l0.1,0L569.1,2271.3z M573,2269l0,0.1l0.1,0L573,2269L573,2269L573,2269z M583.4,2267.8
				L583.4,2267.8L583.4,2267.8z M587.3,2273.3c-0.5-0.6-1.2-1-1.9-1.3l0,0.2c0.7,0.2,1.3,0.6,1.8,1.2L587.3,2273.3L587.3,2273.3z
				 M588.2,2275.7c0-0.9-0.3-1.7-0.9-2.4l-0.2,0.1c0.5,0.6,0.8,1.4,0.8,2.3H588.2z M584.3,2279.5c2.1,0,3.9-1.7,3.9-3.8H588
				c0,2-1.7,3.6-3.7,3.6V2279.5z M584.1,2279.5h0.2v-0.2h-0.2V2279.5z M583.6,2279.1c0,0.2,0.2,0.4,0.5,0.4c0,0,0,0,0,0v-0.2
				c-0.1,0-0.3-0.1-0.3-0.2c0,0,0,0,0,0C583.8,2279.1,583.6,2279.1,583.6,2279.1z M584.1,2278.7c-0.2,0-0.5,0.2-0.5,0.4c0,0,0,0,0,0
				h0.2c0-0.1,0.1-0.2,0.2-0.3c0,0,0,0,0,0C584.1,2278.9,584.1,2278.7,584.1,2278.7z M584.3,2278.7h-0.2v0.2h0.2V2278.7z
				 M587.3,2275.7c0,1.6-1.4,3-3,2.9v0.2c1.8,0,3.2-1.4,3.2-3.1H587.3z M584.9,2272.8c1.4,0.3,2.3,1.5,2.3,2.9h0.2
				c0-1.5-1-2.8-2.5-3.1L584.9,2272.8L584.9,2272.8z M584.6,2272.4c0,0.2,0.1,0.4,0.4,0.4l0-0.2c-0.1,0-0.2-0.1-0.2-0.2H584.6
				L584.6,2272.4z M578.7,2266.7c3.2,0,5.8,2.5,5.9,5.7h0.2c-0.1-3.3-2.8-5.9-6.1-5.9V2266.7z M573.5,2269.7c1.1-1.8,3-3,5.2-3v-0.2
				c-2.2,0-4.2,1.2-5.3,3.1L573.5,2269.7L573.5,2269.7z M573,2269.9c0.2,0.1,0.5,0,0.6-0.2l-0.2-0.1c-0.1,0.1-0.2,0.2-0.3,0.1
				L573,2269.9L573,2269.9z M572.1,2269.7c0.3,0,0.6,0.1,0.9,0.2l0.1-0.2c-0.3-0.1-0.6-0.2-1-0.2
				C572.1,2269.5,572.1,2269.7,572.1,2269.7z M569.8,2271.6c0.2-1.1,1.1-1.9,2.2-1.9v-0.2c-1.2,0-2.3,0.9-2.4,2.1L569.8,2271.6
				L569.8,2271.6z M569.5,2272c0.2,0,0.3-0.2,0.4-0.4l-0.2,0c0,0.1-0.1,0.2-0.2,0.2C569.5,2271.8,569.5,2272,569.5,2272z
				 M566.7,2275.3c0-1.6,1.2-3,2.8-3.3l0-0.2c-1.7,0.3-2.9,1.8-2.9,3.5C566.5,2275.3,566.7,2275.3,566.7,2275.3z M570.2,2278.7
				c-1.9,0-3.4-1.5-3.4-3.3c0,0,0,0,0,0h-0.2c0,2,1.6,3.6,3.6,3.6c0,0,0,0,0,0L570.2,2278.7L570.2,2278.7z M571.3,2278.7h-1.2v0.2
				h1.2V2278.7z M571.8,2279.1c0-0.2-0.2-0.4-0.5-0.4v0.2c0.1,0,0.2,0.1,0.2,0.2H571.8z M571.8,2283.8v-4.7h-0.2v4.7H571.8z
				 M571.3,2284.2c0.2,0,0.5-0.2,0.5-0.5l0,0h-0.2c0,0.1-0.1,0.2-0.2,0.2V2284.2z M570.2,2284.2h1.1v-0.2h-1.1V2284.2z
				 M568.7,2285.4c0.8,0,1.4-0.5,1.6-1.2l-0.2-0.1c-0.2,0.6-0.7,1.1-1.4,1.1V2285.4L568.7,2285.4z M567.1,2283.8
				c0,0.9,0.7,1.6,1.6,1.6v-0.2c-0.8,0-1.4-0.6-1.4-1.4H567.1z M568.8,2282.2c-0.9,0-1.6,0.7-1.6,1.6h0.2c0-0.8,0.6-1.4,1.4-1.4
				V2282.2z M570.3,2283.4c-0.2-0.7-0.8-1.2-1.6-1.2v0.2c0.7,0,1.2,0.5,1.4,1.1C570.1,2283.5,570.3,2283.4,570.3,2283.4z
				 M571,2283.4h-0.8v0.2h0.8V2283.4z M570.9,2279.5v4h0.2v-4L570.9,2279.5L570.9,2279.5z M570.2,2279.6h0.8v-0.2h-0.8V2279.6z
				 M565.8,2275.3c0,2.4,2,4.3,4.3,4.3c0,0,0,0,0,0v-0.2c-2.3,0-4.1-1.8-4.1-4c0,0,0,0,0,0L565.8,2275.3L565.8,2275.3z
				 M569.1,2271.2c-1.9,0.5-3.2,2.2-3.2,4.1h0.2c0-1.9,1.3-3.5,3.1-3.9L569.1,2271.2L569.1,2271.2z M572.1,2268.8
				c-1.5,0-2.7,1-3.1,2.4l0.2,0c0.3-1.3,1.5-2.3,2.9-2.3L572.1,2268.8L572.1,2268.8z M573,2269c-0.3-0.1-0.6-0.1-1-0.1v0.2
				c0.3,0,0.6,0,0.9,0.1C573,2269.1,573,2269,573,2269z M578.7,2265.8c-2.3,0-4.5,1.2-5.8,3.2l0.2,0.1c1.2-1.9,3.3-3.1,5.6-3.1
				V2265.8z M583.5,2267.8c-1.3-1.2-3-1.9-4.8-1.9v0.2c1.8,0,3.4,0.7,4.6,1.9C583.3,2267.9,583.5,2267.8,583.5,2267.8z
				 M585.5,2272.1c-0.1-1.7-0.8-3.2-2-4.4l-0.1,0.1c1.2,1.1,1.9,2.6,1.9,4.3C585.3,2272.1,585.5,2272.1,585.5,2272.1z M568.8,2284.5
				c-0.4,0-0.7-0.3-0.7-0.7h-0.2c0,0.5,0.4,0.9,0.9,0.9C568.8,2284.7,568.8,2284.5,568.8,2284.5z M569.5,2283.8
				c0,0.4-0.3,0.7-0.7,0.7v0.2c0.5,0,0.9-0.4,0.9-0.9C569.7,2283.8,569.5,2283.8,569.5,2283.8z M568.8,2283.1c0.4,0,0.7,0.3,0.7,0.7
				h0.2c0-0.5-0.4-0.9-0.9-0.9C568.8,2282.9,568.8,2283.1,568.8,2283.1z M568,2283.8c0-0.4,0.3-0.7,0.7-0.7v-0.2
				c-0.5,0-0.9,0.4-0.9,0.9C567.8,2283.8,568,2283.8,568,2283.8z"/>
		</g>
	</g>
</g>
</svg>
