<svg xmlns="http://www.w3.org/2000/svg" viewBox="0 0 22 22"><defs><mask id="a" x="5.56" y="12.03" width="6" height="11" maskUnits="userSpaceOnUse"><path d="M6.38 12.85h6v11h-6z" fill="#fff" transform="translate(-.82 -.82)"/><path d="M10.71 14.21V20A1.59 1.59 0 0112 21.52a1.67 1.67 0 01-3.34 0A1.59 1.59 0 019.94 20v-5.43H7.76a.38.38 0 01-.38-.36.37.37 0 01.39-.36h2.56a.37.37 0 01.38.36zm-1.28 7.3a.9.9 0 10.9-.83.87.87 0 00-.9.83z" fill-rule="evenodd" transform="translate(-.82 -.82)"/></mask><mask id="b" x="9.26" y="12.03" width="6" height="11" maskUnits="userSpaceOnUse"><path d="M10.08 12.85h6v11h-6z" fill="#fff" transform="translate(-.82 -.82)"/><path d="M14.41 14.21V20a1.59 1.59 0 011.29 1.52 1.67 1.67 0 01-3.34 0A1.59 1.59 0 0113.64 20v-5.43h-2.18a.38.38 0 01-.38-.36.37.37 0 01.39-.36H14a.37.37 0 01.41.36zm-1.28 7.3a.9.9 0 10.9-.83.87.87 0 00-.9.83z" fill-rule="evenodd" transform="translate(-.82 -.82)"/></mask><mask id="c" x="12.95" y="12.03" width="8" height="8" maskUnits="userSpaceOnUse"><path d="M13.77 12.85h8v8h-8z" fill="#fff" transform="translate(-.82 -.82)"/><path d="M18.37 18.49a1.5 1.5 0 110 .68h-1.05a.35.35 0 01-.33-.34v-4.3H15.1a.35.35 0 01-.33-.34.34.34 0 01.33-.34h2.23a.34.34 0 01.34.34v4.3zm.63.34a.78.78 0 101.56 0 .79.79 0 00-.78-.8.79.79 0 00-.78.8z" fill-rule="evenodd" transform="translate(-.82 -.82)"/></mask><mask id="d" x="-.9" y="-.9" width="24" height="21" maskUnits="userSpaceOnUse"><path d="M-.08-.08h24v21h-24z" fill="#fff" transform="translate(-.82 -.82)"/><path d="M20.39 7.15a3.86 3.86 0 011.84 1.23 3.65 3.65 0 01.84 2.34 3.78 3.78 0 01-3.81 3.73h-.2a.35.35 0 110-.69h.2a3.08 3.08 0 003.1-3 3 3 0 00-2.4-3 .35.35 0 01-.27-.33 6 6 0 00-6-5.8 6 6 0 00-5.25 3 .35.35 0 01-.44.16 2.28 2.28 0 00-.93-.19 2.35 2.35 0 00-2.33 2 .35.35 0 01-.28.3 3.46 3.46 0 00.7 6.86h1.18a.35.35 0 01.35.35v4.7a.35.35 0 01-.35.34h-1.1a1.53 1.53 0 01-1.5 1.15 1.5 1.5 0 110-3 1.54 1.54 0 011.49 1.16H6v-4h-.83A4.2 4.2 0 01.92 10.3a4.17 4.17 0 013.18-4A3.06 3.06 0 017.76 4l.24.05a6.78 6.78 0 0110.42-1.23 6.47 6.47 0 011.97 4.33zM2.92 18.8a.83.83 0 10.83-.8.82.82 0 00-.83.8z" fill-rule="evenodd" transform="translate(-.82 -.82)"/></mask></defs><path d="M9.89 13.39v5.79a1.59 1.59 0 011.29 1.52 1.67 1.67 0 01-3.34 0 1.59 1.59 0 011.28-1.52v-5.43H6.94a.38.38 0 01-.38-.36.37.37 0 01.39-.36h2.56a.37.37 0 01.38.36zm-1.28 7.3a.9.9 0 10.9-.83.87.87 0 00-.9.83z" fill="#333" fill-rule="evenodd"/><g mask="url(#a)"><path d="M9.89 19.18h-.1v.08h.08v-.1zm-.77 0v.1h.07v-.1zm0-5.43h.06v-.1h-.1zm.87 5.43v-5.79h-.2v5.79zm1.28 1.52a1.68 1.68 0 00-1.36-1.62v.2a1.47 1.47 0 011.2 1.42zm-1.75 1.66a1.72 1.72 0 001.77-1.66h-.2a1.52 1.52 0 01-1.57 1.48zM7.74 20.7a1.72 1.72 0 001.77 1.66v-.18a1.52 1.52 0 01-1.57-1.46zm1.36-1.62a1.71 1.71 0 00-1.36 1.62h.2a1.5 1.5 0 011.24-1.43v-.2zm-.08-5.33v5.43h.16v-5.43zm-2.08.1h2.18v-.2H6.94zm-.48-.46a.47.47 0 00.48.46v-.2a.28.28 0 01-.28-.26zm.48-.46a.48.48 0 00-.48.46h.2a.27.27 0 01.29-.21v-.2zm2.57 0H6.94v.25h2.57zm.48.46a.47.47 0 00-.48-.46v.25a.27.27 0 01.28.26zm-.48 8.05a.77.77 0 01-.8-.74h-.2a1 1 0 001 .94zm.8-.74a.77.77 0 01-.8.74v.2a1 1 0 001-.94zm-.8-.74a.77.77 0 01.8.74h.2a1 1 0 00-1-.94zm-.8.74a.77.77 0 01.8-.74v-.2a1 1 0 00-1 .94z" fill="#333"/></g><path d="M13.59 13.39v5.79a1.59 1.59 0 011.29 1.52 1.67 1.67 0 01-3.34 0 1.59 1.59 0 011.28-1.52v-5.43h-2.18a.38.38 0 01-.38-.36.37.37 0 01.39-.36h2.53a.37.37 0 01.41.36zm-1.28 7.3a.9.9 0 10.9-.83.87.87 0 00-.9.83z" fill="#333" fill-rule="evenodd"/><g mask="url(#b)"><path d="M13.59 19.18h-.1v.08h.08v-.1zm-.77 0v.1h.07v-.1zm0-5.43h.1v-.1h-.1zm.87 5.43v-5.79h-.2v5.79zm1.28 1.52a1.68 1.68 0 00-1.36-1.62v.2a1.47 1.47 0 011.2 1.42zm-1.79 1.66a1.72 1.72 0 001.77-1.66h-.2a1.52 1.52 0 01-1.57 1.48zM11.4 20.7a1.72 1.72 0 001.78 1.66v-.18a1.52 1.52 0 01-1.57-1.46zm1.36-1.62a1.71 1.71 0 00-1.36 1.62h.2a1.5 1.5 0 011.2-1.43v-.2zm-.08-5.33v5.43h.2v-5.43zm-2.08.1h2.18v-.2h-2.14zm-.42-.46a.47.47 0 00.48.46v-.2a.28.28 0 01-.28-.26zm.48-.46a.48.48 0 00-.48.46h.2a.27.27 0 01.29-.26v-.2zm2.57 0h-2.59v.25h2.54zm.48.46a.47.47 0 00-.48-.46v.25a.27.27 0 01.28.26zm-.53 8.05a.77.77 0 01-.8-.74h-.2a1 1 0 001 .94zm.8-.74a.77.77 0 01-.8.74v.2a1 1 0 001-.94zm-.8-.74a.77.77 0 01.8.74h.2a1 1 0 00-1-.94zm-.8.74a.77.77 0 01.8-.74v-.2a1 1 0 00-1 .94z" fill="#333"/></g><path d="M17.55 17.67a1.5 1.5 0 110 .68H16.5a.35.35 0 01-.33-.34v-4.3h-1.89a.35.35 0 01-.33-.34.34.34 0 01.33-.34h2.23a.34.34 0 01.34.34v4.3zm.63.34a.78.78 0 101.56 0 .79.79 0 00-.78-.8.79.79 0 00-.78.8z" fill="#333" fill-rule="evenodd"/><g mask="url(#c)"><path d="M17.55 17.67v.1h.08v-.08zm0 .68h.1v-.08h-.08zm-1.37-4.64h.1v-.1h-.1zm.67 4h-.1v.1h.1zm2.1-1.24a1.55 1.55 0 00-1.5 1.22h.2a1.36 1.36 0 011.3-1.06zm1.55 1.58a1.57 1.57 0 00-1.55-1.58v.2a1.36 1.36 0 011.35 1.38zm-1.54 1.58a1.56 1.56 0 001.55-1.58h-.2a1.36 1.36 0 01-1.35 1.38zm-1.5-1.21a1.56 1.56 0 001.49 1.2v-.2a1.34 1.34 0 01-1.3-1.06h-.2zm-1 .07h1v-.2h-1zm-.43-.44a.44.44 0 00.43.44v-.2a.24.24 0 01-.23-.24zm0-4.3v4.3h.2v-4.3zm-1.8.1h1.95v-.2h-1.9zm-.43-.44a.44.44 0 00.43.44v-.2a.24.24 0 01-.23-.24zm.43-.44a.44.44 0 00-.43.44h.2a.23.23 0 01.28-.23zm2.23 0h-2.18v.21h2.23zm.44.44a.44.44 0 00-.44-.44v.21a.24.24 0 01.24.24zm0 4.3v-4.3h-.2v4.3zm.6-.1h-.7v.2h.7zm1.41 1.14a.69.69 0 01-.68-.7h-.2a.89.89 0 00.88.9zm.68-.7a.69.69 0 01-.68.7v.2a.89.89 0 00.88-.9h-.2zm-.68-.7a.69.69 0 01.68.7h.2a.89.89 0 00-.88-.9zm-.68.7a.69.69 0 01.68-.7v-.2a.89.89 0 00-.88.9h.2z" fill="#333"/></g><path d="M19.57 6.33a3.86 3.86 0 011.84 1.23 3.65 3.65 0 01.84 2.34 3.78 3.78 0 01-3.81 3.73h-.2a.35.35 0 110-.69h.2a3.08 3.08 0 003.1-3 3 3 0 00-2.4-3 .35.35 0 01-.27-.33 6 6 0 00-6-5.8 6 6 0 00-5.25 3 .35.35 0 01-.44.16 2.28 2.28 0 00-.93-.19 2.35 2.35 0 00-2.33 2 .35.35 0 01-.28.3 3.46 3.46 0 00.7 6.86h1.18a.35.35 0 01.35.35v4.7a.35.35 0 01-.35.34h-1.1a1.53 1.53 0 01-1.5 1.15 1.5 1.5 0 110-3 1.54 1.54 0 011.49 1.16h.77v-4h-.83A4.2 4.2 0 01.1 9.48a4.17 4.17 0 013.18-4 3.06 3.06 0 013.66-2.3l.24.05A6.78 6.78 0 0117.6 2a6.47 6.47 0 011.97 4.33zM2.1 17.98a.83.83 0 10.83-.8.82.82 0 00-.83.8z" fill="#333" fill-rule="evenodd"/><g mask="url(#d)"><path d="M21.41 7.56l-.07.06zm-1.84-1.23h-.1v.07h.07v-.1zm-.43.6v-.1zm-.27-.33zM7.64 3.82h-.08zm-.46.15v.1zM3.93 5.78zm-.28.3v.1zm.77 12.25v-.1h-.08v.08zm0-.7h-.1v.08h.08v-.1zm.75 0v.1h.1v-.1zm0-4h.1v-.1h-.09zm-1.9-8.18v.1h.06v-.08zm3.91-2.22v.1h.07v-.07l-.07-.03zM17.6 2l.07-.07zm3.89 5.5a4 4 0 00-1.9-1.27l-.05.2a3.78 3.78 0 011.8 1.19l.15-.13zm.86 2.4a3.73 3.73 0 00-.86-2.4l-.16.12a3.58 3.58 0 01.85 2.28zm-3.91 3.83a3.88 3.88 0 003.91-3.83h-.17a3.67 3.67 0 01-3.71 3.63zm-.2 0h.2v-.2h-.2zm-.45-.44a.45.45 0 00.46.44v-.2a.25.25 0 01-.26-.24h-.2zm.46-.45a.45.45 0 00-.46.44h.2a.25.25 0 01.25-.25zm.19 0h-.2v.2h.2zm3-2.94a3 3 0 01-3 2.94v.2a3.16 3.16 0 003.2-3.14zm-2.32-2.87a2.93 2.93 0 012.33 2.87h.2a3.14 3.14 0 00-2.47-3.06v.2zm-.35-.43a.45.45 0 00.35.43v-.2a.26.26 0 01-.2-.23h-.19zM12.88.9a5.84 5.84 0 015.89 5.7h.2A6 6 0 0012.88.7zm-5.15 3a5.92 5.92 0 015.15-3V.7a6.1 6.1 0 00-5.32 3.08l.17.1zm-.55.16a.47.47 0 00.58-.2l-.17-.1a.26.26 0 01-.33.11l-.08.18zm-.89-.19a2.33 2.33 0 01.9.18l.07-.18a2.51 2.51 0 00-1-.2zM4.03 5.8a2.24 2.24 0 012.23-1.9v-.2a2.42 2.42 0 00-2.42 2.08h.2zm-.36.38a.46.46 0 00.36-.38h-.2a.26.26 0 01-.2.2zM.91 9.47a3.39 3.39 0 012.76-3.29v-.2a3.59 3.59 0 00-2.92 3.5zm3.44 3.37A3.4 3.4 0 01.9 9.49H.7a3.6 3.6 0 003.63 3.57v-.2zm1.17 0H4.35v.2h1.17zm.45.44a.46.46 0 00-.45-.44v.2a.26.26 0 01.25.24zm0 4.7v-4.7h-.2v4.7zm-.45.45a.45.45 0 00.45-.45h-.2a.25.25 0 01-.25.25zm-1.1 0h1.1v-.2h-1.1zm-1.5 1.16a1.65 1.65 0 001.6-1.23l-.2-.05a1.42 1.42 0 01-1.4 1.07v.2zm-1.62-1.6a1.62 1.62 0 001.63 1.6v-.2a1.41 1.41 0 01-1.43-1.4zm1.63-1.6a1.61 1.61 0 00-1.63 1.6h.2a1.41 1.41 0 011.43-1.4zm1.59 1.22a1.63 1.63 0 00-1.6-1.23v.2a1.44 1.44 0 011.4 1.08zm.66-.07h-.76v.2h.76zm-.1-3.9v4h.2v-4h-.2zm-.72.1h.82v-.2h-.83zM0 9.46a4.3 4.3 0 004.34 4.26v-.2A4.11 4.11 0 01.18 9.47H0zm3.25-4.12A4.28 4.28 0 000 9.47h.18a4.08 4.08 0 013.1-3.92v-.2zm3-2.34a3.15 3.15 0 00-3.07 2.44h.2a3 3 0 012.87-2.26v-.2zm.93.18a3.41 3.41 0 00-.95-.14v.14a3 3 0 01.95.15zM12.88 0A6.84 6.84 0 007.1 3.18l.17.1a6.65 6.65 0 015.61-3.1zm4.79 1.93A6.79 6.79 0 0012.88 0v.18a6.62 6.62 0 014.65 1.87zm2 4.4a6.56 6.56 0 00-2-4.4l-.14.14a6.32 6.32 0 011.94 4.26zM2.93 18.68a.72.72 0 01-.75-.7h-.2a.92.92 0 00.93.9zm.72-.7a.72.72 0 01-.72.7v.2a.92.92 0 00.92-.9zm-.72-.71a.71.71 0 01.72.7h.2a.92.92 0 00-.92-.9zm-.73.7a.72.72 0 01.73-.7v-.2a.92.92 0 00-.93.9z" fill="#333"/></g></svg>
