<svg width="24" height="24" xmlns="http://www.w3.org/2000/svg" xmlns:xlink="http://www.w3.org/1999/xlink"><g transform="translate(-565 -2265)"><use xlink:href="#path0_fill" transform="translate(572.38 2278.85)" fill="#333"/><mask id="a"><path fill="#fff" transform="translate(572.38 2278.85)" d="M-1-1h6v11h-6z"/><use xlink:href="#path0_fill" transform="translate(572.38 2278.85)"/></mask><g mask="url(#a)"><use xlink:href="#path1_stroke_2x" transform="translate(572.38 2278.85)" fill="#333"/></g></g><g transform="translate(-565 -2265)"><use xlink:href="#path2_fill" transform="translate(576.08 2278.85)" fill="#333"/><mask id="b"><path fill="#fff" transform="translate(576.08 2278.85)" d="M-1-1h6v11h-6z"/><use xlink:href="#path2_fill" transform="translate(576.08 2278.85)"/></mask><g mask="url(#b)"><use xlink:href="#path3_stroke_2x" transform="translate(576.08 2278.85)" fill="#333"/></g></g><g transform="translate(-565 -2265)"><use xlink:href="#path4_fill" transform="translate(579.77 2278.85)" fill="#333"/><mask id="c"><path fill="#fff" transform="translate(579.77 2278.85)" d="M-1-1h8v8h-8z"/><use xlink:href="#path4_fill" transform="translate(579.77 2278.85)"/></mask><g mask="url(#c)"><use xlink:href="#path5_stroke_2x" transform="translate(579.77 2278.85)" fill="#333"/></g></g><g transform="translate(-565 -2265)"><use xlink:href="#path6_fill" transform="translate(565.92 2265.92)" fill="#333"/><mask id="d"><path fill="#fff" transform="translate(565.92 2265.92)" d="M-1-1h24v21H-1z"/><use xlink:href="#path6_fill" transform="translate(565.92 2265.92)"/></mask><g mask="url(#d)"><use xlink:href="#path7_stroke_2x" transform="translate(565.92 2265.92)" fill="#333"/></g></g><defs><path id="path0_fill" fill-rule="evenodd" d="M3.33.36v5.79c.74.16 1.29.78 1.29 1.52 0 .86-.75 1.56-1.67 1.56-.92 0-1.67-.7-1.67-1.56 0-.74.55-1.36 1.28-1.52V.72H.38C.18.72 0 .56 0 .36 0 .16.17 0 .39 0h2.56c.21 0 .38.16.38.36zm-1.28 7.3c0 .47.4.85.9.85s.9-.38.9-.84c0-.47-.4-.84-.9-.84s-.9.37-.9.84z"/><path id="path1_stroke_2x" d="M3.33 6.15h-.1v.08l.08.01.02-.1zm-.77 0l.03.1.07-.02v-.08h-.1zm0-5.43h.1v-.1h-.1v.1zm.87 5.43V.36h-.2v5.79h.2zm1.28 1.52c0-.8-.58-1.45-1.36-1.62l-.04.2c.7.15 1.2.73 1.2 1.42h.2zM2.96 9.33c.97 0 1.77-.74 1.77-1.66h-.2c0 .8-.7 1.46-1.57 1.46v.2zM1.18 7.67c0 .92.8 1.66 1.77 1.66v-.2c-.87 0-1.57-.66-1.57-1.46h-.2zm1.36-1.62a1.7 1.7 0 0 0-1.36 1.62h.2c0-.69.51-1.27 1.2-1.43l-.04-.2zM2.46.72v5.43h.2V.72h-.2zM.38.82h2.18v-.2H.38v.2zM-.1.36c0 .26.22.46.48.46v-.2C.23.62.1.5.1.36h-.2zM.38-.1C.13-.1-.1.1-.1.36h.2C.1.22.22.1.39.1v-.2zm2.57 0H.38v.2h2.57v-.2zm.48.46a.47.47 0 0 0-.48-.46v.2c.16 0 .28.12.28.26h.2zm-.48 8.05c-.45 0-.8-.34-.8-.74h-.2c0 .52.46.94 1 .94v-.2zm.8-.74c0 .4-.35.74-.8.74v.2c.54 0 1-.42 1-.94h-.2zm-.8-.74c.45 0 .8.34.8.74h.2c0-.53-.46-.94-1-.94v.2zm-.8.74c0-.4.35-.74.8-.74v-.2c-.54 0-1 .41-1 .94h.2z"/><path id="path2_fill" fill-rule="evenodd" d="M3.33.36v5.79c.74.16 1.29.78 1.29 1.52 0 .86-.75 1.56-1.67 1.56-.92 0-1.67-.7-1.67-1.56 0-.74.55-1.36 1.28-1.52V.72H.38C.18.72 0 .56 0 .36 0 .16.17 0 .39 0h2.56c.21 0 .38.16.38.36zm-1.28 7.3c0 .47.4.85.9.85s.9-.38.9-.84c0-.47-.4-.84-.9-.84s-.9.37-.9.84z"/><path id="path3_stroke_2x" d="M3.33 6.15h-.1v.08l.08.01.02-.1zm-.77 0l.03.1.07-.02v-.08h-.1zm0-5.43h.1v-.1h-.1v.1zm.87 5.43V.36h-.2v5.79h.2zm1.28 1.52c0-.8-.58-1.45-1.36-1.62l-.04.2c.7.15 1.2.73 1.2 1.42h.2zM2.96 9.33c.97 0 1.77-.74 1.77-1.66h-.2c0 .8-.7 1.46-1.57 1.46v.2zM1.18 7.67c0 .92.8 1.66 1.77 1.66v-.2c-.87 0-1.57-.66-1.57-1.46h-.2zm1.36-1.62a1.7 1.7 0 0 0-1.36 1.62h.2c0-.69.51-1.27 1.2-1.43l-.04-.2zM2.46.72v5.43h.2V.72h-.2zM.38.82h2.18v-.2H.38v.2zM-.1.36c0 .26.22.46.48.46v-.2C.23.62.1.5.1.36h-.2zM.38-.1C.13-.1-.1.1-.1.36h.2C.1.22.22.1.39.1v-.2zm2.57 0H.38v.2h2.57v-.2zm.48.46a.47.47 0 0 0-.48-.46v.2c.16 0 .28.12.28.26h.2zm-.48 8.05c-.45 0-.8-.34-.8-.74h-.2c0 .52.46.94 1 .94v-.2zm.8-.74c0 .4-.35.74-.8.74v.2c.54 0 1-.42 1-.94h-.2zm-.8-.74c.45 0 .8.34.8.74h.2c0-.53-.46-.94-1-.94v.2zm-.8.74c0-.4.35-.74.8-.74v-.2c-.54 0-1 .41-1 .94h.2z"/><path id="path4_fill" fill-rule="evenodd" d="M3.6 4.64A1.46 1.46 0 0 1 5.01 3.5c.8 0 1.45.66 1.45 1.48s-.65 1.48-1.45 1.48a1.46 1.46 0 0 1-1.4-1.14H2.55a.34.34 0 0 1-.33-.34V.68H.33A.34.34 0 0 1 0 .34C0 .15.15 0 .33 0h2.23c.19 0 .34.15.34.34v4.3h.7zm.63.34c0 .44.35.8.78.8a.79.79 0 0 0 .78-.8.79.79 0 0 0-.78-.8.79.79 0 0 0-.78.8z"/><path id="path5_stroke_2x" d="M3.6 4.64v.1h.08l.02-.08-.1-.02zm0 .68l.1-.02-.02-.08H3.6v.1zM2.23.68h.1v-.1h-.1v.1zm.67 3.96h-.1v.1h.1v-.1zM5 3.4c-.73 0-1.34.52-1.5 1.22l.2.04A1.36 1.36 0 0 1 5 3.6v-.2zm1.55 1.58c0-.87-.7-1.58-1.55-1.58v.2c.75 0 1.35.62 1.35 1.38h.2zM5.01 6.56c.86 0 1.55-.7 1.55-1.58h-.2c0 .76-.6 1.38-1.35 1.38v.2zm-1.5-1.21A1.56 1.56 0 0 0 5 6.55v-.2c-.63 0-1.17-.45-1.3-1.06l-.2.04zm-.95.07H3.6v-.2H2.56v.2zm-.43-.44c0 .24.19.44.43.44v-.2a.24.24 0 0 1-.23-.24h-.2zm0-4.3v4.3h.2V.68h-.2zm-1.8.1h1.9v-.2H.33v.2zM-.1.34c0 .24.2.44.43.44v-.2A.24.24 0 0 1 .1.34h-.2zM.33-.1C.1-.1-.1.1-.1.34h.2C.1.21.2.1.33.1v-.2zm2.23 0H.33v.2h2.23v-.2zM3 .34a.44.44 0 0 0-.44-.44v.2c.13 0 .24.1.24.24H3zm0 4.3V.34h-.2v4.3H3zm.6-.1h-.7v.2h.7v-.2zm1.41 1.14a.69.69 0 0 1-.68-.7h-.2a.89.89 0 0 0 .88.9v-.2zm.68-.7a.69.69 0 0 1-.68.7v.2a.89.89 0 0 0 .88-.9h-.2zm-.68-.7c.38 0 .68.31.68.7h.2a.89.89 0 0 0-.88-.9v.2zm-.68.7a.69.69 0 0 1 .68-.7v-.2a.89.89 0 0 0-.88.9h.2z"/><path id="path6_fill" fill-rule="evenodd" d="M19.47 6.23a3.84 3.84 0 0 1 1.84 1.23c.55.66.84 1.49.84 2.34a3.78 3.78 0 0 1-3.81 3.73h-.2a.35.35 0 0 1-.35-.34.35.35 0 0 1 .36-.35h.19c1.71 0 3.1-1.37 3.1-3.04 0-1.43-.98-2.65-2.4-2.97a.35.35 0 0 1-.27-.33A5.94 5.94 0 0 0 12.79.7a6.01 6.01 0 0 0-5.25 3.02.36.36 0 0 1-.45.15 2.37 2.37 0 0 0-.93-.19c-1.17 0-2.17.86-2.33 2a.35.35 0 0 1-.28.3 3.49 3.49 0 0 0-2.84 3.4 3.5 3.5 0 0 0 3.54 3.46h1.17a.35.35 0 0 1 .35.35v4.7a.35.35 0 0 1-.35.34h-1.1a1.53 1.53 0 0 1-1.5 1.15c-.84 0-1.52-.67-1.52-1.5 0-.82.68-1.5 1.53-1.5.72 0 1.33.5 1.49 1.16h.75v-4.01h-.82A4.2 4.2 0 0 1 0 9.37c0-1.9 1.32-3.55 3.18-4.02a3.05 3.05 0 0 1 3.9-2.22A6.73 6.73 0 0 1 12.78 0c1.78 0 3.45.68 4.72 1.9a6.45 6.45 0 0 1 1.97 4.33zM2 17.88c0 .45.37.81.83.81a.82.82 0 0 0 .82-.8.82.82 0 0 0-.82-.81.82.82 0 0 0-.83.8z"/><path id="path7_stroke_2x" d="M21.31 7.46l-.07.06.07-.06zm-1.84-1.23h-.1v.07l.07.02.03-.1zm-.43.6l.03-.1-.03.1zm-.27-.33h.1-.1zM7.54 3.72l-.08-.05.08.05zm-.45.15l-.04.1.04-.1zM3.83 5.68l-.1-.01.1.01zm-.28.3l.02.1-.02-.1zm.77 12.25v-.1h-.08l-.02.08.1.02zm0-.7l-.1.03.02.08h.08v-.1zm.75 0v.1h.1v-.1h-.1zm0-4h.1v-.1h-.1v.1zm-1.9-8.18l.03.1.06-.02.01-.06-.1-.02zm3.9-2.22l-.02.1.07.02.04-.07-.08-.05zM17.5 1.9l.07-.07-.07.07zm3.89 5.5a3.94 3.94 0 0 0-1.9-1.27l-.05.2a3.74 3.74 0 0 1 1.8 1.19l.15-.13zm.86 2.4c0-.88-.3-1.73-.86-2.4l-.16.12c.53.64.82 1.45.82 2.28h.2zm-3.91 3.83a3.88 3.88 0 0 0 3.91-3.83h-.2c0 2-1.66 3.63-3.71 3.63v.2zm-.2 0h.2v-.2h-.2v.2zm-.45-.44a.45.45 0 0 0 .46.44v-.2a.25.25 0 0 1-.26-.24h-.2zm.46-.45a.45.45 0 0 0-.46.45h.2a.25.25 0 0 1 .26-.25v-.2zm.19 0h-.2v.2h.2v-.2zm3-2.94a2.98 2.98 0 0 1-3 2.94v.2c1.77 0 3.2-1.4 3.2-3.14h-.2zm-2.32-2.87a2.94 2.94 0 0 1 2.33 2.87h.2a3.14 3.14 0 0 0-2.49-3.06l-.04.2zm-.35-.43a.45.45 0 0 0 .35.43l.04-.2a.25.25 0 0 1-.2-.23h-.2zM12.78.8a5.84 5.84 0 0 1 5.89 5.7h.2A6.04 6.04 0 0 0 12.78.6v.2zM7.63 3.76A5.91 5.91 0 0 1 12.78.8V.6a6.11 6.11 0 0 0-5.32 3.08l.17.1zm-.58.2c.22.08.47 0 .58-.2l-.17-.1a.26.26 0 0 1-.33.11l-.08.18zm-.89-.19c.31 0 .61.06.9.18l.07-.18a2.47 2.47 0 0 0-.97-.2v.2zM3.93 5.7a2.24 2.24 0 0 1 2.23-1.9v-.2c-1.22 0-2.27.89-2.42 2.08l.2.02zm-.36.38a.45.45 0 0 0 .36-.38l-.2-.02a.25.25 0 0 1-.2.2l.04.2zM.81 9.37c0-1.6 1.16-2.99 2.76-3.3l-.04-.2a3.59 3.59 0 0 0-2.92 3.5h.2zm3.44 3.37A3.4 3.4 0 0 1 .8 9.37H.6a3.6 3.6 0 0 0 3.64 3.57v-.2zm1.17 0H4.25v.2h1.17v-.2zm.45.44a.45.45 0 0 0-.45-.44v.2a.25.25 0 0 1 .25.24h.2zm0 4.7v-4.7h-.2v4.7h.2zm-.45.45a.45.45 0 0 0 .45-.45h-.2a.25.25 0 0 1-.25.25v.2zm-1.1 0h1.1v-.2h-1.1v.2zm-1.5 1.16c.78 0 1.42-.53 1.6-1.23l-.2-.05a1.43 1.43 0 0 1-1.4 1.07v.2zm-1.62-1.6c0 .88.73 1.6 1.63 1.6v-.2c-.8 0-1.43-.63-1.43-1.4h-.2zm1.63-1.6c-.9 0-1.63.71-1.63 1.6h.2c0-.78.64-1.4 1.43-1.4v-.2zm1.59 1.22a1.63 1.63 0 0 0-1.6-1.23v.2c.68 0 1.25.47 1.4 1.08l.2-.05zm.65-.07h-.75v.2h.75v-.2zm-.1-3.9v4h.2v-4.01h-.2zm-.72.1h.82v-.2h-.82v.2zM-.1 9.36a4.3 4.3 0 0 0 4.35 4.26v-.2A4.1 4.1 0 0 1 .1 9.37h-.2zm3.25-4.12A4.28 4.28 0 0 0-.1 9.37h.2a4.08 4.08 0 0 1 3.1-3.92l-.05-.2zM6.16 2.9a3.15 3.15 0 0 0-3.08 2.44l.2.04A2.95 2.95 0 0 1 6.15 3.1v-.2zm.95.14a3.2 3.2 0 0 0-.95-.14v.2a3 3 0 0 1 .89.13l.06-.19zM12.78-.1A6.83 6.83 0 0 0 7 3.08l.17.1A6.63 6.63 0 0 1 12.78.1v-.2zm4.79 1.93A6.82 6.82 0 0 0 12.78-.1v.2c1.76 0 3.4.66 4.65 1.87l.14-.14zm2 4.4a6.55 6.55 0 0 0-2-4.4l-.14.14a6.35 6.35 0 0 1 1.94 4.26h.2zM2.83 18.58a.72.72 0 0 1-.73-.7h-.2c0 .5.42.9.93.9v-.2zm.72-.7a.72.72 0 0 1-.72.7v.2a.92.92 0 0 0 .92-.9h-.2zm-.72-.71c.4 0 .72.32.72.7h.2a.92.92 0 0 0-.92-.9v.2zm-.73.7c0-.38.33-.7.73-.7v-.2a.92.92 0 0 0-.93.9h.2z"/></defs></svg>