<?xml version="1.0" encoding="utf-8"?>
<!-- Generator: Adobe Illustrator 16.0.0, SVG Export Plug-In . SVG Version: 6.00 Build 0)  -->
<!DOCTYPE svg PUBLIC "-//W3C//DTD SVG 1.1 Tiny//EN" "http://www.w3.org/Graphics/SVG/1.1/DTD/svg11-tiny.dtd">
<svg version="1.1" baseProfile="tiny" xmlns="http://www.w3.org/2000/svg" xmlns:xlink="http://www.w3.org/1999/xlink" x="0px"
	 y="0px" width="176px" height="176px" viewBox="0 0 176 176" xml:space="preserve">
<g id="Layer_1">
	<path fill="#FFFC9D" stroke="#EDBA08" stroke-width="2" stroke-miterlimit="10" d="M170.5,88c0,14.821-3.908,28.729-10.75,40.75
		c-3.441,6.046,10.75,42.5,10.75,42.5s-33.396-16.586-39.311-12.944C118.626,166.039,103.834,170.5,88,170.5
		c-45.563,0-82.5-36.937-82.5-82.5S42.437,5.5,88,5.5S170.5,42.437,170.5,88z"/>
</g>
<g id="Layer_2">
	<polygon fill="#993300" stroke="#EDBA08" stroke-width="2" stroke-miterlimit="10" points="88,63.275 96.033,79.553 
		113.997,82.164 100.998,94.834 104.066,112.725 88,104.277 71.933,112.725 75.001,94.834 62.003,82.164 79.966,79.553 	"/>
</g>
<g id="Layer_3">
	<polygon fill="#993300" stroke="#EDBA08" stroke-width="2" stroke-miterlimit="10" points="97.5,60 142.25,5.5 170.5,5.5 
		106,70.25 	"/>
	<g>
	</g>
	<g>
	</g>
	<g>
	</g>
	<g>
	</g>
	<g>
	</g>
	<g>
	</g>
</g>
</svg>
