<svg baseProfile="tiny" xmlns="http://www.w3.org/2000/svg" width="176" height="176"><path fill="#FFFC9D" stroke="#EDBA08" stroke-width="2" stroke-miterlimit="10" d="M170.5 88c0 14.821-3.908 28.729-10.75 40.75-3.441 6.046 10.75 42.5 10.75 42.5s-33.396-16.586-39.311-12.944C118.626 166.039 103.834 170.5 88 170.5c-45.563 0-82.5-36.937-82.5-82.5S42.437 5.5 88 5.5s82.5 36.937 82.5 82.5z"/><path fill="#930" stroke="#EDBA08" stroke-width="2" stroke-miterlimit="10" d="M88 63.275l8.033 16.278 17.964 2.611-12.999 12.67 3.068 17.891L88 104.277l-16.067 8.448 3.068-17.891-12.998-12.67 17.963-2.611zM97.5 60l44.75-54.5h28.25L106 70.25z"/></svg>