<?xml version="1.0" encoding="utf-8"?>
<!-- Generator: Adobe Illustrator 16.0.0, SVG Export Plug-In . SVG Version: 6.00 Build 0)  -->
<!DOCTYPE svg PUBLIC "-//W3C//DTD SVG 1.1 Tiny//EN" "http://www.w3.org/Graphics/SVG/1.1/DTD/svg11-tiny.dtd">
<svg version="1.1" baseProfile="tiny" xmlns="http://www.w3.org/2000/svg" xmlns:xlink="http://www.w3.org/1999/xlink" x="0px"
	 y="0px" width="256px" height="256px" viewBox="0 0 256 256" xml:space="preserve">
<g id="colors" display="none">
	<circle display="inline" fill="#DEA500" cx="221.028" cy="11.714" r="11.715"/>
	<circle display="inline" fill="#EDBA08" cx="197.771" cy="11.714" r="11.715"/>
	<circle display="inline" fill="#F0CB3C" cx="174.514" cy="11.714" r="11.714"/>
	<circle display="inline" fill="#F4DC5E" cx="151.257" cy="11.714" r="11.714"/>
	<circle display="inline" fill="#F9EC7E" cx="128" cy="11.714" r="11.715"/>
	<circle display="inline" fill="#938970" cx="11.715" cy="11.715" r="11.715"/>
	<circle display="inline" fill="#FFFC9D" cx="104.743" cy="11.715" r="11.715"/>
	<circle display="inline" fill="#E6DD91" cx="81.486" cy="11.714" r="11.715"/>
	<circle display="inline" fill="#CBC086" cx="58.229" cy="11.714" r="11.715"/>
	<circle display="inline" fill="#B0A47B" cx="34.972" cy="11.715" r="11.715"/>
	<circle display="inline" fill="#993300" cx="244.285" cy="11.714" r="11.715"/>
</g>
<g id="A" display="none">
	<g>
		<rect display="inline" fill="none" width="256" height="256"/>
		<path display="inline" fill="#938970" d="M176.252,182.725H79.748L58.074,243H26.75l87.961-230.344h26.578L229.408,243h-31.166
			L176.252,182.725z M88.924,157.887h78.311L128,50.15L88.924,157.887z"/>
	</g>
	<path display="inline" fill="#E6DD91" d="M114.711,12.656 M141.289,12.656L229.408,243h-31.166l-21.99-60.275H79.748L58.074,243
		H26.75 M88.924,157.887h78.311L128,50.15L88.924,157.887z M26.75,243l87.961-230.344h26.578 M200.285,70.072L8,175.943
		l10.688,19.414L210.973,89.486L200.285,70.072z M222.32,89.446L53.109,182.613l10.68,17.084L233,106.529L222.32,89.446z
		 M231.766,16.76L62.555,109.926l9.405,17.084l169.21-93.167L231.766,16.76z M242.875,141.789L73.664,234.955l9.405,17.084
		l169.21-93.166L242.875,141.789z M172.211,46.303L3,139.469l9.406,17.084l169.209-93.167L172.211,46.303z M236.762,38.32
		L67.55,131.487l9.405,17.085l169.211-93.168L236.762,38.32z M187.766,7.96L18.555,101.126l9.405,17.084l169.21-93.167L187.766,7.96
		z M218.875,122.989L49.664,216.155l9.405,17.085l169.21-93.168L218.875,122.989z"/>
</g>
<g id="Z_1_" display="none">
	<g>
		<rect display="inline" fill="none" width="256" height="256"/>
		<path display="inline" fill="#938970" d="M80.539,218.162h131.783V243H44.627v-22.781L170.873,37.494H46.684V12.656H207.26v22.166
			L80.539,218.162z"/>
	</g>
	<g display="inline">
		<path fill="#938970" d="M80.539,218.162h131.783V243H44.627v-22.781L170.873,37.494H46.684V12.656H207.26v22.166L80.539,218.162z"
			/>
	</g>
</g>
<g id="B">
	<g id="B_1_" display="none">
		<rect display="inline" fill="none" width="256" height="256"/>
		<path display="inline" fill="#938970" d="M53.882,243V12.656h75.305c24.996,0,43.795,5.169,56.399,15.504
			c12.602,10.337,18.905,25.629,18.905,45.879c0,10.758-3.061,20.277-9.176,28.556c-6.118,8.281-14.451,14.688-24.996,19.222
			c12.443,3.48,22.279,10.101,29.505,19.854c7.223,9.757,10.837,21.385,10.837,34.884c0,20.673-6.699,36.916-20.092,48.727
			C177.174,237.095,158.241,243,133.774,243H53.882z M84.257,110.9h45.879c13.289,0,23.913-3.327,31.878-9.986
			c7.962-6.66,11.944-15.697,11.944-27.112c0-12.684-3.693-21.906-11.074-27.666c-7.384-5.759-18.616-8.642-33.697-8.642h-44.93
			V110.9z M84.257,135.264v82.898h50.15c14.132,0,25.285-3.663,33.46-10.995c8.172-7.329,12.261-17.427,12.261-30.296
			c0-27.737-15.084-41.607-45.246-41.607H84.257z"/>
	</g>
	<path fill="#CBC086" d="M53.882,243V12.656h75.305c24.996,0,43.795,5.169,56.399,15.504c12.602,10.337,18.905,25.629,18.905,45.879
		c0,10.758-3.061,20.277-9.176,28.556c-6.118,8.281-14.451,14.688-24.996,19.222c12.443,3.48,22.279,10.101,29.505,19.854
		c7.223,9.757,10.837,21.385,10.837,34.884c0,20.673-6.699,36.916-20.092,48.727C177.174,237.095,158.241,243,133.774,243H53.882z
		 M84.257,110.9h45.879c13.289,0,23.913-3.327,31.878-9.986c7.962-6.66,11.944-15.697,11.944-27.112
		c0-12.684-3.693-21.906-11.074-27.666c-7.384-5.759-18.616-8.642-33.697-8.642h-44.93V110.9z M84.257,135.264v82.898h50.15
		c14.132,0,25.285-3.663,33.46-10.995c8.172-7.329,12.261-17.427,12.261-30.296c0-27.737-15.084-41.607-45.246-41.607H84.257z
		 M44.167,63.999c-15.188,0-27.5,12.312-27.5,27.5s12.312,27.5,27.5,27.5s27.5-12.312,27.5-27.5S59.355,63.999,44.167,63.999z
		 M96.41,59.499c-10.493,0-19,8.507-19,19s8.507,19,19,19s19-8.507,19-19S106.903,59.499,96.41,59.499z M59.445,26.513
		c-9.657,0-17.486,7.829-17.486,17.486c0,9.657,7.829,17.486,17.486,17.486c9.657,0,17.486-7.829,17.486-17.486
		C76.931,34.342,69.102,26.513,59.445,26.513z M164.717,4.666c-15.479,0-28.027,12.549-28.027,28.028s12.549,28.028,28.027,28.028
		c15.48,0,28.029-12.549,28.029-28.028S180.197,4.666,164.717,4.666z M178.668,63.999c-10.494,0-19,8.507-19,19s8.506,19,19,19
		c10.492,0,19-8.507,19-19S189.16,63.999,178.668,63.999z M191.039,121.499c-9.609,0-17.4,7.79-17.4,17.4
		c0,9.609,7.791,17.399,17.4,17.399s17.4-7.79,17.4-17.399C208.439,129.289,200.648,121.499,191.039,121.499z M136.689,91.499
		c-7.469,0-13.522,6.054-13.522,13.521s6.054,13.521,13.522,13.521c7.467,0,13.521-6.054,13.521-13.521
		S144.156,91.499,136.689,91.499z M142.418,63.999c-6.215,0-11.251,5.037-11.251,11.25s5.036,11.25,11.251,11.25
		c6.213,0,11.25-5.037,11.25-11.25S148.631,63.999,142.418,63.999z M66.917,125.499c-9.803,0-17.75,7.947-17.75,17.75
		s7.947,17.75,17.75,17.75s17.75-7.947,17.75-17.75S76.72,125.499,66.917,125.499z M81.833,180.834c-19.606,0-35.5,15.894-35.5,35.5
		s15.894,35.5,35.5,35.5s35.5-15.894,35.5-35.5S101.439,180.834,81.833,180.834z M166.707,156.299
		c-16.578,0-30.018,13.439-30.018,30.018s13.439,30.018,30.018,30.018s30.018-13.439,30.018-30.018S183.285,156.299,166.707,156.299
		z M220.918,164.999c-8.146,0-14.75,6.604-14.75,14.75s6.604,14.75,14.75,14.75s14.75-6.604,14.75-14.75
		S229.064,164.999,220.918,164.999z M223.168,43.999c-10.77,0-19.5,8.73-19.5,19.5s8.73,19.5,19.5,19.5s19.5-8.73,19.5-19.5
		S233.938,43.999,223.168,43.999z M196.789,43.999c-3.176,0-5.75,2.574-5.75,5.75s2.574,5.75,5.75,5.75s5.75-2.574,5.75-5.75
		S199.965,43.999,196.789,43.999z M115.41,26.971c-4.702,0-8.514,3.812-8.514,8.514s3.812,8.514,8.514,8.514
		c4.702,0,8.514-3.812,8.514-8.514S120.112,26.971,115.41,26.971z M119.917,136.999c-6.213,0-11.25,5.037-11.25,11.25
		s5.037,11.25,11.25,11.25s11.25-5.037,11.25-11.25S126.13,136.999,119.917,136.999z M88.419,6.666
		c-6.346,0-11.488,5.144-11.488,11.489s5.143,11.489,11.488,11.489S99.91,24.5,99.91,18.155S94.765,6.666,88.419,6.666z
		 M112.659,163.787c-6.234,0-11.287,5.054-11.287,11.286c0,6.234,5.053,11.287,11.287,11.287c6.233,0,11.287-5.053,11.287-11.287
		C123.945,168.841,118.892,163.787,112.659,163.787z M94.417,109.499c-5.385,0-9.75,4.365-9.75,9.75s4.365,9.75,9.75,9.75
		s9.75-4.365,9.75-9.75S99.802,109.499,94.417,109.499z M96.91,160.999c-2.627,0-4.757,2.13-4.757,4.757s2.129,4.757,4.757,4.757
		c2.627,0,4.757-2.13,4.757-4.757S99.537,160.999,96.91,160.999z"/>
	<g>
	</g>
	<g>
	</g>
	<g>
	</g>
	<g>
	</g>
	<g>
	</g>
	<g>
	</g>
</g>
</svg>
