<?xml version="1.0" encoding="utf-8"?>
<!-- Generator: Adobe Illustrator 16.0.0, SVG Export Plug-In . SVG Version: 6.00 Build 0)  -->
<!DOCTYPE svg PUBLIC "-//W3C//DTD SVG 1.1 Tiny//EN" "http://www.w3.org/Graphics/SVG/1.1/DTD/svg11-tiny.dtd">
<svg version="1.1" baseProfile="tiny" xmlns="http://www.w3.org/2000/svg" xmlns:xlink="http://www.w3.org/1999/xlink" x="0px"
	 y="0px" width="256px" height="256px" viewBox="0 0 256 256" xml:space="preserve">
<g id="colors" display="none">
	<circle display="inline" fill="#DEA500" cx="221.028" cy="11.714" r="11.715"/>
	<circle display="inline" fill="#EDBA08" cx="197.771" cy="11.714" r="11.715"/>
	<circle display="inline" fill="#F0CB3C" cx="174.514" cy="11.714" r="11.714"/>
	<circle display="inline" fill="#F4DC5E" cx="151.257" cy="11.714" r="11.714"/>
	<circle display="inline" fill="#F9EC7E" cx="128" cy="11.714" r="11.715"/>
	<circle display="inline" fill="#938970" cx="11.715" cy="11.715" r="11.715"/>
	<circle display="inline" fill="#FFFC9D" cx="104.743" cy="11.715" r="11.715"/>
	<circle display="inline" fill="#E6DD91" cx="81.486" cy="11.714" r="11.715"/>
	<circle display="inline" fill="#CBC086" cx="58.229" cy="11.714" r="11.715"/>
	<circle display="inline" fill="#B0A47B" cx="34.972" cy="11.715" r="11.715"/>
	<circle display="inline" fill="#993300" cx="244.285" cy="11.714" r="11.715"/>
</g>
<g id="A" display="none">
	<g>
		<rect display="inline" fill="none" width="256" height="256"/>
		<path display="inline" fill="#938970" d="M176.252,182.725H79.748L58.074,243H26.75l87.961-230.344h26.578L229.408,243h-31.166
			L176.252,182.725z M88.924,157.887h78.311L128,50.15L88.924,157.887z"/>
	</g>
	<path display="inline" fill="#E6DD91" d="M114.711,12.656 M141.289,12.656L229.408,243h-31.166l-21.99-60.275H79.748L58.074,243
		H26.75 M88.924,157.887h78.311L128,50.15L88.924,157.887z M26.75,243l87.961-230.344h26.578 M200.285,70.072L8,175.943
		l10.688,19.414L210.973,89.486L200.285,70.072z M222.32,89.446L53.109,182.613l10.68,17.084L233,106.529L222.32,89.446z
		 M231.766,16.76L62.555,109.926l9.405,17.084l169.21-93.167L231.766,16.76z M242.875,141.789L73.664,234.955l9.405,17.084
		l169.21-93.166L242.875,141.789z M172.211,46.303L3,139.469l9.406,17.084l169.209-93.167L172.211,46.303z M236.762,38.32
		L67.55,131.487l9.405,17.085l169.211-93.168L236.762,38.32z M187.766,7.96L18.555,101.126l9.405,17.084l169.21-93.167L187.766,7.96
		z M218.875,122.989L49.664,216.155l9.405,17.085l169.21-93.168L218.875,122.989z"/>
</g>
<g id="B" display="none">
	<g id="B_1_">
		<rect display="inline" fill="none" width="256" height="256"/>
		<path display="inline" fill="#938970" d="M53.882,243V12.656h75.305c24.996,0,43.795,5.169,56.399,15.504
			c12.602,10.337,18.905,25.629,18.905,45.879c0,10.758-3.061,20.277-9.176,28.556c-6.118,8.281-14.451,14.688-24.996,19.222
			c12.443,3.48,22.279,10.101,29.505,19.854c7.223,9.757,10.837,21.385,10.837,34.884c0,20.673-6.699,36.916-20.092,48.727
			C177.174,237.095,158.241,243,133.774,243H53.882z M84.257,110.9h45.879c13.289,0,23.913-3.327,31.878-9.986
			c7.962-6.66,11.944-15.697,11.944-27.112c0-12.684-3.693-21.906-11.074-27.666c-7.384-5.759-18.616-8.642-33.697-8.642h-44.93
			V110.9z M84.257,135.264v82.898h50.15c14.132,0,25.285-3.663,33.46-10.995c8.172-7.329,12.261-17.427,12.261-30.296
			c0-27.737-15.084-41.607-45.246-41.607H84.257z"/>
	</g>
	<path fill="#CBC086" d="M53.882,243V12.656h75.305c24.996,0,43.795,5.169,56.399,15.504c12.602,10.337,18.905,25.629,18.905,45.879
		c0,10.758-3.061,20.277-9.176,28.556c-6.118,8.281-14.451,14.688-24.996,19.222c12.443,3.48,22.279,10.101,29.505,19.854
		c7.223,9.757,10.837,21.385,10.837,34.884c0,20.673-6.699,36.916-20.092,48.727C177.174,237.095,158.241,243,133.774,243H53.882z
		 M84.257,110.9h45.879c13.289,0,23.913-3.327,31.878-9.986c7.962-6.66,11.944-15.697,11.944-27.112
		c0-12.684-3.693-21.906-11.074-27.666c-7.384-5.759-18.616-8.642-33.697-8.642h-44.93V110.9z M84.257,135.264v82.898h50.15
		c14.132,0,25.285-3.663,33.46-10.995c8.172-7.329,12.261-17.427,12.261-30.296c0-27.737-15.084-41.607-45.246-41.607H84.257z
		 M44.167,63.999c-15.188,0-27.5,12.312-27.5,27.5s12.312,27.5,27.5,27.5s27.5-12.312,27.5-27.5S59.355,63.999,44.167,63.999z
		 M96.41,59.499c-10.493,0-19,8.507-19,19s8.507,19,19,19s19-8.507,19-19S106.903,59.499,96.41,59.499z M59.445,26.513
		c-9.657,0-17.486,7.829-17.486,17.486c0,9.657,7.829,17.486,17.486,17.486c9.657,0,17.486-7.829,17.486-17.486
		C76.931,34.342,69.102,26.513,59.445,26.513z M164.717,4.666c-15.479,0-28.027,12.549-28.027,28.028s12.549,28.028,28.027,28.028
		c15.48,0,28.029-12.549,28.029-28.028S180.197,4.666,164.717,4.666z M178.668,63.999c-10.494,0-19,8.507-19,19s8.506,19,19,19
		c10.492,0,19-8.507,19-19S189.16,63.999,178.668,63.999z M191.039,121.499c-9.609,0-17.4,7.79-17.4,17.4
		c0,9.609,7.791,17.399,17.4,17.399s17.4-7.79,17.4-17.399C208.439,129.289,200.648,121.499,191.039,121.499z M136.689,91.499
		c-7.469,0-13.522,6.054-13.522,13.521s6.054,13.521,13.522,13.521c7.467,0,13.521-6.054,13.521-13.521
		S144.156,91.499,136.689,91.499z M142.418,63.999c-6.215,0-11.251,5.037-11.251,11.25s5.036,11.25,11.251,11.25
		c6.213,0,11.25-5.037,11.25-11.25S148.631,63.999,142.418,63.999z M66.917,125.499c-9.803,0-17.75,7.947-17.75,17.75
		s7.947,17.75,17.75,17.75s17.75-7.947,17.75-17.75S76.72,125.499,66.917,125.499z M81.833,180.834c-19.606,0-35.5,15.894-35.5,35.5
		s15.894,35.5,35.5,35.5s35.5-15.894,35.5-35.5S101.439,180.834,81.833,180.834z M166.707,156.299
		c-16.578,0-30.018,13.439-30.018,30.018s13.439,30.018,30.018,30.018s30.018-13.439,30.018-30.018S183.285,156.299,166.707,156.299
		z M220.918,164.999c-8.146,0-14.75,6.604-14.75,14.75s6.604,14.75,14.75,14.75s14.75-6.604,14.75-14.75
		S229.064,164.999,220.918,164.999z M223.168,43.999c-10.77,0-19.5,8.73-19.5,19.5s8.73,19.5,19.5,19.5s19.5-8.73,19.5-19.5
		S233.938,43.999,223.168,43.999z M196.789,43.999c-3.176,0-5.75,2.574-5.75,5.75s2.574,5.75,5.75,5.75s5.75-2.574,5.75-5.75
		S199.965,43.999,196.789,43.999z M115.41,26.971c-4.702,0-8.514,3.812-8.514,8.514s3.812,8.514,8.514,8.514
		c4.702,0,8.514-3.812,8.514-8.514S120.112,26.971,115.41,26.971z M119.917,136.999c-6.213,0-11.25,5.037-11.25,11.25
		s5.037,11.25,11.25,11.25s11.25-5.037,11.25-11.25S126.13,136.999,119.917,136.999z M88.419,6.666
		c-6.346,0-11.488,5.144-11.488,11.489s5.143,11.489,11.488,11.489S99.91,24.5,99.91,18.155S94.765,6.666,88.419,6.666z
		 M112.659,163.787c-6.234,0-11.287,5.054-11.287,11.286c0,6.234,5.053,11.287,11.287,11.287c6.233,0,11.287-5.053,11.287-11.287
		C123.945,168.841,118.892,163.787,112.659,163.787z M94.417,109.499c-5.385,0-9.75,4.365-9.75,9.75s4.365,9.75,9.75,9.75
		s9.75-4.365,9.75-9.75S99.802,109.499,94.417,109.499z M96.91,160.999c-2.627,0-4.757,2.13-4.757,4.757s2.129,4.757,4.757,4.757
		c2.627,0,4.757-2.13,4.757-4.757S99.537,160.999,96.91,160.999z"/>
</g>
<g id="C" display="none">
	<g id="C_1_">
		<rect display="inline" fill="none" width="256" height="256"/>
		<path display="inline" fill="#938970" d="M218.729,169.91c-2.848,24.363-11.841,43.165-26.974,56.399
			c-15.136,13.237-35.255,19.854-60.354,19.854c-27.211,0-49.018-9.754-65.417-29.268c-16.401-19.511-24.601-45.614-24.601-78.311
			v-22.148c0-21.409,3.822-40.235,11.47-56.479c7.646-16.241,18.482-28.714,32.511-37.415c14.026-8.701,30.269-13.052,48.727-13.052
			c24.467,0,44.084,6.83,58.852,20.487c14.765,13.66,23.359,32.565,25.787,56.716h-30.533c-2.638-18.406-8.36-31.737-17.165-39.988
			c-8.808-8.251-21.12-12.377-36.94-12.377c-19.407,0-34.622,7.179-45.642,21.535c-11.022,14.357-16.532,34.78-16.532,61.274v22.326
			c0,25.019,5.221,44.917,15.662,59.694s25.048,22.166,43.822,22.166c16.873,0,29.821-3.821,38.839-11.47
			c9.018-7.646,15.002-20.962,17.956-39.946H218.729z"/>
	</g>
	<path display="inline" fill="#CBC086" d="M218.729,169.91c-2.848,24.363-11.841,43.165-26.974,56.399
		c-15.136,13.237-35.255,19.854-60.354,19.854c-27.211,0-49.018-9.754-65.417-29.268c-16.401-19.511-24.601-45.614-24.601-78.311
		v-22.148c0-21.409,3.822-40.235,11.47-56.479c7.646-16.241,18.482-28.714,32.511-37.415c14.026-8.701,30.269-13.052,48.727-13.052
		c24.467,0,44.084,6.83,58.852,20.487c14.765,13.66,23.359,32.565,25.787,56.716h-30.533c-2.638-18.406-8.36-31.737-17.165-39.988
		c-8.808-8.251-21.12-12.377-36.94-12.377c-19.407,0-34.622,7.179-45.642,21.535c-11.022,14.357-16.532,34.78-16.532,61.274v22.326
		c0,25.019,5.221,44.917,15.662,59.694s25.048,22.166,43.822,22.166c16.873,0,29.821-3.821,38.839-11.47
		c9.018-7.646,15.002-20.962,17.956-39.946H218.729z M46.342,64.931l7.729-12.997l-15.018,1.771l-9.972-11.367l-2.957,14.83
		l-13.893,5.972l13.19,7.395l1.386,15.058l11.109-10.26l14.75,3.335L46.342,64.931z M48.531,131.479l6.541-19.638l-19.566,6.753
		l-16.656-12.29L19.228,127L2.393,139.043l19.799,6.037l6.251,19.731l11.86-16.964L61,148L48.531,131.479z M84.347,50.375
		l8.951-16.907l-18.864,3.18L61.12,22.91l-2.806,18.924L41.135,50.25l17.131,8.516l2.696,18.939l13.393-13.661l18.846,3.288
		L84.347,50.375z M121.163,38.723l11.526-3.688l-9.938-6.905l0.054-12.101l-9.638,7.317l-11.492-3.791l3.981,11.428l-7.157,9.758
		l12.099-0.255l7.069,9.822L121.163,38.723z M143.963,50.615l3.092-5.006l-5.854,0.59l-3.806-4.488l-1.247,5.75l-5.444,2.232
		l5.083,2.963l0.44,5.868l4.389-3.918L146.333,56L143.963,50.615z M76.078,101.035l6.104-13.413l-14.359,3.314l-10.87-9.95
		l-1.285,14.68l-12.822,7.264l13.564,5.759l2.946,14.438l9.668-11.121l14.643,1.66L76.078,101.035z M55.364,183.892l3.18-19.678
		l-17.554,9.445l-17.732-9.105l3.559,19.613l-14.139,14.051l19.753,2.676l8.994,17.789l8.649-17.959l19.698-3.057L55.364,183.892z
		 M197.11,164.596l17.459-21.997l-28.08-0.478l-15.525-23.402l-9.131,26.558l-27.055,7.534l22.437,16.891l-1.195,28.059
		l22.998-16.118l26.315,9.807L197.11,164.596z M89.74,173.278l-19.585,2.846l14.172,13.814l-3.346,19.506l17.518-9.21l17.518,9.21
		l-3.346-19.506l14.172-13.814l-19.585-2.846l-8.759-17.747L89.74,173.278z M200.257,37.429l-16.835-5.156l8.773,15.266
		l-14.528,9.948l17.405,2.659l-1.28,17.56l12.931-11.95l12.931,11.95l-1.28-17.56l17.405-2.659l-14.528-9.948l8.773-15.266
		l-16.835,5.156l-6.466-16.377L200.257,37.429z"/>
</g>
<g id="D" display="none">
	<g id="D_1_">
		<rect display="inline" fill="none" width="256" height="256"/>
		<path display="inline" fill="#938970" d="M48.503,243V12.656h65.021c20.037,0,37.756,4.43,53.156,13.289
			c15.397,8.859,27.29,21.464,35.675,37.811c8.385,16.349,12.629,35.121,12.735,56.32v14.713c0,21.729-4.192,40.765-12.577,57.111
			c-8.385,16.35-20.356,28.899-35.912,37.652c-15.559,8.756-33.673,13.237-54.343,13.447H48.503z M78.878,37.494v180.668h31.957
			c23.414,0,41.632-7.282,54.659-21.85c13.024-14.566,19.538-35.312,19.538-62.23v-13.459c0-26.178-6.146-46.524-18.431-61.04
			c-12.288-14.515-29.718-21.876-52.286-22.089H78.878z"/>
	</g>
	<path display="inline" fill="#F0CB3C" d="M48.503,243V12.656h65.021c20.037,0,37.756,4.43,53.156,13.289
		c15.397,8.859,27.29,21.464,35.675,37.811c8.385,16.349,12.629,35.121,12.735,56.32v14.713c0,21.729-4.192,40.765-12.577,57.111
		c-8.385,16.35-20.356,28.899-35.912,37.652c-15.559,8.756-33.673,13.237-54.343,13.447H48.503z M78.878,37.494v180.668h31.957
		c23.414,0,41.632-7.282,54.659-21.85c13.024-14.566,19.538-35.312,19.538-62.23v-13.459c0-26.178-6.146-46.524-18.431-61.04
		c-12.288-14.515-29.718-21.876-52.286-22.089H78.878z M221.667,210.334L193.333,214L232,190.334l-52.667,9.332l57.667-50
		L140.797,202l93.536-86L43,242.334L224.091,90.667L48,218.666L218,70.333L45.667,188L206.333,54.667L50.667,162.334l140.667-124
		L39.667,131.667L161,32.333l-115.333,75l85-80.667L47.667,83L109,28.667l-61,36l39.333-41l-50,41"/>
</g>
<g id="Z_1_" display="none">
	<g>
		<rect display="inline" fill="none" width="256" height="256"/>
		<path display="inline" fill="#938970" d="M80.539,218.162h131.783V243H44.627v-22.781L170.873,37.494H46.684V12.656H207.26v22.166
			L80.539,218.162z"/>
	</g>
	<g display="inline">
		<path fill="#938970" d="M80.539,218.162h131.783V243H44.627v-22.781L170.873,37.494H46.684V12.656H207.26v22.166L80.539,218.162z"
			/>
	</g>
</g>
<g id="E">
	<g id="E_1_" display="none">
		<rect display="inline" fill="none" width="256" height="256"/>
		<path display="inline" fill="#938970" d="M192.863,136.529H93.037v81.633H209V243H62.662V12.656h144.756v24.838H93.037v74.197
			h99.826V136.529z"/>
	</g>
	<path fill="#CBC086" d="M192.863,136.529H93.037v81.633H209V243H62.662V12.656h144.756v24.838H93.037v74.197h99.826V136.529z
		 M111.333,35c0-3.313-2.687-6-6-6H88.667c-3.313,0-6,2.687-6,6v16.667c0,3.313,2.687,6,6,6h16.667c3.313,0,6-2.687,6-6V35z
		 M131.333,99c0-2.025-1.642-3.667-3.667-3.667H84c-2.025,0-3.667,1.642-3.667,3.667l0,0c0,2.025,1.642,3.667,3.667,3.667h43.667
		C129.691,102.667,131.333,101.025,131.333,99L131.333,99z M128,113.5c0-2.301-1.865-4.167-4.167-4.167h-30
		c-2.301,0-4.167,1.865-4.167,4.167l0,0c0,2.301,1.865,4.167,4.167,4.167h30C126.135,117.667,128,115.801,128,113.5L128,113.5z
		 M202,112.333c0-3.313-2.687-6-6-6h-8c-3.313,0-6,2.687-6,6V137c0,3.313,2.687,6,6,6h8c3.313,0,6-2.687,6-6V112.333z M224.333,35
		c0-3.313-2.687-6-6-6H194c-3.313,0-6,2.687-6,6v2.333c0,3.314,2.687,6,6,6h24.333c3.313,0,6-2.686,6-6V35z M229.333,237.667
		c0-3.313-2.687-6-6-6H194c-3.313,0-6,2.687-6,6V242c0,3.313,2.687,6,6,6h29.333c3.313,0,6-2.687,6-6V237.667z M28.333,184.333
		c0,3.313,2.687,6,6,6h71c3.313,0,6-2.687,6-6v-12c0-3.313-2.687-6-6-6h-71c-3.313,0-6,2.687-6,6V184.333z M73,130.667
		c0-3.314-2.687-6-6-6h-6.333c-3.313,0-6,2.686-6,6v20c0,3.313,2.687,6,6,6H67c3.313,0,6-2.687,6-6V130.667z M108.833,215.667
		c0-3.313-2.686-6-6-6H88.667c-3.313,0-6,2.687-6,6v4c0,3.313,2.687,6,6,6h14.167c3.314,0,6-2.687,6-6V215.667z M133.667,136
		c0-3.313-2.687-6-6-6h-39c-3.313,0-6,2.687-6,6v5.667c0,3.313,2.687,6,6,6h39c3.313,0,6-2.687,6-6V136z M192,214
		c0-3.313-2.687-6-6-6h-27.333c-3.313,0-6,2.687-6,6v2.333c0,3.313,2.687,6,6,6H186c3.313,0,6-2.687,6-6V214z M138.333,199.333
		c0-3.313-2.687-6-6-6h-0.999c-3.314,0-6,2.687-6,6V242c0,3.313,2.687,6,6,6h0.999c3.313,0,6-2.687,6-6V199.333z M108.833,71.5
		c0-3.038-2.462-5.5-5.5-5.5H38.5c-3.038,0-5.5,2.462-5.5,5.5l0,0c0,3.038,2.462,5.5,5.5,5.5h64.833
		C106.371,77,108.833,74.538,108.833,71.5L108.833,71.5z M77,24c0-3.313-2.687-6-6-6H17.667c-3.313,0-6,2.687-6,6v0.333
		c0,3.313,2.687,6,6,6H71c3.313,0,6-2.687,6-6V24z M170.667,33.333c0-3.313-2.687-6-6-6h-1.334c-3.313,0-6,2.687-6,6V40
		c0,3.313,2.687,6,6,6h1.334c3.313,0,6-2.687,6-6V33.333z"/>
	<g>
	</g>
	<g>
	</g>
	<g>
	</g>
	<g>
	</g>
	<g>
	</g>
	<g>
	</g>
</g>
</svg>
