<?xml version="1.0" encoding="utf-8"?>
<!-- Generator: Adobe Illustrator 16.0.0, SVG Export Plug-In . SVG Version: 6.00 Build 0)  -->
<!DOCTYPE svg PUBLIC "-//W3C//DTD SVG 1.1 Tiny//EN" "http://www.w3.org/Graphics/SVG/1.1/DTD/svg11-tiny.dtd">
<svg version="1.1" baseProfile="tiny" xmlns="http://www.w3.org/2000/svg" xmlns:xlink="http://www.w3.org/1999/xlink" x="0px"
	 y="0px" width="256px" height="256px" viewBox="0 0 256 256" xml:space="preserve">
<g id="colors" display="none">
	<circle display="inline" fill="#DEA500" cx="221.028" cy="11.714" r="11.715"/>
	<circle display="inline" fill="#EDBA08" cx="197.771" cy="11.714" r="11.715"/>
	<circle display="inline" fill="#F0CB3C" cx="174.514" cy="11.714" r="11.714"/>
	<circle display="inline" fill="#F4DC5E" cx="151.257" cy="11.714" r="11.714"/>
	<circle display="inline" fill="#F9EC7E" cx="128" cy="11.714" r="11.715"/>
	<circle display="inline" fill="#938970" cx="11.715" cy="11.715" r="11.715"/>
	<circle display="inline" fill="#FFFC9D" cx="104.743" cy="11.715" r="11.715"/>
	<circle display="inline" fill="#E6DD91" cx="81.486" cy="11.714" r="11.715"/>
	<circle display="inline" fill="#CBC086" cx="58.229" cy="11.714" r="11.715"/>
	<circle display="inline" fill="#B0A47B" cx="34.972" cy="11.715" r="11.715"/>
	<circle display="inline" fill="#993300" cx="244.285" cy="11.714" r="11.715"/>
</g>
<g id="A" display="none">
	<g>
		<rect display="inline" fill="none" width="256" height="256"/>
		<path display="inline" fill="#938970" d="M176.252,182.725H79.748L58.074,243H26.75l87.961-230.344h26.578L229.408,243h-31.166
			L176.252,182.725z M88.924,157.887h78.311L128,50.15L88.924,157.887z"/>
	</g>
	<path display="inline" fill="#E6DD91" d="M114.711,12.656 M141.289,12.656L229.408,243h-31.166l-21.99-60.275H79.748L58.074,243
		H26.75 M88.924,157.887h78.311L128,50.15L88.924,157.887z M26.75,243l87.961-230.344h26.578 M200.285,70.072L8,175.943
		l10.688,19.414L210.973,89.486L200.285,70.072z M222.32,89.446L53.109,182.613l10.68,17.084L233,106.529L222.32,89.446z
		 M231.766,16.76L62.555,109.926l9.405,17.084l169.21-93.167L231.766,16.76z M242.875,141.789L73.664,234.955l9.405,17.084
		l169.21-93.166L242.875,141.789z M172.211,46.303L3,139.469l9.406,17.084l169.209-93.167L172.211,46.303z M236.762,38.32
		L67.55,131.487l9.405,17.085l169.211-93.168L236.762,38.32z M187.766,7.96L18.555,101.126l9.405,17.084l169.21-93.167L187.766,7.96
		z M218.875,122.989L49.664,216.155l9.405,17.085l169.21-93.168L218.875,122.989z"/>
</g>
<g id="B" display="none">
	<g id="B_1_">
		<rect display="inline" fill="none" width="256" height="256"/>
		<path display="inline" fill="#938970" d="M53.882,243V12.656h75.305c24.996,0,43.795,5.169,56.399,15.504
			c12.602,10.337,18.905,25.629,18.905,45.879c0,10.758-3.061,20.277-9.176,28.556c-6.118,8.281-14.451,14.688-24.996,19.222
			c12.443,3.48,22.279,10.101,29.505,19.854c7.223,9.757,10.837,21.385,10.837,34.884c0,20.673-6.699,36.916-20.092,48.727
			C177.174,237.095,158.241,243,133.774,243H53.882z M84.257,110.9h45.879c13.289,0,23.913-3.327,31.878-9.986
			c7.962-6.66,11.944-15.697,11.944-27.112c0-12.684-3.693-21.906-11.074-27.666c-7.384-5.759-18.616-8.642-33.697-8.642h-44.93
			V110.9z M84.257,135.264v82.898h50.15c14.132,0,25.285-3.663,33.46-10.995c8.172-7.329,12.261-17.427,12.261-30.296
			c0-27.737-15.084-41.607-45.246-41.607H84.257z"/>
	</g>
	<path fill="#CBC086" d="M53.882,243V12.656h75.305c24.996,0,43.795,5.169,56.399,15.504c12.602,10.337,18.905,25.629,18.905,45.879
		c0,10.758-3.061,20.277-9.176,28.556c-6.118,8.281-14.451,14.688-24.996,19.222c12.443,3.48,22.279,10.101,29.505,19.854
		c7.223,9.757,10.837,21.385,10.837,34.884c0,20.673-6.699,36.916-20.092,48.727C177.174,237.095,158.241,243,133.774,243H53.882z
		 M84.257,110.9h45.879c13.289,0,23.913-3.327,31.878-9.986c7.962-6.66,11.944-15.697,11.944-27.112
		c0-12.684-3.693-21.906-11.074-27.666c-7.384-5.759-18.616-8.642-33.697-8.642h-44.93V110.9z M84.257,135.264v82.898h50.15
		c14.132,0,25.285-3.663,33.46-10.995c8.172-7.329,12.261-17.427,12.261-30.296c0-27.737-15.084-41.607-45.246-41.607H84.257z
		 M44.167,63.999c-15.188,0-27.5,12.312-27.5,27.5s12.312,27.5,27.5,27.5s27.5-12.312,27.5-27.5S59.355,63.999,44.167,63.999z
		 M96.41,59.499c-10.493,0-19,8.507-19,19s8.507,19,19,19s19-8.507,19-19S106.903,59.499,96.41,59.499z M59.445,26.513
		c-9.657,0-17.486,7.829-17.486,17.486c0,9.657,7.829,17.486,17.486,17.486c9.657,0,17.486-7.829,17.486-17.486
		C76.931,34.342,69.102,26.513,59.445,26.513z M164.717,4.666c-15.479,0-28.027,12.549-28.027,28.028s12.549,28.028,28.027,28.028
		c15.48,0,28.029-12.549,28.029-28.028S180.197,4.666,164.717,4.666z M178.668,63.999c-10.494,0-19,8.507-19,19s8.506,19,19,19
		c10.492,0,19-8.507,19-19S189.16,63.999,178.668,63.999z M191.039,121.499c-9.609,0-17.4,7.79-17.4,17.4
		c0,9.609,7.791,17.399,17.4,17.399s17.4-7.79,17.4-17.399C208.439,129.289,200.648,121.499,191.039,121.499z M136.689,91.499
		c-7.469,0-13.522,6.054-13.522,13.521s6.054,13.521,13.522,13.521c7.467,0,13.521-6.054,13.521-13.521
		S144.156,91.499,136.689,91.499z M142.418,63.999c-6.215,0-11.251,5.037-11.251,11.25s5.036,11.25,11.251,11.25
		c6.213,0,11.25-5.037,11.25-11.25S148.631,63.999,142.418,63.999z M66.917,125.499c-9.803,0-17.75,7.947-17.75,17.75
		s7.947,17.75,17.75,17.75s17.75-7.947,17.75-17.75S76.72,125.499,66.917,125.499z M81.833,180.834c-19.606,0-35.5,15.894-35.5,35.5
		s15.894,35.5,35.5,35.5s35.5-15.894,35.5-35.5S101.439,180.834,81.833,180.834z M166.707,156.299
		c-16.578,0-30.018,13.439-30.018,30.018s13.439,30.018,30.018,30.018s30.018-13.439,30.018-30.018S183.285,156.299,166.707,156.299
		z M220.918,164.999c-8.146,0-14.75,6.604-14.75,14.75s6.604,14.75,14.75,14.75s14.75-6.604,14.75-14.75
		S229.064,164.999,220.918,164.999z M223.168,43.999c-10.77,0-19.5,8.73-19.5,19.5s8.73,19.5,19.5,19.5s19.5-8.73,19.5-19.5
		S233.938,43.999,223.168,43.999z M196.789,43.999c-3.176,0-5.75,2.574-5.75,5.75s2.574,5.75,5.75,5.75s5.75-2.574,5.75-5.75
		S199.965,43.999,196.789,43.999z M115.41,26.971c-4.702,0-8.514,3.812-8.514,8.514s3.812,8.514,8.514,8.514
		c4.702,0,8.514-3.812,8.514-8.514S120.112,26.971,115.41,26.971z M119.917,136.999c-6.213,0-11.25,5.037-11.25,11.25
		s5.037,11.25,11.25,11.25s11.25-5.037,11.25-11.25S126.13,136.999,119.917,136.999z M88.419,6.666
		c-6.346,0-11.488,5.144-11.488,11.489s5.143,11.489,11.488,11.489S99.91,24.5,99.91,18.155S94.765,6.666,88.419,6.666z
		 M112.659,163.787c-6.234,0-11.287,5.054-11.287,11.286c0,6.234,5.053,11.287,11.287,11.287c6.233,0,11.287-5.053,11.287-11.287
		C123.945,168.841,118.892,163.787,112.659,163.787z M94.417,109.499c-5.385,0-9.75,4.365-9.75,9.75s4.365,9.75,9.75,9.75
		s9.75-4.365,9.75-9.75S99.802,109.499,94.417,109.499z M96.91,160.999c-2.627,0-4.757,2.13-4.757,4.757s2.129,4.757,4.757,4.757
		c2.627,0,4.757-2.13,4.757-4.757S99.537,160.999,96.91,160.999z"/>
</g>
<g id="C" display="none">
	<g id="C_1_">
		<rect display="inline" fill="none" width="256" height="256"/>
		<path display="inline" fill="#938970" d="M218.729,169.91c-2.848,24.363-11.841,43.165-26.974,56.399
			c-15.136,13.237-35.255,19.854-60.354,19.854c-27.211,0-49.018-9.754-65.417-29.268c-16.401-19.511-24.601-45.614-24.601-78.311
			v-22.148c0-21.409,3.822-40.235,11.47-56.479c7.646-16.241,18.482-28.714,32.511-37.415c14.026-8.701,30.269-13.052,48.727-13.052
			c24.467,0,44.084,6.83,58.852,20.487c14.765,13.66,23.359,32.565,25.787,56.716h-30.533c-2.638-18.406-8.36-31.737-17.165-39.988
			c-8.808-8.251-21.12-12.377-36.94-12.377c-19.407,0-34.622,7.179-45.642,21.535c-11.022,14.357-16.532,34.78-16.532,61.274v22.326
			c0,25.019,5.221,44.917,15.662,59.694s25.048,22.166,43.822,22.166c16.873,0,29.821-3.821,38.839-11.47
			c9.018-7.646,15.002-20.962,17.956-39.946H218.729z"/>
	</g>
	<path display="inline" fill="#CBC086" d="M218.729,169.91c-2.848,24.363-11.841,43.165-26.974,56.399
		c-15.136,13.237-35.255,19.854-60.354,19.854c-27.211,0-49.018-9.754-65.417-29.268c-16.401-19.511-24.601-45.614-24.601-78.311
		v-22.148c0-21.409,3.822-40.235,11.47-56.479c7.646-16.241,18.482-28.714,32.511-37.415c14.026-8.701,30.269-13.052,48.727-13.052
		c24.467,0,44.084,6.83,58.852,20.487c14.765,13.66,23.359,32.565,25.787,56.716h-30.533c-2.638-18.406-8.36-31.737-17.165-39.988
		c-8.808-8.251-21.12-12.377-36.94-12.377c-19.407,0-34.622,7.179-45.642,21.535c-11.022,14.357-16.532,34.78-16.532,61.274v22.326
		c0,25.019,5.221,44.917,15.662,59.694s25.048,22.166,43.822,22.166c16.873,0,29.821-3.821,38.839-11.47
		c9.018-7.646,15.002-20.962,17.956-39.946H218.729z M46.342,64.931l7.729-12.997l-15.018,1.771l-9.972-11.367l-2.957,14.83
		l-13.893,5.972l13.19,7.395l1.386,15.058l11.109-10.26l14.75,3.335L46.342,64.931z M48.531,131.479l6.541-19.638l-19.566,6.753
		l-16.656-12.29L19.228,127L2.393,139.043l19.799,6.037l6.251,19.731l11.86-16.964L61,148L48.531,131.479z M84.347,50.375
		l8.951-16.907l-18.864,3.18L61.12,22.91l-2.806,18.924L41.135,50.25l17.131,8.516l2.696,18.939l13.393-13.661l18.846,3.288
		L84.347,50.375z M121.163,38.723l11.526-3.688l-9.938-6.905l0.054-12.101l-9.638,7.317l-11.492-3.791l3.981,11.428l-7.157,9.758
		l12.099-0.255l7.069,9.822L121.163,38.723z M143.963,50.615l3.092-5.006l-5.854,0.59l-3.806-4.488l-1.247,5.75l-5.444,2.232
		l5.083,2.963l0.44,5.868l4.389-3.918L146.333,56L143.963,50.615z M76.078,101.035l6.104-13.413l-14.359,3.314l-10.87-9.95
		l-1.285,14.68l-12.822,7.264l13.564,5.759l2.946,14.438l9.668-11.121l14.643,1.66L76.078,101.035z M55.364,183.892l3.18-19.678
		l-17.554,9.445l-17.732-9.105l3.559,19.613l-14.139,14.051l19.753,2.676l8.994,17.789l8.649-17.959l19.698-3.057L55.364,183.892z
		 M197.11,164.596l17.459-21.997l-28.08-0.478l-15.525-23.402l-9.131,26.558l-27.055,7.534l22.437,16.891l-1.195,28.059
		l22.998-16.118l26.315,9.807L197.11,164.596z M89.74,173.278l-19.585,2.846l14.172,13.814l-3.346,19.506l17.518-9.21l17.518,9.21
		l-3.346-19.506l14.172-13.814l-19.585-2.846l-8.759-17.747L89.74,173.278z M200.257,37.429l-16.835-5.156l8.773,15.266
		l-14.528,9.948l17.405,2.659l-1.28,17.56l12.931-11.95l12.931,11.95l-1.28-17.56l17.405-2.659l-14.528-9.948l8.773-15.266
		l-16.835,5.156l-6.466-16.377L200.257,37.429z"/>
</g>
<g id="D" display="none">
	<g id="D_1_">
		<rect display="inline" fill="none" width="256" height="256"/>
		<path display="inline" fill="#938970" d="M48.503,243V12.656h65.021c20.037,0,37.756,4.43,53.156,13.289
			c15.397,8.859,27.29,21.464,35.675,37.811c8.385,16.349,12.629,35.121,12.735,56.32v14.713c0,21.729-4.192,40.765-12.577,57.111
			c-8.385,16.35-20.356,28.899-35.912,37.652c-15.559,8.756-33.673,13.237-54.343,13.447H48.503z M78.878,37.494v180.668h31.957
			c23.414,0,41.632-7.282,54.659-21.85c13.024-14.566,19.538-35.312,19.538-62.23v-13.459c0-26.178-6.146-46.524-18.431-61.04
			c-12.288-14.515-29.718-21.876-52.286-22.089H78.878z"/>
	</g>
	<path display="inline" fill="#F0CB3C" d="M48.503,243V12.656h65.021c20.037,0,37.756,4.43,53.156,13.289
		c15.397,8.859,27.29,21.464,35.675,37.811c8.385,16.349,12.629,35.121,12.735,56.32v14.713c0,21.729-4.192,40.765-12.577,57.111
		c-8.385,16.35-20.356,28.899-35.912,37.652c-15.559,8.756-33.673,13.237-54.343,13.447H48.503z M78.878,37.494v180.668h31.957
		c23.414,0,41.632-7.282,54.659-21.85c13.024-14.566,19.538-35.312,19.538-62.23v-13.459c0-26.178-6.146-46.524-18.431-61.04
		c-12.288-14.515-29.718-21.876-52.286-22.089H78.878z M221.667,210.334L193.333,214L232,190.334l-52.667,9.332l57.667-50
		L140.797,202l93.536-86L43,242.334L224.091,90.667L48,218.666L218,70.333L45.667,188L206.333,54.667L50.667,162.334l140.667-124
		L39.667,131.667L161,32.333l-115.333,75l85-80.667L47.667,83L109,28.667l-61,36l39.333-41l-50,41"/>
</g>
<g id="E" display="none">
	<g id="E_1_">
		<rect display="inline" fill="none" width="256" height="256"/>
		<path display="inline" fill="#938970" d="M192.863,136.529H93.037v81.633H209V243H62.662V12.656h144.756v24.838H93.037v74.197
			h99.826V136.529z"/>
	</g>
	<path display="inline" fill="#993300" d="M192.863,136.529H93.037v81.633H209V243H62.662V12.656h144.756v24.838H93.037v74.197
		h99.826V136.529z M111.333,35c0-3.313-2.687-6-6-6H88.667c-3.313,0-6,2.687-6,6v16.667c0,3.313,2.687,6,6,6h16.667
		c3.313,0,6-2.687,6-6V35z M131.333,99c0-2.025-1.642-3.667-3.667-3.667H84c-2.025,0-3.667,1.642-3.667,3.667l0,0
		c0,2.025,1.642,3.667,3.667,3.667h43.667C129.691,102.667,131.333,101.025,131.333,99L131.333,99z M128,113.5
		c0-2.301-1.865-4.167-4.167-4.167h-30c-2.301,0-4.167,1.865-4.167,4.167l0,0c0,2.301,1.865,4.167,4.167,4.167h30
		C126.135,117.667,128,115.801,128,113.5L128,113.5z M202,112.333c0-3.313-2.687-6-6-6h-8c-3.313,0-6,2.687-6,6V137
		c0,3.313,2.687,6,6,6h8c3.313,0,6-2.687,6-6V112.333z M224.333,35c0-3.313-2.687-6-6-6H194c-3.313,0-6,2.687-6,6v2.333
		c0,3.314,2.687,6,6,6h24.333c3.313,0,6-2.686,6-6V35z M229.333,237.667c0-3.313-2.687-6-6-6H194c-3.313,0-6,2.687-6,6V242
		c0,3.313,2.687,6,6,6h29.333c3.313,0,6-2.687,6-6V237.667z M28.333,184.333c0,3.313,2.687,6,6,6h71c3.313,0,6-2.687,6-6v-12
		c0-3.313-2.687-6-6-6h-71c-3.313,0-6,2.687-6,6V184.333z M73,130.667c0-3.314-2.687-6-6-6h-6.333c-3.313,0-6,2.686-6,6v20
		c0,3.313,2.687,6,6,6H67c3.313,0,6-2.687,6-6V130.667z M108.833,215.667c0-3.313-2.686-6-6-6H88.667c-3.313,0-6,2.687-6,6v4
		c0,3.313,2.687,6,6,6h14.167c3.314,0,6-2.687,6-6V215.667z M133.667,136c0-3.313-2.687-6-6-6h-39c-3.313,0-6,2.687-6,6v5.667
		c0,3.313,2.687,6,6,6h39c3.313,0,6-2.687,6-6V136z M192,214c0-3.313-2.687-6-6-6h-27.333c-3.313,0-6,2.687-6,6v2.333
		c0,3.313,2.687,6,6,6H186c3.313,0,6-2.687,6-6V214z M138.333,199.333c0-3.313-2.687-6-6-6h-0.999c-3.314,0-6,2.687-6,6V242
		c0,3.313,2.687,6,6,6h0.999c3.313,0,6-2.687,6-6V199.333z M108.833,71.5c0-3.038-2.462-5.5-5.5-5.5H38.5
		c-3.038,0-5.5,2.462-5.5,5.5l0,0c0,3.038,2.462,5.5,5.5,5.5h64.833C106.371,77,108.833,74.538,108.833,71.5L108.833,71.5z M77,24
		c0-3.313-2.687-6-6-6H17.667c-3.313,0-6,2.687-6,6v0.333c0,3.313,2.687,6,6,6H71c3.313,0,6-2.687,6-6V24z M170.667,33.333
		c0-3.313-2.687-6-6-6h-1.334c-3.313,0-6,2.687-6,6V40c0,3.313,2.687,6,6,6h1.334c3.313,0,6-2.687,6-6V33.333z"/>
</g>
<g id="F" display="none">
	<g id="F_1_">
		<rect display="inline" fill="none" width="256" height="256"/>
		<path display="inline" fill="#938970" d="M192.23,141.275H95.568V243H65.193V12.656h142.699v24.838H95.568v78.943h96.662V141.275z
			"/>
	</g>
	<path display="inline" fill="#F4DC5E" d="M192.23,141.275H95.568V243H65.193V12.656h142.699v24.838H95.568v78.943h96.662V141.275z
		 M51,40c-14.912,0-27,18.356-27,41s12.088,41,27,41s27-18.356,27-41S65.912,40,51,40z M108.5,32C97.73,32,89,36.701,89,42.5
		S97.73,53,108.5,53S128,48.299,128,42.5S119.27,32,108.5,32z M122.5,103c-3.038,0-5.5,12.536-5.5,28s2.462,28,5.5,28
		s5.5-12.536,5.5-28S125.538,103,122.5,103z M62,153c-6.075,0-11,3.806-11,8.5s4.925,8.5,11,8.5s11-3.806,11-8.5S68.075,153,62,153z
		 M96.5,161.5c-4.142,0-7.5,15.559-7.5,34.75S92.358,231,96.5,231s7.5-15.559,7.5-34.75S100.642,161.5,96.5,161.5z M178,27
		c-4.418,0-8,8.059-8,18s3.582,18,8,18s8-8.059,8-18S182.418,27,178,27z M192,103c-3.313,0-6,6.268-6,14s2.687,14,6,14s6-6.268,6-14
		S195.313,103,192,103z M162,131c-8.837,0-16,4.925-16,11s7.163,11,16,11s16-4.925,16-11S170.837,131,162,131z M68.5,9
		C62.149,9,57,11.687,57,15s5.149,6,11.5,6S80,18.313,80,15S74.851,9,68.5,9z M150,9c-16.937,0-30.667,2.239-30.667,5
		s13.73,5,30.667,5c16.938,0,30.667-2.239,30.667-5S166.938,9,150,9z M96.5,72.333c-2.669,0-4.833,3.731-4.833,8.333
		c0,4.602,2.164,8.333,4.833,8.333c2.669,0,4.833-3.731,4.833-8.333C101.333,76.064,99.169,72.333,96.5,72.333z M62.833,235.333
		c-5.615,0-10.167,2.761-10.167,6.167s4.552,6.167,10.167,6.167S73,244.906,73,241.5S68.448,235.333,62.833,235.333z M111.667,95
		c-2.946,0-5.333,2.388-5.333,5.333c0,2.946,2.388,5.333,5.333,5.333c2.945,0,5.333-2.388,5.333-5.333
		C117,97.388,114.612,95,111.667,95z M51.833,131c-3.038,0-5.5,2.463-5.5,5.5s2.462,5.5,5.5,5.5s5.5-2.463,5.5-5.5
		S54.871,131,51.833,131z M138.334,108.333c-2.025,0-3.667,1.642-3.667,3.667s1.642,3.667,3.667,3.667
		c2.024,0,3.666-1.642,3.666-3.667S140.358,108.333,138.334,108.333z M149.834,32c-4.327,0-7.834,2.351-7.834,5.25
		s3.507,5.25,7.834,5.25c4.326,0,7.833-2.351,7.833-5.25S154.16,32,149.834,32z M207.667,9c-2.393,0-4.333,2.687-4.333,6
		s1.94,6,4.333,6S212,18.313,212,15S210.06,9,207.667,9z M208.5,32c-2.853,0-5.166,2.351-5.166,5.25s2.313,5.25,5.166,5.25
		c2.854,0,5.167-2.351,5.167-5.25S211.354,32,208.5,32z M192,138.333c-3.313,0-6,2.836-6,6.333c0,3.498,2.687,6.334,6,6.334
		s6-2.836,6-6.334C198,141.169,195.313,138.333,192,138.333z"/>
</g>
<g id="G" display="none">
	<g>
		<rect display="inline" fill="none" width="256" height="256"/>
		<path display="inline" fill="#938970" d="M214.458,212.783c-7.807,11.181-18.695,19.538-32.669,25.075
			c-13.977,5.537-30.244,8.306-48.806,8.306c-18.774,0-35.438-4.402-49.992-13.21c-14.555-8.805-25.814-21.33-33.776-37.573
			c-7.964-16.24-12.051-35.066-12.261-56.479v-20.092c0-34.698,8.093-61.593,24.284-80.684
			c16.188-19.088,38.943-28.635,68.265-28.635c24.047,0,43.399,6.145,58.061,18.431c14.658,12.288,23.624,29.717,26.895,52.286
			h-30.375c-5.695-30.585-23.837-45.879-54.422-45.879c-20.356,0-35.781,7.154-46.274,21.456
			c-10.496,14.303-15.795,35.02-15.899,62.147v18.841c0,25.861,5.905,46.42,17.719,61.672c11.811,15.254,27.79,22.88,47.936,22.88
			c11.391,0,21.357-1.261,29.9-3.787s15.607-6.788,21.199-12.785v-51.613h-53.314v-24.838h83.531V212.783z"/>
	</g>
	<path display="inline" fill="#B0A47B" d="M214.458,212.783c-7.807,11.181-18.695,19.538-32.669,25.075
		c-13.977,5.537-30.244,8.306-48.806,8.306c-18.774,0-35.438-4.402-49.992-13.21c-14.555-8.805-25.814-21.33-33.776-37.573
		c-7.964-16.24-12.051-35.066-12.261-56.479v-20.092c0-34.698,8.093-61.593,24.284-80.684
		c16.188-19.088,38.943-28.635,68.265-28.635c24.047,0,43.399,6.145,58.061,18.431c14.658,12.288,23.624,29.717,26.895,52.286
		h-30.375c-5.695-30.585-23.837-45.879-54.422-45.879c-20.356,0-35.781,7.154-46.274,21.456
		c-10.496,14.303-15.795,35.02-15.899,62.147v18.841c0,25.861,5.905,46.42,17.719,61.672c11.811,15.254,27.79,22.88,47.936,22.88
		c11.391,0,21.357-1.261,29.9-3.787s15.607-6.788,21.199-12.785v-51.613h-53.314v-24.838h83.531V212.783z M150.131,12.493
		c-2.503,5.205,78.811,44.353,64.608,49.349S105.634,3.091,90.74,1.096C75.847-0.899,182.379,95.98,204.761,98.925
		C256,105.667,22.667-23.333,53.932,6.814C61.046,13.674,175,122.667,226.004,153.782C240.054,162.354,6.653,30.138,19,37.667
		C73.667,71,121.645,118.353,121.645,118.353 M121.646,214.142c0,0-101.187-80.492-93.662-68.142
		C77.333,227,283,239.667,226.004,249.571C209.788,252.39,63.023,106.48,53.933,102.604c-104.6-44.604,139.84,77.812,154.4,95.063
		C248,244.667,54.292,61.508,90.741,96.885c10.782,10.465,109.796,65.741,123.999,60.746c26.818-9.434-80.791-15.698-64.609-49.349"
		/>
</g>
<g id="Z_1_" display="none">
	<g>
		<rect display="inline" fill="none" width="256" height="256"/>
		<path display="inline" fill="#938970" d="M80.539,218.162h131.783V243H44.627v-22.781L170.873,37.494H46.684V12.656H207.26v22.166
			L80.539,218.162z"/>
	</g>
	<g display="inline">
		<path fill="#938970" d="M80.539,218.162h131.783V243H44.627v-22.781L170.873,37.494H46.684V12.656H207.26v22.166L80.539,218.162z"
			/>
	</g>
</g>
<g id="H">
	<g id="H_1_" display="none">
		<rect display="inline" fill="none" width="256" height="256"/>
		<path display="inline" fill="#993300" d="M216.277,243h-30.533V136.529H69.623V243H39.248V12.656h30.375v99.035h116.121V12.656
			h30.533V243z"/>
	</g>
	<path fill="#993300" d="M216.277,243h-30.533V136.529H69.623V243H39.248V12.656h30.375v99.035h116.121V12.656h30.533V243z
		 M54.833,22.333c-3.038,0-5.5,2.462-5.5,5.5s2.462,5.5,5.5,5.5s5.5-2.462,5.5-5.5S57.871,22.333,54.833,22.333z M53,52
		c-3.682,0-6.667,2.985-6.667,6.667c0,3.682,2.985,6.667,6.667,6.667c3.682,0,6.667-2.985,6.667-6.667
		C59.667,54.985,56.682,52,53,52z M44.667,85.5c0,3.59,2.91,6.5,6.5,6.5s6.5-2.91,6.5-6.5s-2.91-6.5-6.5-6.5
		S44.667,81.91,44.667,85.5z M58,108c-5.523,0-10,4.477-10,10s4.477,10,10,10s10-4.477,10-10S63.523,108,58,108z M112.167,121.667
		c-1.749,0-3.167,1.418-3.167,3.167c0,1.749,1.418,3.167,3.167,3.167c1.749,0,3.167-1.418,3.167-3.167
		C115.333,123.084,113.916,121.667,112.167,121.667z M158.08,116.333c-3.174,0-5.747,2.573-5.747,5.748
		c0,3.174,2.573,5.747,5.747,5.747c3.175,0,5.748-2.573,5.748-5.747C163.828,118.907,161.255,116.333,158.08,116.333z M183,118
		c-4.603,0-8.333,3.731-8.333,8.333c0,4.603,3.73,8.333,8.333,8.333s8.333-3.73,8.333-8.333C191.333,121.731,187.603,118,183,118z
		 M201.5,17c-4.511,0-8.167,3.656-8.167,8.167c0,4.51,3.656,8.167,8.167,8.167c4.51,0,8.166-3.656,8.166-8.167
		C209.666,20.656,206.01,17,201.5,17z M199,43.333c-4.234,0-7.667,3.433-7.667,7.667c0,4.234,3.433,7.667,7.667,7.667
		c4.233,0,7.666-3.433,7.666-7.667C206.666,46.766,203.233,43.333,199,43.333z M213.666,79c-6.72,0-12.166,5.447-12.166,12.167
		c0,6.719,5.446,12.167,12.166,12.167s12.167-5.447,12.167-12.167C225.833,84.447,220.386,79,213.666,79z M212.5,120
		c-6.075,0-11,4.925-11,11s4.925,11,11,11s11-4.925,11-11S218.575,120,212.5,120z M172.666,134.666
		c-2.945,0-5.333,2.388-5.333,5.334c0,2.945,2.388,5.333,5.333,5.333c2.946,0,5.334-2.388,5.334-5.333
		C178,137.054,175.612,134.666,172.666,134.666z M153,149.333c-4.05,0-7.333,3.283-7.333,7.333s3.283,7.333,7.333,7.333
		s7.333-3.283,7.333-7.333S157.05,149.333,153,149.333z M172.666,173c-2.945,0-5.333,2.388-5.333,5.334
		c0,2.945,2.388,5.333,5.333,5.333c2.946,0,5.334-2.388,5.334-5.333C178,175.388,175.612,173,172.666,173z M180.333,219.333
		c-2.209,0-4,1.791-4,4s1.791,4,4,4s4-1.791,4-4S182.542,219.333,180.333,219.333z M103.75,92c-4.648,0-8.417,3.768-8.417,8.417
		s3.768,8.417,8.417,8.417s8.417-3.768,8.417-8.417S108.398,92,103.75,92z M75.833,87.333c-6.351,0-11.5,5.149-11.5,11.5
		s5.149,11.5,11.5,11.5s11.5-5.149,11.5-11.5S82.185,87.333,75.833,87.333z M71.667,52c-4.05,0-7.333,3.283-7.333,7.333
		c0,4.05,3.283,7.333,7.333,7.333c4.05,0,7.333-3.283,7.333-7.333C79,55.283,75.717,52,71.667,52z M86.167,42
		c-1.933,0-3.5,1.567-3.5,3.5s1.567,3.5,3.5,3.5s3.5-1.567,3.5-3.5S88.1,42,86.167,42z M70.833,229c-3.59,0-6.5,2.91-6.5,6.5
		s2.91,6.5,6.5,6.5s6.5-2.91,6.5-6.5S74.423,229,70.833,229z M37,221.333c-5.155,0-9.333,4.179-9.333,9.333
		c0,5.155,4.179,9.334,9.333,9.334s9.333-4.179,9.333-9.334C46.333,225.512,42.155,221.333,37,221.333z M30.667,210.667
		c-1.657,0-3,1.343-3,3s1.343,3,3,3s3-1.343,3-3S32.323,210.667,30.667,210.667z M82.167,144c-3.498,0-6.333,2.835-6.333,6.333
		s2.835,6.333,6.333,6.333s6.333-2.835,6.333-6.333S85.664,144,82.167,144z M110.917,131c-3.958,0-7.167,3.209-7.167,7.166
		c0,3.958,3.209,7.167,7.167,7.167c3.958,0,7.166-3.209,7.166-7.167C118.083,134.209,114.875,131,110.917,131z M37,9.411
		c-4.191,0-7.588,3.397-7.588,7.589c0,4.191,3.397,7.588,7.588,7.588c4.191,0,7.589-3.397,7.589-7.588
		C44.589,12.809,41.191,9.411,37,9.411z M39.916,138.166c-5.108,0-9.25,4.142-9.25,9.25s4.141,9.25,9.25,9.25
		c5.109,0,9.25-4.142,9.25-9.25S45.025,138.166,39.916,138.166z M68.5,178.334c-7.548,0-13.667,6.118-13.667,13.666
		s6.119,13.667,13.667,13.667c7.548,0,13.667-6.119,13.667-13.667S76.048,178.334,68.5,178.334z M177.833,98.833
		c-2.854,0-5.167,2.313-5.167,5.167s2.313,5.167,5.167,5.167S183,106.854,183,104S180.687,98.833,177.833,98.833z M185.667,80.333
		c-3.773,0-6.833,3.06-6.833,6.833c0,3.773,3.06,6.833,6.833,6.833c3.774,0,6.833-3.06,6.833-6.833
		C192.5,83.393,189.441,80.333,185.667,80.333z M200.833,154c-5.247,0-9.5,4.253-9.5,9.5s4.253,9.5,9.5,9.5s9.5-4.253,9.5-9.5
		S206.08,154,200.833,154z M220.666,183.667c-6.075,0-11,4.925-11,11s4.925,11,11,11s11-4.925,11-11
		S226.741,183.667,220.666,183.667z M52.833,166.667c-2.669,0-4.833,2.164-4.833,4.833c0,2.67,2.164,4.834,4.833,4.834
		c2.669,0,4.833-2.164,4.833-4.834C57.667,168.831,55.502,166.667,52.833,166.667z M171.166,195.333
		c-4.234,0-7.667,3.433-7.667,7.667s3.433,7.667,7.667,7.667s7.667-3.433,7.667-7.667S175.4,195.333,171.166,195.333z"/>
	<g>
	</g>
	<g>
	</g>
	<g>
	</g>
	<g>
	</g>
	<g>
	</g>
	<g>
	</g>
</g>
</svg>
