<?xml version="1.0" encoding="utf-8"?>
<!-- Generator: Adobe Illustrator 16.0.0, SVG Export Plug-In . SVG Version: 6.00 Build 0)  -->
<!DOCTYPE svg PUBLIC "-//W3C//DTD SVG 1.1 Tiny//EN" "http://www.w3.org/Graphics/SVG/1.1/DTD/svg11-tiny.dtd">
<svg version="1.1" baseProfile="tiny" xmlns="http://www.w3.org/2000/svg" xmlns:xlink="http://www.w3.org/1999/xlink" x="0px"
	 y="0px" width="256px" height="256px" viewBox="0 0 256 256" xml:space="preserve">
<g id="colors" display="none">
	<circle display="inline" fill="#DEA500" cx="221.028" cy="11.714" r="11.715"/>
	<circle display="inline" fill="#EDBA08" cx="197.771" cy="11.714" r="11.715"/>
	<circle display="inline" fill="#F0CB3C" cx="174.514" cy="11.714" r="11.714"/>
	<circle display="inline" fill="#F4DC5E" cx="151.257" cy="11.714" r="11.714"/>
	<circle display="inline" fill="#F9EC7E" cx="128" cy="11.714" r="11.715"/>
	<circle display="inline" fill="#938970" cx="11.715" cy="11.715" r="11.715"/>
	<circle display="inline" fill="#FFFC9D" cx="104.743" cy="11.715" r="11.715"/>
	<circle display="inline" fill="#E6DD91" cx="81.486" cy="11.714" r="11.715"/>
	<circle display="inline" fill="#CBC086" cx="58.229" cy="11.714" r="11.715"/>
	<circle display="inline" fill="#B0A47B" cx="34.972" cy="11.715" r="11.715"/>
	<circle display="inline" fill="#993300" cx="244.285" cy="11.714" r="11.715"/>
</g>
<g id="A" display="none">
	<g>
		<rect display="inline" fill="none" width="256" height="256"/>
		<path display="inline" fill="#938970" d="M176.252,182.725H79.748L58.074,243H26.75l87.961-230.344h26.578L229.408,243h-31.166
			L176.252,182.725z M88.924,157.887h78.311L128,50.15L88.924,157.887z"/>
	</g>
	<path display="inline" fill="#E6DD91" d="M114.711,12.656 M141.289,12.656L229.408,243h-31.166l-21.99-60.275H79.748L58.074,243
		H26.75 M88.924,157.887h78.311L128,50.15L88.924,157.887z M26.75,243l87.961-230.344h26.578 M200.285,70.072L8,175.943
		l10.688,19.414L210.973,89.486L200.285,70.072z M222.32,89.446L53.109,182.613l10.68,17.084L233,106.529L222.32,89.446z
		 M231.766,16.76L62.555,109.926l9.405,17.084l169.21-93.167L231.766,16.76z M242.875,141.789L73.664,234.955l9.405,17.084
		l169.21-93.166L242.875,141.789z M172.211,46.303L3,139.469l9.406,17.084l169.209-93.167L172.211,46.303z M236.762,38.32
		L67.55,131.487l9.405,17.085l169.211-93.168L236.762,38.32z M187.766,7.96L18.555,101.126l9.405,17.084l169.21-93.167L187.766,7.96
		z M218.875,122.989L49.664,216.155l9.405,17.085l169.21-93.168L218.875,122.989z"/>
</g>
<g id="B" display="none">
	<g id="B_1_">
		<rect display="inline" fill="none" width="256" height="256"/>
		<path display="inline" fill="#938970" d="M53.882,243V12.656h75.305c24.996,0,43.795,5.169,56.399,15.504
			c12.602,10.337,18.905,25.629,18.905,45.879c0,10.758-3.061,20.277-9.176,28.556c-6.118,8.281-14.451,14.688-24.996,19.222
			c12.443,3.48,22.279,10.101,29.505,19.854c7.223,9.757,10.837,21.385,10.837,34.884c0,20.673-6.699,36.916-20.092,48.727
			C177.174,237.095,158.241,243,133.774,243H53.882z M84.257,110.9h45.879c13.289,0,23.913-3.327,31.878-9.986
			c7.962-6.66,11.944-15.697,11.944-27.112c0-12.684-3.693-21.906-11.074-27.666c-7.384-5.759-18.616-8.642-33.697-8.642h-44.93
			V110.9z M84.257,135.264v82.898h50.15c14.132,0,25.285-3.663,33.46-10.995c8.172-7.329,12.261-17.427,12.261-30.296
			c0-27.737-15.084-41.607-45.246-41.607H84.257z"/>
	</g>
	<path fill="#CBC086" d="M53.882,243V12.656h75.305c24.996,0,43.795,5.169,56.399,15.504c12.602,10.337,18.905,25.629,18.905,45.879
		c0,10.758-3.061,20.277-9.176,28.556c-6.118,8.281-14.451,14.688-24.996,19.222c12.443,3.48,22.279,10.101,29.505,19.854
		c7.223,9.757,10.837,21.385,10.837,34.884c0,20.673-6.699,36.916-20.092,48.727C177.174,237.095,158.241,243,133.774,243H53.882z
		 M84.257,110.9h45.879c13.289,0,23.913-3.327,31.878-9.986c7.962-6.66,11.944-15.697,11.944-27.112
		c0-12.684-3.693-21.906-11.074-27.666c-7.384-5.759-18.616-8.642-33.697-8.642h-44.93V110.9z M84.257,135.264v82.898h50.15
		c14.132,0,25.285-3.663,33.46-10.995c8.172-7.329,12.261-17.427,12.261-30.296c0-27.737-15.084-41.607-45.246-41.607H84.257z
		 M44.167,63.999c-15.188,0-27.5,12.312-27.5,27.5s12.312,27.5,27.5,27.5s27.5-12.312,27.5-27.5S59.355,63.999,44.167,63.999z
		 M96.41,59.499c-10.493,0-19,8.507-19,19s8.507,19,19,19s19-8.507,19-19S106.903,59.499,96.41,59.499z M59.445,26.513
		c-9.657,0-17.486,7.829-17.486,17.486c0,9.657,7.829,17.486,17.486,17.486c9.657,0,17.486-7.829,17.486-17.486
		C76.931,34.342,69.102,26.513,59.445,26.513z M164.717,4.666c-15.479,0-28.027,12.549-28.027,28.028s12.549,28.028,28.027,28.028
		c15.48,0,28.029-12.549,28.029-28.028S180.197,4.666,164.717,4.666z M178.668,63.999c-10.494,0-19,8.507-19,19s8.506,19,19,19
		c10.492,0,19-8.507,19-19S189.16,63.999,178.668,63.999z M191.039,121.499c-9.609,0-17.4,7.79-17.4,17.4
		c0,9.609,7.791,17.399,17.4,17.399s17.4-7.79,17.4-17.399C208.439,129.289,200.648,121.499,191.039,121.499z M136.689,91.499
		c-7.469,0-13.522,6.054-13.522,13.521s6.054,13.521,13.522,13.521c7.467,0,13.521-6.054,13.521-13.521
		S144.156,91.499,136.689,91.499z M142.418,63.999c-6.215,0-11.251,5.037-11.251,11.25s5.036,11.25,11.251,11.25
		c6.213,0,11.25-5.037,11.25-11.25S148.631,63.999,142.418,63.999z M66.917,125.499c-9.803,0-17.75,7.947-17.75,17.75
		s7.947,17.75,17.75,17.75s17.75-7.947,17.75-17.75S76.72,125.499,66.917,125.499z M81.833,180.834c-19.606,0-35.5,15.894-35.5,35.5
		s15.894,35.5,35.5,35.5s35.5-15.894,35.5-35.5S101.439,180.834,81.833,180.834z M166.707,156.299
		c-16.578,0-30.018,13.439-30.018,30.018s13.439,30.018,30.018,30.018s30.018-13.439,30.018-30.018S183.285,156.299,166.707,156.299
		z M220.918,164.999c-8.146,0-14.75,6.604-14.75,14.75s6.604,14.75,14.75,14.75s14.75-6.604,14.75-14.75
		S229.064,164.999,220.918,164.999z M223.168,43.999c-10.77,0-19.5,8.73-19.5,19.5s8.73,19.5,19.5,19.5s19.5-8.73,19.5-19.5
		S233.938,43.999,223.168,43.999z M196.789,43.999c-3.176,0-5.75,2.574-5.75,5.75s2.574,5.75,5.75,5.75s5.75-2.574,5.75-5.75
		S199.965,43.999,196.789,43.999z M115.41,26.971c-4.702,0-8.514,3.812-8.514,8.514s3.812,8.514,8.514,8.514
		c4.702,0,8.514-3.812,8.514-8.514S120.112,26.971,115.41,26.971z M119.917,136.999c-6.213,0-11.25,5.037-11.25,11.25
		s5.037,11.25,11.25,11.25s11.25-5.037,11.25-11.25S126.13,136.999,119.917,136.999z M88.419,6.666
		c-6.346,0-11.488,5.144-11.488,11.489s5.143,11.489,11.488,11.489S99.91,24.5,99.91,18.155S94.765,6.666,88.419,6.666z
		 M112.659,163.787c-6.234,0-11.287,5.054-11.287,11.286c0,6.234,5.053,11.287,11.287,11.287c6.233,0,11.287-5.053,11.287-11.287
		C123.945,168.841,118.892,163.787,112.659,163.787z M94.417,109.499c-5.385,0-9.75,4.365-9.75,9.75s4.365,9.75,9.75,9.75
		s9.75-4.365,9.75-9.75S99.802,109.499,94.417,109.499z M96.91,160.999c-2.627,0-4.757,2.13-4.757,4.757s2.129,4.757,4.757,4.757
		c2.627,0,4.757-2.13,4.757-4.757S99.537,160.999,96.91,160.999z"/>
</g>
<g id="C" display="none">
	<g id="C_1_">
		<rect display="inline" fill="none" width="256" height="256"/>
		<path display="inline" fill="#938970" d="M218.729,169.91c-2.848,24.363-11.841,43.165-26.974,56.399
			c-15.136,13.237-35.255,19.854-60.354,19.854c-27.211,0-49.018-9.754-65.417-29.268c-16.401-19.511-24.601-45.614-24.601-78.311
			v-22.148c0-21.409,3.822-40.235,11.47-56.479c7.646-16.241,18.482-28.714,32.511-37.415c14.026-8.701,30.269-13.052,48.727-13.052
			c24.467,0,44.084,6.83,58.852,20.487c14.765,13.66,23.359,32.565,25.787,56.716h-30.533c-2.638-18.406-8.36-31.737-17.165-39.988
			c-8.808-8.251-21.12-12.377-36.94-12.377c-19.407,0-34.622,7.179-45.642,21.535c-11.022,14.357-16.532,34.78-16.532,61.274v22.326
			c0,25.019,5.221,44.917,15.662,59.694s25.048,22.166,43.822,22.166c16.873,0,29.821-3.821,38.839-11.47
			c9.018-7.646,15.002-20.962,17.956-39.946H218.729z"/>
	</g>
	<path display="inline" fill="#CBC086" d="M218.729,169.91c-2.848,24.363-11.841,43.165-26.974,56.399
		c-15.136,13.237-35.255,19.854-60.354,19.854c-27.211,0-49.018-9.754-65.417-29.268c-16.401-19.511-24.601-45.614-24.601-78.311
		v-22.148c0-21.409,3.822-40.235,11.47-56.479c7.646-16.241,18.482-28.714,32.511-37.415c14.026-8.701,30.269-13.052,48.727-13.052
		c24.467,0,44.084,6.83,58.852,20.487c14.765,13.66,23.359,32.565,25.787,56.716h-30.533c-2.638-18.406-8.36-31.737-17.165-39.988
		c-8.808-8.251-21.12-12.377-36.94-12.377c-19.407,0-34.622,7.179-45.642,21.535c-11.022,14.357-16.532,34.78-16.532,61.274v22.326
		c0,25.019,5.221,44.917,15.662,59.694s25.048,22.166,43.822,22.166c16.873,0,29.821-3.821,38.839-11.47
		c9.018-7.646,15.002-20.962,17.956-39.946H218.729z M46.342,64.931l7.729-12.997l-15.018,1.771l-9.972-11.367l-2.957,14.83
		l-13.893,5.972l13.19,7.395l1.386,15.058l11.109-10.26l14.75,3.335L46.342,64.931z M48.531,131.479l6.541-19.638l-19.566,6.753
		l-16.656-12.29L19.228,127L2.393,139.043l19.799,6.037l6.251,19.731l11.86-16.964L61,148L48.531,131.479z M84.347,50.375
		l8.951-16.907l-18.864,3.18L61.12,22.91l-2.806,18.924L41.135,50.25l17.131,8.516l2.696,18.939l13.393-13.661l18.846,3.288
		L84.347,50.375z M121.163,38.723l11.526-3.688l-9.938-6.905l0.054-12.101l-9.638,7.317l-11.492-3.791l3.981,11.428l-7.157,9.758
		l12.099-0.255l7.069,9.822L121.163,38.723z M143.963,50.615l3.092-5.006l-5.854,0.59l-3.806-4.488l-1.247,5.75l-5.444,2.232
		l5.083,2.963l0.44,5.868l4.389-3.918L146.333,56L143.963,50.615z M76.078,101.035l6.104-13.413l-14.359,3.314l-10.87-9.95
		l-1.285,14.68l-12.822,7.264l13.564,5.759l2.946,14.438l9.668-11.121l14.643,1.66L76.078,101.035z M55.364,183.892l3.18-19.678
		l-17.554,9.445l-17.732-9.105l3.559,19.613l-14.139,14.051l19.753,2.676l8.994,17.789l8.649-17.959l19.698-3.057L55.364,183.892z
		 M197.11,164.596l17.459-21.997l-28.08-0.478l-15.525-23.402l-9.131,26.558l-27.055,7.534l22.437,16.891l-1.195,28.059
		l22.998-16.118l26.315,9.807L197.11,164.596z M89.74,173.278l-19.585,2.846l14.172,13.814l-3.346,19.506l17.518-9.21l17.518,9.21
		l-3.346-19.506l14.172-13.814l-19.585-2.846l-8.759-17.747L89.74,173.278z M200.257,37.429l-16.835-5.156l8.773,15.266
		l-14.528,9.948l17.405,2.659l-1.28,17.56l12.931-11.95l12.931,11.95l-1.28-17.56l17.405-2.659l-14.528-9.948l8.773-15.266
		l-16.835,5.156l-6.466-16.377L200.257,37.429z"/>
</g>
<g id="D" display="none">
	<g id="D_1_">
		<rect display="inline" fill="none" width="256" height="256"/>
		<path display="inline" fill="#938970" d="M48.503,243V12.656h65.021c20.037,0,37.756,4.43,53.156,13.289
			c15.397,8.859,27.29,21.464,35.675,37.811c8.385,16.349,12.629,35.121,12.735,56.32v14.713c0,21.729-4.192,40.765-12.577,57.111
			c-8.385,16.35-20.356,28.899-35.912,37.652c-15.559,8.756-33.673,13.237-54.343,13.447H48.503z M78.878,37.494v180.668h31.957
			c23.414,0,41.632-7.282,54.659-21.85c13.024-14.566,19.538-35.312,19.538-62.23v-13.459c0-26.178-6.146-46.524-18.431-61.04
			c-12.288-14.515-29.718-21.876-52.286-22.089H78.878z"/>
	</g>
	<path display="inline" fill="#F0CB3C" d="M48.503,243V12.656h65.021c20.037,0,37.756,4.43,53.156,13.289
		c15.397,8.859,27.29,21.464,35.675,37.811c8.385,16.349,12.629,35.121,12.735,56.32v14.713c0,21.729-4.192,40.765-12.577,57.111
		c-8.385,16.35-20.356,28.899-35.912,37.652c-15.559,8.756-33.673,13.237-54.343,13.447H48.503z M78.878,37.494v180.668h31.957
		c23.414,0,41.632-7.282,54.659-21.85c13.024-14.566,19.538-35.312,19.538-62.23v-13.459c0-26.178-6.146-46.524-18.431-61.04
		c-12.288-14.515-29.718-21.876-52.286-22.089H78.878z M221.667,210.334L193.333,214L232,190.334l-52.667,9.332l57.667-50
		L140.797,202l93.536-86L43,242.334L224.091,90.667L48,218.666L218,70.333L45.667,188L206.333,54.667L50.667,162.334l140.667-124
		L39.667,131.667L161,32.333l-115.333,75l85-80.667L47.667,83L109,28.667l-61,36l39.333-41l-50,41"/>
</g>
<g id="E" display="none">
	<g id="E_1_">
		<rect display="inline" fill="none" width="256" height="256"/>
		<path display="inline" fill="#938970" d="M192.863,136.529H93.037v81.633H209V243H62.662V12.656h144.756v24.838H93.037v74.197
			h99.826V136.529z"/>
	</g>
	<path display="inline" fill="#993300" d="M192.863,136.529H93.037v81.633H209V243H62.662V12.656h144.756v24.838H93.037v74.197
		h99.826V136.529z M111.333,35c0-3.313-2.687-6-6-6H88.667c-3.313,0-6,2.687-6,6v16.667c0,3.313,2.687,6,6,6h16.667
		c3.313,0,6-2.687,6-6V35z M131.333,99c0-2.025-1.642-3.667-3.667-3.667H84c-2.025,0-3.667,1.642-3.667,3.667l0,0
		c0,2.025,1.642,3.667,3.667,3.667h43.667C129.691,102.667,131.333,101.025,131.333,99L131.333,99z M128,113.5
		c0-2.301-1.865-4.167-4.167-4.167h-30c-2.301,0-4.167,1.865-4.167,4.167l0,0c0,2.301,1.865,4.167,4.167,4.167h30
		C126.135,117.667,128,115.801,128,113.5L128,113.5z M202,112.333c0-3.313-2.687-6-6-6h-8c-3.313,0-6,2.687-6,6V137
		c0,3.313,2.687,6,6,6h8c3.313,0,6-2.687,6-6V112.333z M224.333,35c0-3.313-2.687-6-6-6H194c-3.313,0-6,2.687-6,6v2.333
		c0,3.314,2.687,6,6,6h24.333c3.313,0,6-2.686,6-6V35z M229.333,237.667c0-3.313-2.687-6-6-6H194c-3.313,0-6,2.687-6,6V242
		c0,3.313,2.687,6,6,6h29.333c3.313,0,6-2.687,6-6V237.667z M28.333,184.333c0,3.313,2.687,6,6,6h71c3.313,0,6-2.687,6-6v-12
		c0-3.313-2.687-6-6-6h-71c-3.313,0-6,2.687-6,6V184.333z M73,130.667c0-3.314-2.687-6-6-6h-6.333c-3.313,0-6,2.686-6,6v20
		c0,3.313,2.687,6,6,6H67c3.313,0,6-2.687,6-6V130.667z M108.833,215.667c0-3.313-2.686-6-6-6H88.667c-3.313,0-6,2.687-6,6v4
		c0,3.313,2.687,6,6,6h14.167c3.314,0,6-2.687,6-6V215.667z M133.667,136c0-3.313-2.687-6-6-6h-39c-3.313,0-6,2.687-6,6v5.667
		c0,3.313,2.687,6,6,6h39c3.313,0,6-2.687,6-6V136z M192,214c0-3.313-2.687-6-6-6h-27.333c-3.313,0-6,2.687-6,6v2.333
		c0,3.313,2.687,6,6,6H186c3.313,0,6-2.687,6-6V214z M138.333,199.333c0-3.313-2.687-6-6-6h-0.999c-3.314,0-6,2.687-6,6V242
		c0,3.313,2.687,6,6,6h0.999c3.313,0,6-2.687,6-6V199.333z M108.833,71.5c0-3.038-2.462-5.5-5.5-5.5H38.5
		c-3.038,0-5.5,2.462-5.5,5.5l0,0c0,3.038,2.462,5.5,5.5,5.5h64.833C106.371,77,108.833,74.538,108.833,71.5L108.833,71.5z M77,24
		c0-3.313-2.687-6-6-6H17.667c-3.313,0-6,2.687-6,6v0.333c0,3.313,2.687,6,6,6H71c3.313,0,6-2.687,6-6V24z M170.667,33.333
		c0-3.313-2.687-6-6-6h-1.334c-3.313,0-6,2.687-6,6V40c0,3.313,2.687,6,6,6h1.334c3.313,0,6-2.687,6-6V33.333z"/>
</g>
<g id="F" display="none">
	<g id="F_1_">
		<rect display="inline" fill="none" width="256" height="256"/>
		<path display="inline" fill="#938970" d="M192.23,141.275H95.568V243H65.193V12.656h142.699v24.838H95.568v78.943h96.662V141.275z
			"/>
	</g>
	<path display="inline" fill="#F4DC5E" d="M192.23,141.275H95.568V243H65.193V12.656h142.699v24.838H95.568v78.943h96.662V141.275z
		 M51,40c-14.912,0-27,18.356-27,41s12.088,41,27,41s27-18.356,27-41S65.912,40,51,40z M108.5,32C97.73,32,89,36.701,89,42.5
		S97.73,53,108.5,53S128,48.299,128,42.5S119.27,32,108.5,32z M122.5,103c-3.038,0-5.5,12.536-5.5,28s2.462,28,5.5,28
		s5.5-12.536,5.5-28S125.538,103,122.5,103z M62,153c-6.075,0-11,3.806-11,8.5s4.925,8.5,11,8.5s11-3.806,11-8.5S68.075,153,62,153z
		 M96.5,161.5c-4.142,0-7.5,15.559-7.5,34.75S92.358,231,96.5,231s7.5-15.559,7.5-34.75S100.642,161.5,96.5,161.5z M178,27
		c-4.418,0-8,8.059-8,18s3.582,18,8,18s8-8.059,8-18S182.418,27,178,27z M192,103c-3.313,0-6,6.268-6,14s2.687,14,6,14s6-6.268,6-14
		S195.313,103,192,103z M162,131c-8.837,0-16,4.925-16,11s7.163,11,16,11s16-4.925,16-11S170.837,131,162,131z M68.5,9
		C62.149,9,57,11.687,57,15s5.149,6,11.5,6S80,18.313,80,15S74.851,9,68.5,9z M150,9c-16.937,0-30.667,2.239-30.667,5
		s13.73,5,30.667,5c16.938,0,30.667-2.239,30.667-5S166.938,9,150,9z M96.5,72.333c-2.669,0-4.833,3.731-4.833,8.333
		c0,4.602,2.164,8.333,4.833,8.333c2.669,0,4.833-3.731,4.833-8.333C101.333,76.064,99.169,72.333,96.5,72.333z M62.833,235.333
		c-5.615,0-10.167,2.761-10.167,6.167s4.552,6.167,10.167,6.167S73,244.906,73,241.5S68.448,235.333,62.833,235.333z M111.667,95
		c-2.946,0-5.333,2.388-5.333,5.333c0,2.946,2.388,5.333,5.333,5.333c2.945,0,5.333-2.388,5.333-5.333
		C117,97.388,114.612,95,111.667,95z M51.833,131c-3.038,0-5.5,2.463-5.5,5.5s2.462,5.5,5.5,5.5s5.5-2.463,5.5-5.5
		S54.871,131,51.833,131z M138.334,108.333c-2.025,0-3.667,1.642-3.667,3.667s1.642,3.667,3.667,3.667
		c2.024,0,3.666-1.642,3.666-3.667S140.358,108.333,138.334,108.333z M149.834,32c-4.327,0-7.834,2.351-7.834,5.25
		s3.507,5.25,7.834,5.25c4.326,0,7.833-2.351,7.833-5.25S154.16,32,149.834,32z M207.667,9c-2.393,0-4.333,2.687-4.333,6
		s1.94,6,4.333,6S212,18.313,212,15S210.06,9,207.667,9z M208.5,32c-2.853,0-5.166,2.351-5.166,5.25s2.313,5.25,5.166,5.25
		c2.854,0,5.167-2.351,5.167-5.25S211.354,32,208.5,32z M192,138.333c-3.313,0-6,2.836-6,6.333c0,3.498,2.687,6.334,6,6.334
		s6-2.836,6-6.334C198,141.169,195.313,138.333,192,138.333z"/>
</g>
<g id="G" display="none">
	<g>
		<rect display="inline" fill="none" width="256" height="256"/>
		<path display="inline" fill="#938970" d="M214.458,212.783c-7.807,11.181-18.695,19.538-32.669,25.075
			c-13.977,5.537-30.244,8.306-48.806,8.306c-18.774,0-35.438-4.402-49.992-13.21c-14.555-8.805-25.814-21.33-33.776-37.573
			c-7.964-16.24-12.051-35.066-12.261-56.479v-20.092c0-34.698,8.093-61.593,24.284-80.684
			c16.188-19.088,38.943-28.635,68.265-28.635c24.047,0,43.399,6.145,58.061,18.431c14.658,12.288,23.624,29.717,26.895,52.286
			h-30.375c-5.695-30.585-23.837-45.879-54.422-45.879c-20.356,0-35.781,7.154-46.274,21.456
			c-10.496,14.303-15.795,35.02-15.899,62.147v18.841c0,25.861,5.905,46.42,17.719,61.672c11.811,15.254,27.79,22.88,47.936,22.88
			c11.391,0,21.357-1.261,29.9-3.787s15.607-6.788,21.199-12.785v-51.613h-53.314v-24.838h83.531V212.783z"/>
	</g>
	<path display="inline" fill="#B0A47B" d="M214.458,212.783c-7.807,11.181-18.695,19.538-32.669,25.075
		c-13.977,5.537-30.244,8.306-48.806,8.306c-18.774,0-35.438-4.402-49.992-13.21c-14.555-8.805-25.814-21.33-33.776-37.573
		c-7.964-16.24-12.051-35.066-12.261-56.479v-20.092c0-34.698,8.093-61.593,24.284-80.684
		c16.188-19.088,38.943-28.635,68.265-28.635c24.047,0,43.399,6.145,58.061,18.431c14.658,12.288,23.624,29.717,26.895,52.286
		h-30.375c-5.695-30.585-23.837-45.879-54.422-45.879c-20.356,0-35.781,7.154-46.274,21.456
		c-10.496,14.303-15.795,35.02-15.899,62.147v18.841c0,25.861,5.905,46.42,17.719,61.672c11.811,15.254,27.79,22.88,47.936,22.88
		c11.391,0,21.357-1.261,29.9-3.787s15.607-6.788,21.199-12.785v-51.613h-53.314v-24.838h83.531V212.783z M150.131,12.493
		c-2.503,5.205,78.811,44.353,64.608,49.349S105.634,3.091,90.74,1.096C75.847-0.899,182.379,95.98,204.761,98.925
		C256,105.667,22.667-23.333,53.932,6.814C61.046,13.674,175,122.667,226.004,153.782C240.054,162.354,6.653,30.138,19,37.667
		C73.667,71,121.645,118.353,121.645,118.353 M121.646,214.142c0,0-101.187-80.492-93.662-68.142
		C77.333,227,283,239.667,226.004,249.571C209.788,252.39,63.023,106.48,53.933,102.604c-104.6-44.604,139.84,77.812,154.4,95.063
		C248,244.667,54.292,61.508,90.741,96.885c10.782,10.465,109.796,65.741,123.999,60.746c26.818-9.434-80.791-15.698-64.609-49.349"
		/>
</g>
<g id="H" display="none">
	<g id="H_1_">
		<rect display="inline" fill="none" width="256" height="256"/>
		<path display="inline" fill="#993300" d="M216.277,243h-30.533V136.529H69.623V243H39.248V12.656h30.375v99.035h116.121V12.656
			h30.533V243z"/>
	</g>
	<path display="inline" fill="#993300" d="M216.277,243h-30.533V136.529H69.623V243H39.248V12.656h30.375v99.035h116.121V12.656
		h30.533V243z M54.833,22.333c-3.038,0-5.5,2.462-5.5,5.5s2.462,5.5,5.5,5.5s5.5-2.462,5.5-5.5S57.871,22.333,54.833,22.333z M53,52
		c-3.682,0-6.667,2.985-6.667,6.667c0,3.682,2.985,6.667,6.667,6.667c3.682,0,6.667-2.985,6.667-6.667
		C59.667,54.985,56.682,52,53,52z M44.667,85.5c0,3.59,2.91,6.5,6.5,6.5s6.5-2.91,6.5-6.5s-2.91-6.5-6.5-6.5
		S44.667,81.91,44.667,85.5z M58,108c-5.523,0-10,4.477-10,10s4.477,10,10,10s10-4.477,10-10S63.523,108,58,108z M112.167,121.667
		c-1.749,0-3.167,1.418-3.167,3.167c0,1.749,1.418,3.167,3.167,3.167c1.749,0,3.167-1.418,3.167-3.167
		C115.333,123.084,113.916,121.667,112.167,121.667z M158.08,116.333c-3.174,0-5.747,2.573-5.747,5.748
		c0,3.174,2.573,5.747,5.747,5.747c3.175,0,5.748-2.573,5.748-5.747C163.828,118.907,161.255,116.333,158.08,116.333z M183,118
		c-4.603,0-8.333,3.731-8.333,8.333c0,4.603,3.73,8.333,8.333,8.333s8.333-3.73,8.333-8.333C191.333,121.731,187.603,118,183,118z
		 M201.5,17c-4.511,0-8.167,3.656-8.167,8.167c0,4.51,3.656,8.167,8.167,8.167c4.51,0,8.166-3.656,8.166-8.167
		C209.666,20.656,206.01,17,201.5,17z M199,43.333c-4.234,0-7.667,3.433-7.667,7.667c0,4.234,3.433,7.667,7.667,7.667
		c4.233,0,7.666-3.433,7.666-7.667C206.666,46.766,203.233,43.333,199,43.333z M213.666,79c-6.72,0-12.166,5.447-12.166,12.167
		c0,6.719,5.446,12.167,12.166,12.167s12.167-5.447,12.167-12.167C225.833,84.447,220.386,79,213.666,79z M212.5,120
		c-6.075,0-11,4.925-11,11s4.925,11,11,11s11-4.925,11-11S218.575,120,212.5,120z M172.666,134.666
		c-2.945,0-5.333,2.388-5.333,5.334c0,2.945,2.388,5.333,5.333,5.333c2.946,0,5.334-2.388,5.334-5.333
		C178,137.054,175.612,134.666,172.666,134.666z M153,149.333c-4.05,0-7.333,3.283-7.333,7.333s3.283,7.333,7.333,7.333
		s7.333-3.283,7.333-7.333S157.05,149.333,153,149.333z M172.666,173c-2.945,0-5.333,2.388-5.333,5.334
		c0,2.945,2.388,5.333,5.333,5.333c2.946,0,5.334-2.388,5.334-5.333C178,175.388,175.612,173,172.666,173z M180.333,219.333
		c-2.209,0-4,1.791-4,4s1.791,4,4,4s4-1.791,4-4S182.542,219.333,180.333,219.333z M103.75,92c-4.648,0-8.417,3.768-8.417,8.417
		s3.768,8.417,8.417,8.417s8.417-3.768,8.417-8.417S108.398,92,103.75,92z M75.833,87.333c-6.351,0-11.5,5.149-11.5,11.5
		s5.149,11.5,11.5,11.5s11.5-5.149,11.5-11.5S82.185,87.333,75.833,87.333z M71.667,52c-4.05,0-7.333,3.283-7.333,7.333
		c0,4.05,3.283,7.333,7.333,7.333c4.05,0,7.333-3.283,7.333-7.333C79,55.283,75.717,52,71.667,52z M86.167,42
		c-1.933,0-3.5,1.567-3.5,3.5s1.567,3.5,3.5,3.5s3.5-1.567,3.5-3.5S88.1,42,86.167,42z M70.833,229c-3.59,0-6.5,2.91-6.5,6.5
		s2.91,6.5,6.5,6.5s6.5-2.91,6.5-6.5S74.423,229,70.833,229z M37,221.333c-5.155,0-9.333,4.179-9.333,9.333
		c0,5.155,4.179,9.334,9.333,9.334s9.333-4.179,9.333-9.334C46.333,225.512,42.155,221.333,37,221.333z M30.667,210.667
		c-1.657,0-3,1.343-3,3s1.343,3,3,3s3-1.343,3-3S32.323,210.667,30.667,210.667z M82.167,144c-3.498,0-6.333,2.835-6.333,6.333
		s2.835,6.333,6.333,6.333s6.333-2.835,6.333-6.333S85.664,144,82.167,144z M110.917,131c-3.958,0-7.167,3.209-7.167,7.166
		c0,3.958,3.209,7.167,7.167,7.167c3.958,0,7.166-3.209,7.166-7.167C118.083,134.209,114.875,131,110.917,131z M37,9.411
		c-4.191,0-7.588,3.397-7.588,7.589c0,4.191,3.397,7.588,7.588,7.588c4.191,0,7.589-3.397,7.589-7.588
		C44.589,12.809,41.191,9.411,37,9.411z M39.916,138.166c-5.108,0-9.25,4.142-9.25,9.25s4.141,9.25,9.25,9.25
		c5.109,0,9.25-4.142,9.25-9.25S45.025,138.166,39.916,138.166z M68.5,178.334c-7.548,0-13.667,6.118-13.667,13.666
		s6.119,13.667,13.667,13.667c7.548,0,13.667-6.119,13.667-13.667S76.048,178.334,68.5,178.334z M177.833,98.833
		c-2.854,0-5.167,2.313-5.167,5.167s2.313,5.167,5.167,5.167S183,106.854,183,104S180.687,98.833,177.833,98.833z M185.667,80.333
		c-3.773,0-6.833,3.06-6.833,6.833c0,3.773,3.06,6.833,6.833,6.833c3.774,0,6.833-3.06,6.833-6.833
		C192.5,83.393,189.441,80.333,185.667,80.333z M200.833,154c-5.247,0-9.5,4.253-9.5,9.5s4.253,9.5,9.5,9.5s9.5-4.253,9.5-9.5
		S206.08,154,200.833,154z M220.666,183.667c-6.075,0-11,4.925-11,11s4.925,11,11,11s11-4.925,11-11
		S226.741,183.667,220.666,183.667z M52.833,166.667c-2.669,0-4.833,2.164-4.833,4.833c0,2.67,2.164,4.834,4.833,4.834
		c2.669,0,4.833-2.164,4.833-4.834C57.667,168.831,55.502,166.667,52.833,166.667z M171.166,195.333
		c-4.234,0-7.667,3.433-7.667,7.667s3.433,7.667,7.667,7.667s7.667-3.433,7.667-7.667S175.4,195.333,171.166,195.333z"/>
</g>
<g id="I" display="none">
	<g id="I_1_">
		<rect display="inline" fill="none" width="256" height="256"/>
		<path display="inline" fill="#938970" d="M143.267,243h-30.375V12.656h30.375V243z"/>
	</g>
	<path display="inline" fill="#E6DD91" d="M143.267,243h-30.375V12.656h30.375V243z M105.176,41.846
		c1.359,1.799,3.918,2.156,5.717,0.797c2.249-1.699,2.695-4.899,0.997-7.147c-2.123-2.811-6.123-3.369-8.934-1.245
		c-3.513,2.654-4.21,7.654-1.557,11.167c3.317,4.392,9.568,5.263,13.959,1.945c5.49-4.146,6.58-11.958,2.433-17.449
		c-5.184-6.862-14.949-8.224-21.812-3.04c-8.577,6.479-10.279,18.686-3.8,27.263c8.1,10.723,23.357,12.85,34.08,4.751
		c13.403-10.124,16.062-29.197,5.938-42.6 M138.639,79.782c-2.367,0.059-4.239,2.025-4.181,4.393c0.073,2.96,2.531,5.3,5.491,5.227
		c3.699-0.091,6.624-3.165,6.533-6.864c-0.114-4.624-3.956-8.28-8.58-8.166c-5.78,0.143-10.351,4.944-10.208,10.724
		c0.178,7.226,6.18,12.939,13.405,12.761c9.032-0.223,16.174-7.726,15.951-16.757c-0.279-11.29-9.657-20.217-20.947-19.938
		c-14.112,0.348-25.271,12.071-24.922,26.183c0.436,17.641,15.089,31.588,32.729,31.153 M112.319,124.134
		c-0.815,1.191-0.511,2.817,0.68,3.633c1.489,1.019,3.522,0.638,4.542-0.851c1.274-1.861,0.798-4.402-1.063-5.676
		c-2.327-1.592-5.503-0.998-7.096,1.329c-1.991,2.908-1.247,6.878,1.661,8.87c3.635,2.488,8.599,1.559,11.087-2.076
		c3.11-4.543,1.949-10.748-2.595-13.858c-5.68-3.888-13.436-2.436-17.323,3.244c-4.86,7.099-3.045,16.794,4.055,21.654
		c8.874,6.075,20.993,3.806,27.068-5.068 M119.67,163.241c-0.766,1.354-0.289,3.072,1.065,3.838c1.692,0.958,3.84,0.362,4.798-1.331
		c1.197-2.115,0.452-4.801-1.664-5.997c-2.645-1.496-6.001-0.565-7.498,2.079c-1.87,3.307-0.706,7.502,2.6,9.372
		c4.132,2.337,9.377,0.883,11.714-3.25c2.922-5.165,1.104-11.721-4.062-14.643c-6.457-3.652-14.651-1.379-18.304,5.077
		c-4.565,8.071-1.724,18.314,6.347,22.88c10.088,5.707,22.893,2.155,28.6-7.934 M125.357,222.329
		c0.766-0.676,0.84-1.844,0.165-2.609c-0.844-0.958-2.305-1.05-3.262-0.206c-1.197,1.055-1.312,2.881-0.257,4.077
		c1.318,1.496,3.6,1.64,5.096,0.321c1.87-1.648,2.05-4.501,0.401-6.37c-2.061-2.338-5.625-2.563-7.963-0.502
		c-2.922,2.575-3.202,7.032-0.627,9.954c3.22,3.652,8.791,4.003,12.443,0.783c4.565-4.024,5.004-10.987,0.979-15.553
		c-5.03-5.707-13.735-6.255-19.441-1.225"/>
</g>
<g id="J" display="none">
	<g id="J_1_">
		<rect display="inline" fill="none" width="256" height="256"/>
		<path display="inline" fill="#938970" d="M161.855,12.656h30.533v163.107c0,22.045-6.62,39.289-19.854,51.732
			c-13.237,12.446-30.877,18.668-52.919,18.668c-22.888,0-40.712-5.854-53.473-17.561C53.38,216.896,47,200.498,47,179.402h30.375
			c0,13.186,3.611,23.469,10.837,30.85c7.223,7.384,17.691,11.074,31.403,11.074c12.55,0,22.702-3.955,30.454-11.865
			s11.68-18.984,11.786-33.223V12.656z"/>
	</g>
	<path display="inline" fill="#EDBA08" d="M161.855,12.656h30.533v163.107c0,22.045-6.62,39.289-19.854,51.732
		c-13.237,12.446-30.877,18.668-52.919,18.668c-22.888,0-40.712-5.854-53.473-17.561C53.38,216.896,47,200.498,47,179.402h30.375
		c0,13.186,3.611,23.469,10.837,30.85c7.223,7.384,17.691,11.074,31.403,11.074c12.55,0,22.702-3.955,30.454-11.865
		s11.68-18.984,11.786-33.223V12.656z M166.572,51.238c-4.568-0.559-10.021,13.283-12.178,30.917
		c-2.157,17.633-0.202,32.381,4.365,32.94c4.568,0.559,10.021-13.283,12.179-30.917S171.141,51.797,166.572,51.238z
		 M184.033,104.571c-4.568-0.559-9.752,11.089-11.578,26.017s0.397,27.48,4.965,28.039c4.568,0.559,9.753-11.088,11.579-26.016
		C190.825,117.684,188.602,105.13,184.033,104.571z M195.365,16.504c-1.86-0.228-4.7,10.48-6.345,23.917
		c-1.644,13.437-1.468,24.514,0.393,24.741c1.859,0.228,4.701-10.48,6.345-23.917S197.226,16.732,195.365,16.504z M67.239,167.904
		c-4.568-0.559-10.021,13.283-12.178,30.917s-0.202,32.382,4.365,32.94c4.568,0.559,10.021-13.283,12.179-30.917
		S71.807,168.463,67.239,167.904z M189.51,162.482c-5.92-0.725-12.563,13.744-14.834,32.317c-2.272,18.573,0.686,34.217,6.605,34.94
		c5.922,0.725,12.564-13.745,14.837-32.317C198.391,178.85,195.432,163.207,189.51,162.482z M165.459,129.424
		c-3.494-0.428-7.576,9.448-9.119,22.059c-1.543,12.611,0.039,23.18,3.531,23.607c3.494,0.428,7.577-9.449,9.121-22.059
		C170.534,140.42,168.952,129.851,165.459,129.424z M151.261,198.881c-2.351-0.287-5.552,10.063-7.149,23.118
		c-1.597,13.056-0.984,23.872,1.365,24.159c2.352,0.287,5.553-10.063,7.15-23.117C154.225,209.985,153.612,199.17,151.261,198.881z
		 M95.572,192.125c-4.568-0.559-10.021,13.283-12.178,30.918c-2.157,17.634-0.202,32.382,4.365,32.94
		c4.568,0.559,10.021-13.283,12.179-30.917S100.14,192.685,95.572,192.125z"/>
</g>
<g id="K" display="none">
	<g id="K_1_">
		<rect display="inline" fill="none" width="256" height="256"/>
		<path display="inline" fill="#938970" d="M111.705,135.896l-28.16,29.268V243H53.17V12.656h30.375v113.906L185.902,12.656h36.703
			l-90.65,101.725L229.725,243h-36.387L111.705,135.896z"/>
	</g>
	<path display="inline" fill="#938970" d="M111.705,135.896l-28.16,29.268V243H53.17V12.656h30.375v113.906L185.902,12.656h36.703
		l-90.65,101.725L229.725,243h-36.387L111.705,135.896z M49.333,25.333c0,37.586,9.989,68,22.333,68 M42.667,117
		c11.976,0,21.667-25.792,21.667-57.667 M46.514,93.333c0,38.507,9.312,69.667,20.819,69.667 M23.257,218.333
		c25.71,0,46.514-37.123,46.514-83 M42.667,163c0,32.795,11.033,59.333,24.667,59.333 M60.5,128.167
		c-9.857,0-17.833,44.95-17.833,100.5 M71.667,165c0-70.382-12.971-127.333-29-127.333 M190.667,10.333
		c0,6.703,15.666,12.127,35.025,12.127 M218.333,27.667c-44.587,0-80.666,13.269-80.666,29.667 M141.447,88.167
		c28.126,0,50.886-21.246,50.886-47.5 M164.667,95.333c-41.087,0-74.333,24.152-74.333,54 M166.891,149.333
		C142.631,149.333,123,156.34,123,165 M166.891,175c-14.063,0-25.443,5.367-25.443,12 M169.667,198.667
		c-16.556,0-29.952,8.796-29.952,19.666 M190.667,214c-23.952,0-43.334,8.945-43.334,20 M78.667,187c0,24.32,6.423,44,14.362,44"/>
</g>
<g id="L" display="none">
	<g>
		<rect display="inline" fill="none" width="256" height="256"/>
		<path display="inline" fill="#938970" d="M98.1,218.162h109.16V243H67.566V12.656H98.1V218.162z"/>
	</g>
	<path display="inline" fill="#B0A47B" d="M98.1,218.162h109.16V243H67.566V12.656H98.1V218.162z M141.426,160.412l-81.318,81.316
		l3.953,8.776l94.335-91.978L141.426,160.412z M81.722,93.086l-35.779,35.78l1.739,3.86l41.507-40.469L81.722,93.086z
		 M100.996,104.352l-39.563,39.564l1.923,4.267l45.896-44.747L100.996,104.352z M105.147,14.167L39.981,79.331l3.168,7.033
		l75.597-73.707L105.147,14.167z M83.657,200.699L56.28,228.074l1.331,2.955l31.758-30.965L83.657,200.699z M170.148,209.368
		l-40.336,40.335l1.961,4.354l46.793-45.623L170.148,209.368z M113.161,41.675L72.825,82.01l1.961,4.354l46.793-45.623
		L113.161,41.675z M76.066,155.375l-40.335,40.336l1.961,4.354l46.792-45.623L76.066,155.375z M117.407,145.674L77.071,186.01
		l1.961,4.354l46.792-45.623L117.407,145.674z M225.445,209.152l-40.336,40.335l1.961,4.354l46.793-45.623L225.445,209.152z"/>
</g>
<g id="M" display="none">
	<g id="M_1_">
		<rect x="-13.833" display="inline" fill="none" width="283.667" height="256"/>
		<path display="inline" fill="#938970" d="M52.537,12.656l75.305,187.945l75.304-187.945h39.393V243h-30.375v-89.701l2.848-96.82
			L139.391,243h-23.255L40.672,56.953l3.006,96.346V243H13.303V12.656H52.537z"/>
	</g>
	<g display="inline">
		<path fill="#F4DC5E" d="M74,3.247c25.798,35.963,34.1,88.331,40.49,141.192c2.863,19.88,5.56,40.048,9.863,59.974
			c2.856-11.898,5.419-22.494,8.61-34.809c7.179-27.703,14.006-54.938,21.861-81.249c7.811-29.382,18.488-56.611,29.597-81.358
			c8.582,4.583,19.155,6.91,28.167,12.252c-2.046,5.062-3.92,10.186-4.735,15.634c-17.009,50.237-24.125,107.16-6.546,156.624
			c-3.986,9.124-8.585,19.184-14.468,27.262c-16.415-53.567-13.642-115.082-1.688-167.047
			c-7.003,14.828-12.373,30.086-17.533,48.223c-12.712,40.826-19.556,90.242-31.431,137.208c-0.882,4.65-0.693,10.698-2.807,12.423
			c-5.331,3.544-11.947,1.784-18.325,0.324c-3.458-17.377-7.898-35.725-10.059-54.646c-2.307-17.433-3.695-34.282-6.232-50.952
			c-4.161-37.12-10.86-71.33-24.629-99.447c6.889,40.794,7.471,81.552,1.445,119.695c-2.509,14.676-3.465,34.008-7.993,48.793
			c-4.637-8.203-9.717-12.661-12.907-21.802c1.38-5.052,2.621-10.162,3.157-16.196C66.926,123.829,68.687,72.013,43.41,19.199
			C52.97,12.342,64.009,6.931,74,3.247L74,3.247z"/>
	</g>
</g>
<g id="N" display="none">
	<g id="M_3_">
		<rect x="-13.833" display="inline" fill="none" width="283.667" height="256"/>
		<path display="inline" fill="#938970" d="M216.277,243h-30.533L69.781,65.496V243H39.248V12.656h30.533l116.279,178.295V12.656
			h30.217V243z"/>
	</g>
	<g display="inline">
		<path fill="#DEA500" d="M219.586,247.548c-56.766-31.371-63.825-59.706-72.589-62.581C123.423,138.343,105,110.143,67.465,63.228
			c19.113,61.101,19.113,103.486,0,182.983c19.113-35.725-2.92-30.895-31.706-15.074c28.786-61.375,28.786-90.239,0-124.607
			c28.786-16.229,28.786-37.961,0-93.823C64.545,33.342,89.025,47.567,77.15,23.21c41.884,70.369,67.609,109.815,111.06,170.291
			c-17.725-48.819-17.725-76.61,0-119.972c-17.725,7.835-24.591-53.808,31.376-65.17c-19.664,41.869-27.297,103.532,0,112.422
			C192.289,151.303,192.289,180.666,219.586,247.548z"/>
	</g>
</g>
<g id="O" display="none">
	<g id="O_1_">
		<rect x="-13.833" display="inline" fill="none" width="283.667" height="256"/>
		<path display="inline" fill="#938970" d="M220.549,135.264c0,22.571-3.797,42.268-11.391,59.089
			c-7.594,16.824-18.352,29.663-32.273,38.522s-30.166,13.289-48.726,13.289c-18.142,0-34.227-4.454-48.252-13.368
			c-14.028-8.911-24.917-21.619-32.669-38.127c-7.752-16.505-11.734-35.62-11.944-57.349v-16.611
			c0-22.148,3.849-41.711,11.549-58.693c7.698-16.979,18.589-29.979,32.669-38.997S109.7,9.492,127.842,9.492
			c18.455,0,34.724,4.457,48.804,13.368c14.08,8.914,24.918,21.832,32.512,38.76s11.391,36.624,11.391,59.089V135.264z
			 M190.332,120.393c0-27.315-5.486-48.277-16.453-62.886c-10.971-14.606-26.316-21.911-46.037-21.911
			c-19.197,0-34.306,7.305-45.326,21.911c-11.022,14.609-16.69,34.884-17.007,60.829v16.928c0,26.475,5.562,47.278,16.69,62.411
			c11.126,15.136,26.445,22.702,45.958,22.702c19.617,0,34.804-7.144,45.562-21.437c10.758-14.29,16.295-34.777,16.611-61.462
			V120.393z"/>
	</g>
	<g display="inline">
		<path fill="#993300" d="M198.546,150.198c8.792,2.862,19.313,35.253,8.735,46.508c-18.618-9.307-9.813,2.27-35.543,15.068
			c-27.556,0.688-15.366,27.251-54.967,37.144c-9.829-13.86-33.002-34.641-21.368-18.854
			c-25.168-23.598-28.593-25.055-27.097-40.449c-20.237,1.601-20.82-16.105-10.491-52.554c-3.333-17.106,4.291-33.435-11.808-24.397
			c-15.643-1.05-7.634-22.193,14.623-47.672C74.468,61.573,81.689,63,94.192,17.284c13.295-8.987,11.201,6.216,43.03-1.943
			c19.874,1.073,18.887,16.358,44.779,31.64c-11.773-21.659,0.297,17.594,26.523,37.647c-4.521,4.715,16.137,21.592,4.653,54.801
			C210.827,115.052,203.778,119.137,198.546,150.198z M175.507,133.642c5.924-37.311,10.437-44-1.839-59.625
			c-17.696-31.68-18.89-37.891-45.325-33.985c-27.206-5.55-22.656,18.573-48.032,39.151c-5.565,2.034-16.629,6.712-0.753,47.995
			c-8.64-12.301-4.492,10.188,1.113,9.51c-9.039,35.889-2.176,53.504,14.701,53.293c7.545-0.036,26.162,5.287,32.487,12.343
			c6.722,14.397,23.202,5.044,43.099-15.76c14.228-3.577,17.508-11.561,17.862-64.54
			C189.431,121.203,179.032,109.391,175.507,133.642z"/>
	</g>
</g>
<g id="P" display="none">
	<g id="P_1_">
		<rect x="-13.833" display="inline" fill="none" width="283.667" height="256"/>
		<path display="inline" fill="#938970" d="M82.912,152.824V243H52.537V12.656h84.955c25.205,0,44.953,6.435,59.246,19.301
			c14.291,12.869,21.438,29.9,21.438,51.1c0,22.361-6.988,39.578-20.963,51.653c-13.977,12.078-33.988,18.114-60.037,18.114H82.912z
			 M82.912,127.986h54.58c16.24,0,28.686-3.829,37.336-11.489c8.646-7.658,12.973-18.728,12.973-33.203
			c0-13.734-4.326-24.722-12.973-32.963c-8.65-8.242-20.516-12.521-35.596-12.837h-56.32V127.986z"/>
	</g>
	<path display="inline" fill="#E6DD91" d="M81,149c-4,31-2,62-1,93c-9,0-19,0-28,0c-4-27-2-55-1-82c1-49,7-99,3-148c31-1,61,0,92,1
		c5,1,11,1,16,2c15,2,27,9,38,19c1,2,3,3,5,5c25,30,22,79-11,103c-22,15-46,14-70,11C109,151,95,150,81,149L81,149z M83,124
		c19,1,39,4,58,6c16,1,34-3,43-18c12-20,10-45-7-61c-9-8-21-12-33-13c-19-1-38-1-57-3C88,65,86,94,83,124L83,124z M115,64
		c-6,7-4,18,3,23c5,3,12,5,18,2c10-5,14-18,10-28c-6-13-21-19-34-15c-11,4-19,13-21,25c-4,25,18,44,41,45c12,0,23-4,31-12
		c6-6,10-13,12-21c1-4,3-7,3-11c4-35-28-63-61-66C68,2,32,52,41,99c1,3,2,6,3,10c7,26,26,45,49,57c9,4,19,8,29,10c12,2,23,1,34,1
		c3,0,6-2,10-3c13-2,24-7,35-15c4-3,7-6,11-9c2-2,3-4,5-6"/>
</g>
<g id="Q" display="none">
	<g id="Q_1_">
		<rect x="-13.833" display="inline" fill="none" width="283.667" height="256"/>
		<path display="inline" fill="#938970" d="M219.283,135.264c0,22.255-3.535,41.425-10.6,57.507
			c-7.068,16.085-16.982,28.662-29.742,37.731l41.133,32.273l-20.725,19.143l-48.568-38.602c-7.594,1.898-15.611,2.848-24.046,2.848
			c-18.142,0-34.227-4.454-48.252-13.368c-14.028-8.911-24.917-21.619-32.669-38.127c-7.752-16.505-11.734-35.62-11.944-57.349
			v-16.611c0-22.148,3.849-41.711,11.549-58.693c7.698-16.979,18.589-29.979,32.669-38.997s30.189-13.526,48.332-13.526
			c18.56,0,34.882,4.484,48.962,13.447c14.08,8.966,24.918,21.859,32.512,38.681c7.594,16.824,11.391,36.466,11.391,58.931V135.264z
			 M188.908,120.393c0-27.104-5.406-48.015-16.217-62.728c-10.813-14.713-26.236-22.069-46.273-22.069
			c-19.091,0-34.147,7.305-45.167,21.911c-11.022,14.609-16.69,34.884-17.007,60.829v16.928c0,26.368,5.51,47.145,16.532,62.332
			c11.02,15.188,26.341,22.781,45.958,22.781c19.617,0,34.804-7.144,45.562-21.437c10.758-14.29,16.295-34.777,16.611-61.462
			V120.393z"/>
	</g>
	<g display="inline">
		<path fill="#993300" d="M216.304,136.248c1,19.477,2.602,30.661-5.453,45.017c-15.729,26.054-19.522,34.408-33.92,39.471
			c5.497-2.831,30.435,33.777,38.749,32.053c-3.282-12.863-33.093-3.614-29.487-16.713c-3.525,15.816-26.994,9.227-40.755,5.807
			c4.164-8.567-14.876-2.798-15.811,6.202c-10.212-15.489-25.555-4.104-39.527-26.012c-29.163-5.96-41.575-24.131-40.771-25.698
			c-13.983-18.362-13.969-47.631-7.196-59.341c2.597-2.758,0.256-6.85-5.23-20.601c9.079-13.099-3.824-37.107,19.124-50.143
			c11.455-15.672,3.786-28.06,23.176-45.639c19.182-3.843,21.842-10.868,42.124-13.185c18.535,11.737,34.676,6.51,47.13,17.661
			c8.946,21.613,19.492,19.489,37.252,40.598c-2.578,24.371,18.024,25.692,2.355,49.69
			C209.074,111.565,221.289,126.024,216.304,136.248z M187.751,122.269c1-26.922,0.843-53.412-10.733-68.004
			c-19.247-2.896-28.221-13.278-49.458-16.742c-12.449-2.831-40.33,19.496-42.373,31.5c-13.644,0.869-11.425,29.177-8.117,40.466
			c-3.525,15.816,0.783,34.242-12.977,30.822c11.302,14.434,4.979,38.84,22.335,62.117c17.199-1.214,31.377,21.497,49.03,7.969
			c2.465,2.417,14.563-10.523,32.768-10.009c3.415-16.281,12.378-46.84,19.645-63.208
			C190.467,134.424,192.736,112.045,187.751,122.269z"/>
	</g>
</g>
<g id="R" display="none">
	<g id="R_1_">
		<rect x="-13.833" display="inline" fill="none" width="283.667" height="256"/>
		<path display="inline" fill="#938970" d="M139.469,149.818H85.364V243H54.831V12.656h76.253c25.945,0,45.904,5.908,59.881,17.719
			c13.973,11.813,20.961,29.005,20.961,51.574c0,14.345-3.875,26.843-11.627,37.494c-7.752,10.654-18.537,18.616-32.354,23.889
			l54.105,97.77V243h-32.59L139.469,149.818z M85.364,124.98h46.669c15.082,0,27.078-3.908,35.992-11.727
			c8.91-7.819,13.367-18.28,13.367-31.384c0-14.263-4.246-25.196-12.734-32.805c-8.492-7.609-20.752-11.465-36.783-11.571H85.364
			V124.98z"/>
	</g>
	<g display="inline">
		<path fill="#F4DC5E" d="M155.669,153.09c11.753,14.979-15.193,3.776-43.56,0.149c33.634-14.646-15.95,13.949-20.97,12.686
			c12.797-14.979,28.474,1.016-23.355-20.745c37.137,33.707,18.202,85.957,7.396,96.265c21.464-3.59-21.727-24.994-4.544,3.369
			c-1.2-7.47-16.862-26.438-12.943,7.633c33.658-23.225-17.234-14.381,2.43-48.438c-20.324-1.229-28.494-158.812,2.661-182.264
			c23.674,20.215,3.696-17.771-5.7-20.08c24.959,19.74,34.953-0.057,57.342,24.96c-6.845-0.999,3.31,4.007,45.732-20.634
			c-22.596-3.261,1.506,20.443,40.42,51.534c-31.054-17.378,6.107,4.668,18.5,43.516c16.378-12.685-36.752,9.836-26.74,18.958
			c-23.209,17.497-16.282,14.546-45.752,16.813c-6.78,23.034,85.456,80.513,96.863,92.794c-62.781,19.512-0.478-10.52-1.981,5.438
			c-33.962-18.421-21.18,0.387-53.439-14.257c0.939-0.993,17.739-1.226,1.974,6.792c-0.801,3.958,26.78,13.909-1.533-9.709
			C160.639,236.659,121.333,154.221,155.669,153.09z M96.246,113.773c8.243,13.029,1.074,14.781-6.558,13.403
			c19.314-5.563,30.875,5.298,27.993,4.818c16.007-5.689,36.548-1.967,12.228-13.106c21.327,12.802,25.468,5.516,27.462,2.238
			c20.523-10.646,2.406-30.109,15.432-31.391c-0.689-15.959-8.943-33.222-14.503-27.282c14.674-15.821-23.247-14.3-26.702-25.245
			c-11.671-0.467-49.153,12.573-31.262,3.666c8.095,9.767-10.461,1.548-19.016,6.171C95.653,54.543,76.528,114.202,96.246,113.773z"
			/>
	</g>
</g>
<g id="S" display="none">
	<g id="S_1_">
		<rect x="-13.833" display="inline" fill="none" width="283.667" height="256"/>
		<path display="inline" fill="#938970" d="M126.497,140.326c-26.051-7.487-45.008-16.69-56.874-27.606S51.825,88.332,51.825,72.299
			c0-18.139,7.25-33.144,21.753-45.009c14.5-11.865,33.354-17.798,56.557-17.798c15.82,0,29.926,3.06,42.32,9.176
			c12.391,6.118,21.99,14.555,28.793,25.313S211.451,66.5,211.451,79.26h-30.533c0-13.971-4.43-24.952-13.289-32.943
			c-8.859-7.989-21.357-11.986-37.494-11.986c-14.977,0-26.656,3.303-35.041,9.907c-8.385,6.605-12.577,15.769-12.577,27.496
			c0,9.406,3.98,17.358,11.944,23.854c7.962,6.499,21.516,12.441,40.658,17.83c19.143,5.389,34.117,11.326,44.93,17.813
			c10.809,6.486,18.826,14.056,24.047,22.702c5.221,8.649,7.83,18.826,7.83,30.533c0,18.668-7.277,33.618-21.832,44.851
			s-34.014,16.849-58.377,16.849c-15.82,0-30.586-3.033-44.296-9.097c-13.712-6.063-24.284-14.369-31.72-24.917
			c-7.436-10.545-11.153-22.517-11.153-35.912h30.533c0,13.922,5.142,24.917,15.425,32.985s24.02,12.103,41.211,12.103
			c16.031,0,28.318-3.268,36.861-9.809c8.543-6.538,12.814-15.449,12.814-26.736c0-11.284-3.955-20.013-11.865-26.183
			S147.273,146.338,126.497,140.326z"/>
	</g>
	<path display="inline" fill="#E6DD91" d="M126.497,140.326c-26.051-7.487-45.008-16.69-56.874-27.606S51.825,88.332,51.825,72.299
		c0-18.139,7.25-33.144,21.753-45.009c14.5-11.865,33.354-17.798,56.557-17.798c15.82,0,29.926,3.06,42.32,9.176
		c12.391,6.118,21.99,14.555,28.793,25.313S211.451,66.5,211.451,79.26h-30.533c0-13.971-4.43-24.952-13.289-32.943
		c-8.859-7.989-21.357-11.986-37.494-11.986c-14.977,0-26.656,3.303-35.041,9.907c-8.385,6.605-12.577,15.769-12.577,27.496
		c0,9.406,3.98,17.358,11.944,23.854c7.962,6.499,21.516,12.441,40.658,17.83c19.143,5.389,34.117,11.326,44.93,17.813
		c10.809,6.486,18.826,14.056,24.047,22.702c5.221,8.649,7.83,18.826,7.83,30.533c0,18.668-7.277,33.618-21.832,44.851
		s-34.014,16.849-58.377,16.849c-15.82,0-30.586-3.033-44.296-9.097c-13.712-6.063-24.284-14.369-31.72-24.917
		c-7.436-10.545-11.153-22.517-11.153-35.912h30.533c0,13.922,5.142,24.917,15.425,32.985s24.02,12.103,41.211,12.103
		c16.031,0,28.318-3.268,36.861-9.809c8.543-6.538,12.814-15.449,12.814-26.736c0-11.284-3.955-20.013-11.865-26.183
		S147.273,146.338,126.497,140.326z M68.5,22.333c-8.376,0-15.167,6.79-15.167,15.167s6.79,15.167,15.167,15.167
		s15.167-6.79,15.167-15.167S76.876,22.333,68.5,22.333z M115.667,58c-2.394,0-4.333,1.94-4.333,4.333
		c0,2.394,1.94,4.333,4.333,4.333c2.393,0,4.333-1.94,4.333-4.333C120,59.94,118.06,58,115.667,58z M99.667,83.333
		c-2.761,0-5,2.239-5,5s2.239,5,5,5s5-2.239,5-5S102.428,83.333,99.667,83.333z M204.022,128c-8.48,0-15.355,6.875-15.355,15.355
		s6.875,15.355,15.355,15.355s15.355-6.875,15.355-15.355S212.503,128,204.022,128z M171.666,198.333
		c-5.707,0-10.333,4.626-10.333,10.333S165.959,219,171.666,219S182,214.373,182,208.666S177.373,198.333,171.666,198.333z
		 M71.5,172c-7.824,0-14.167,6.343-14.167,14.166c0,7.824,6.343,14.167,14.167,14.167s14.167-6.343,14.167-14.167
		C85.667,178.343,79.324,172,71.5,172z M183.333,68.333c-6.443,0-11.667,5.223-11.667,11.667s5.224,11.667,11.667,11.667
		S195,86.443,195,80S189.776,68.333,183.333,68.333z M180.333,33c-3.313,0-6,2.687-6,6s2.687,6,6,6s6-2.687,6-6
		S183.646,33,180.333,33z M62.167,95C53.791,95,47,101.791,47,110.167c0,8.376,6.791,15.167,15.167,15.167
		c8.376,0,15.167-6.791,15.167-15.167C77.333,101.791,70.543,95,62.167,95z"/>
</g>
<g id="T" display="none">
	<g id="T_1_">
		<rect x="-13.833" display="inline" fill="none" width="283.667" height="256"/>
		<path display="inline" fill="#938970" d="M220.391,37.494h-74.039V243h-30.216V37.494H42.254V12.656h178.137V37.494z"/>
	</g>
	<path display="inline" fill="#938970" d="M213.266,44.451c-22.706,18.623-45.411,14.024-68.117,5.509c0,58.683,0,117.365,0,176.048
		c-9.266,4.737-18.532,10.364-27.798,15.092c0-67.404,0-134.808,0-202.212c-22.657-8.481-45.314-13.02-67.971,5.563
		c0-7.617,0-15.234,0-22.851c54.629-57.602,109.258,57.602,163.887,0C213.266,29.217,213.266,36.834,213.266,44.451z
		 M128.863,49.513c-3.31,2.097-3.31,7.746,0,12.137c4.137,5.513,10.845,7.325,14.983,4.67c5.172-3.369,5.172-10.747,0-17.554
		c-6.465-8.489-16.946-13.822-23.411-9.489c-8.081,5.421-8.081,20.429,0,30.867c10.102,13.219,26.479,15.938,36.579,8.937
		c12.627-9.234,12.627-25.328,0-40.294c-15.781-18.89-41.371-39.408-57.154-24.91c-19.728,18.815-19.728,58.192,0,81.265
		c24.661,29.884,64.643,27.958,89.304,7.378"/>
</g>
<g id="U">
	<g id="U_1_" display="none">
		<rect x="-13.833" display="inline" fill="none" width="283.667" height="256"/>
		<path display="inline" fill="#938970" d="M211.848,12.656v156.621c-0.107,21.729-6.938,39.499-20.488,53.314
			c-13.553,13.818-31.932,21.567-55.133,23.256l-8.068,0.316c-25.209,0-45.301-6.803-60.276-20.408
			c-14.978-13.605-22.571-32.325-22.781-56.162V12.656H75.16v155.988c0,16.666,4.588,29.611,13.764,38.839
			c9.176,9.23,22.252,13.843,39.235,13.843c17.189,0,30.347-4.588,39.47-13.764c9.121-9.176,13.686-22.094,13.686-38.76V12.656
			H211.848z"/>
	</g>
	<g>
		<path fill="#FFFC9D" d="M218.328,15.412l-19.815,31.984l20,30.07l-20,30.07l20,30.074l-20,30.067l19.193,12.51l-21.769,7.05
			l14.781,17.489l-22.878-0.233l8.143,21.375l-21.889-7.462l0.204,23.121l-18.348-14.132l-6.594,22.18l-14.074-18.363l-0.523,20.032
			l-2.328-19.924l-0.764,20.045l-2.339-19.923l-1.055,20.052l-11.561-20.569l-15.652,17.628l-5.901-22.761l-20.163,12.133
			l2.034-23.423l-22.791,4.595l10.688-20.634l-22.877-4.012l17.109-15.804l-20.724-10.649l20-30.141l-20-30.131l20-30.13l-20-30.134
			l19.822-28.254l-4.053-11.88l5.766,20l5.771-20l5.775,20l15.594-11.894L67.293,47.274l20,29.949l-20,29.948l20,29.952l-20,29.952
			l20.354,7.067l-18.31,11.391l21.452,1.508l-13.745,16.553l20.552-6.283l-6.272,20.582l16.599-13.734l1.656,21.469l11.422-18.329
			l7.169,20.353l7.231-20.347l11.397,18.363l1.805-21.472L165.163,218l-6.193-20.613l20.545,6.28l-13.781-16.512l21.442-1.522
			l-18.326-11.35l20.352-7.057l-20-29.978l20-29.979l-20-29.978l20-29.982l-19.814-31.901l15.675,11.918l5.856-20l5.862,20
			l4.981-19.961L218.328,15.412z"/>
	</g>
	<g>
	</g>
	<g>
	</g>
	<g>
	</g>
	<g>
	</g>
	<g>
	</g>
	<g>
	</g>
</g>
</svg>
