<svg id="_0" data-name="0" xmlns="http://www.w3.org/2000/svg" viewBox="0 0 256 364.97"><defs><style>.cls-1{font-size:324px;fill:#938970;font-family:Roboto-Regular, Roboto;}.cls-2{fill:#f4dc5e;}</style></defs><text id="Z" class="cls-1" transform="translate(37.03 277.17)">0</text><g id="Z-2" data-name="Z"><path class="cls-2" d="M195.93,150.9q2.37,48.3-11.42,68.81Q171,240,139.54,233.29q-31.08-6.56-48.21-31.62-17.4-24.84-22.67-68.15L64.89,98.7Q60,53.46,73.7,33.36q14-20.35,48.68-16.7,34.38,3.66,51.87,27.62,17.25,24.19,19.93,71Zm-28-41.41q-2.1-34.56-12.56-51.55T124.1,38.66q-20.59-2.4-28.62,11.81T90.33,96.16l4,42.17q3.22,33.63,14,51.43t29.42,21.67q18.43,3.67,26.39-10.07t6.45-47.31Z" transform="translate(0 34.17)"/></g></svg>