<svg data-name="0" xmlns="http://www.w3.org/2000/svg" viewBox="0 0 256 364.97"><text transform="translate(37.03 277.17)" font-size="324" fill="#938970" font-family="Roboto-Regular,Roboto">0</text><path d="M195.93 185.07q2.37 48.3-11.42 68.81-13.51 20.29-44.97 13.58-31.08-6.56-48.21-31.62-17.4-24.84-22.67-68.15l-3.77-34.82Q60 87.63 73.7 67.53q14-20.35 48.68-16.7 34.38 3.66 51.87 27.62 17.25 24.19 19.93 71zm-28-41.41q-2.1-34.56-12.56-51.55T124.1 72.83q-20.59-2.4-28.62 11.81t-5.15 45.69l4 42.17q3.22 33.63 14 51.43t29.42 21.67q18.43 3.67 26.39-10.07t6.45-47.31z" fill="#f4dc5e" data-name="Z"/></svg>