<svg id="_1" data-name="1" xmlns="http://www.w3.org/2000/svg" viewBox="0 0 256 364.97"><defs><style>.cls-1{font-size:324px;fill:#930;font-family:Roboto-Regular, Roboto;}.cls-2{fill:#e6dd91;}</style></defs><text id="_1-2" data-name="1" class="cls-1" transform="translate(37.03 277.17)">1</text><g id="_1-3" data-name="1"><path class="cls-2" d="M166.86,212.26l-21-22.51-1.15,40-1.15-40-1.14,40-1.15-40-1.15,40-1.15-40-1.14,40-1.15-40-1.14,40-1.15-40-1.15,40-1.15-40-1.15,40-1.15-40-1.15,40-1.15-40-1.15,40-1.16-40-20.93,23,39.78-10.61-40-7.61,40-7.62-40-7.61,40-7.61-40-7.62,40-7.62-40-7.61,40-7.62-40-7.61,40-7.62-40-7.61,40-7.62-40-7.61,40-7.62-40-7.62,40-7.62-40-7.61,40-7.63-38.94-1.2,9.74-24.35,11.49,38.39-16.09-36.7,11.49,38.39-16.09-36.7,11.49,38.4L101,44.57,112.53,83,96.44,46.27l11.48,38.39L91.83,48l11.49,38.39-16.1-36.7L98.71,88,82.62,51.34,94.1,89.74,78,53,89.49,91.43,73.38,54.73l3,39.56L98,73.32l-40-1,40-1-40-1,40-1-40-1,40-1-40-1,40-1L58,64l40-1-40-1,40-1-40-1,40-1-40-1,40-1-40-1,40-1L66.56,37.18,88.27,71.1,77.48,32.42,94.81,68.64,84,30l17.33,36.22L90.56,27.51l17.33,36.22L97.11,25.05l17.33,36.22L103.65,22.59,121,58.81,110.2,20.14l17.33,36.21L116.75,17.68,134.08,53.9,123.3,15.22l17.33,36.22L129.85,12.76,147.19,49,136.73,10.18,143.62,49l.17-40L144,49l.17-40,.18,40,.17-40,.18,40,.17-40L145,49l.18-40,.18,40,.18-40,.18,40,.19-40,.18,40,.18-40,.18,40,.18-40,.19,40L167,28.61l-40,9.44,40,9-40,9,40,9-40,9,40,9-40,9,40,9-40,9,40,9-40,9,40,9-40,9,40,9-40,9,40,9-40,9,40,9-34.4,22.92Z" transform="translate(0 34.17)"/></g></svg>