<svg id="_1" data-name="1" xmlns="http://www.w3.org/2000/svg" viewBox="0 0 256 364.97"><defs><style>.cls-1{font-size:324px;fill:#930;font-family:Roboto-Regular, Roboto;}.cls-2{fill:#e6dd91;}</style></defs><text id="_1-2" data-name="1" class="cls-1" transform="translate(37.03 277.17)">1</text><g id="_1-3" data-name="1"><path class="cls-2" d="M172.2,245.51,150.9,223l-1.47,40L148,223l-1.47,40L145,223l-1.47,40-1.47-40-1.47,40-1.47-40-1.48,40-1.46-40-1.47,40-1.47-40-1.47,40-1.48-40-1.47,40-1.47-40-1.48,40-1.47-40-21.26,23,39.78-12.75-40-9.75,40-9.75-40-9.75,40-9.75-40-9.75,40-9.75-40-9.75,40-9.76-40-9.75,40-9.75-40-9.76,40-9.75-40-9.75,40-9.76-40-9.75,40-9.76-40-9.75,40-9.76L104,54.37l9.09-24.13,10.84,38.64L107.2,32.41,118,71,101.31,34.57l10.84,38.64L95.41,36.74l10.84,38.63L89.51,38.91l10.84,38.63L83.61,41.07,94.45,79.71,77.71,43.24,88.55,81.87,71.81,45.41,82.64,84,65.9,47.58,76.74,86.21,60,49.75l2.33,39.79L83.93,68.28,43.93,67l40-1.33-40-1.33,40-1.33-40-1.32,40-1.33L43.93,59l40-1.33-40-1.33,40-1.32-40-1.33,40-1.33L43.93,51l40-1.33-40-1.33,40-1.33-40-1.33,40-1.33L52.52,26.6,75.15,60.18l-9.87-39L83.53,57,73.66,18,91.91,53.89,82,14.87l18.25,35.87-9.87-39L108.67,47.6l-9.87-39,18.25,35.88-9.87-39L125.44,41.3l-9.87-39,18.25,35.87L124-.87,142.21,35,132.35-4l18.26,35.87L141.06-7.29,148,31.55l.23-40,.23,40,.23-40,.22,40,.23-40,.22,40,.23-40,.23,40,.23-40,.23,40,.23-40,.22,40,.24-40,.23,40,.23-40,.23,40,.23-40,.24,40,20.23-20.41-40,12,40,11.57-40,11.56,40,11.58-40,11.56,40,11.57-40,11.58,40,11.57-40,11.57,40,11.57-40,11.57,40,11.58-40,11.57,40,11.57-40,11.57,40,11.58-40,11.57,40,11.58-35.82,23.81Z" transform="translate(0 34.17)"/></g></svg>