<svg baseProfile="tiny" xmlns="http://www.w3.org/2000/svg" viewBox="0 0 256 256" overflow="visible"><path fill="none" d="M0 0h256v256H0z"/><path fill="#930" d="M152.363 243h-29.426V47.936L63.927 69.61V43.031l83.848-31.482h4.588V243z"/><g><path fill="#E6DD91" d="M166.865 212.264l-20.987-22.514-1.148 40-1.148-40-1.147 40-1.147-40-1.149 40-1.147-40-1.143 40-1.144-40-1.15 40-1.147-40-1.147 40-1.151-40-1.149 40-1.15-40-1.152 40-1.15-40-1.152 40-1.155-40-20.929 23.001 39.774-10.612-40-7.613 40-7.613-40-7.615 40-7.613-40-7.615 40-7.616-40-7.615 40-7.615-40-7.616 40-7.617-40-7.612 40-7.615-40-7.615 40-7.616-40-7.618 40-7.62-40-7.618 40-7.623-38.941-1.201 9.747-24.351 11.489 38.393-16.092-36.702 11.491 38.392-16.092-36.702 11.487 38.394-16.092-36.702 11.487 38.394-16.094-36.703 11.486 38.394-16.094-36.702 11.486 38.394L87.22 49.651l11.49 38.392-16.095-36.701L94.1 89.737l-16.098-36.7 11.484 38.395-16.102-36.699 2.977 39.558 21.607-20.97-40-1.037 40-1.037-40-1.036 40-1.036-40-1.038 40-1.033-40-1.032 40-1.034-40-1.039 40-1.036-40-1.036 40-1.04-40-1.038 40-1.039-40-1.035 40-1.04-40-1.042 40-1.045-31.412-17.471 21.714 33.92-10.788-38.676L94.815 68.64 84.021 29.965l17.33 36.22-10.788-38.676 17.33 36.22-10.787-38.676 17.332 36.219-10.786-38.677 17.333 36.219-10.787-38.677 17.336 36.217-10.785-38.677 17.332 36.219-10.785-38.677 17.336 36.217-10.784-38.678 17.342 36.215-10.463-38.795 6.89 38.839.175-40 .175 40 .174-40 .175 40 .175-40 .176 40 .177-40 .179 40 .181-40 .181 40 .18-40 .18 40 .181-40 .182 40 .18-40 .181 40 .185-40 .185 40 20.181-20.41-39.996 9.441 40 9.033-40 9.033 40 9.035-40 9.033 40 9.035-40 9.037 40 9.035-40 9.036 40 9.037-40 9.038 40 9.037-40 9.035 40 9.035-40 9.036 40 9.038-40 9.041 40 9.038-34.406 22.918 34.247-2.314z"/></g></svg>