<svg baseProfile="tiny" xmlns="http://www.w3.org/2000/svg" viewBox="0 0 256 256" overflow="visible"><path fill="none" d="M0 0h256v256H0z"/><path fill="#930" d="M207.102 243H56.176v-21.041l79.734-88.594c11.811-13.393 19.958-24.284 24.442-32.669 4.481-8.385 6.724-17.059 6.724-26.024 0-12.023-3.639-21.884-10.916-29.584-7.277-7.698-16.982-11.549-29.109-11.549-14.555 0-25.866 4.141-33.935 12.419-8.068 8.281-12.103 19.803-12.103 34.567H51.746c0-21.199 6.828-38.337 20.487-51.416C85.89 16.032 104.163 9.492 127.05 9.492c21.409 0 38.337 5.616 50.783 16.849 12.443 11.232 18.668 26.183 18.668 44.851 0 22.677-14.451 49.676-43.348 81l-61.699 66.92H207.1V243z"/><path fill="#DEA500" d="M206.278 242.257l-6.361 1.663-7.183-6.117-7.184 9.811-7.184-1.589-7.186-5.658-7.184 12.785-7.186-6.335-7.187-13.214-7.186-1.432-7.186 20.998-7.187.752-7.188-12.426-7.183-5.155-7.187-1.304-7.188 11.564-7.187 5.335-7.189.129-7.185-16.871-7.191 16.361-7.194-18.454-8.437 11.174-9.029-8.285 17.353-7.015-13.753-9.573 9.87-3.992 6.575-3.511 9.201-1.15-1.417-10.708 9.073-1.265 5.843-4.163-1.361-10.655 11.551.971 3.102-6.638 8.411-1.863-6.456-15.244 10.616.121 9.739-.671-1.594-10.865 9.15-1.204 3.749-6.071-4.5-13.473 4.057-5.285 15.62 4.139-10.85-17.253 20.799 7.024-9.157-14.54 1.171-6.503 8.508-2.861-6.167-8.347 21.019-2.739-3.432-7.985-8.239-7.734 1.169-8.519-12.458-2.047 8.056-16.004-5.963-8.211-8.767-5.355-10.398 1.542-8.974-4.546-6.44 19.1-10.174-15.201-3.232 14.302-11.885-5.879 1.972 13.907-9.087 1.646-.557 7.912L75.066 63.8l-4.063 8.128 12.086 14.426-9.392-15.361-7.314 18.019-7.319-5.794L54.4 72.519l7.006 1.612-1.955-6.706-11.731-9.816 8.402-5.168-6.328-11.323 6.323-5.798 19.913 6.303-4.565-13.316 5.494-5.287 8.07-1.358 5.314-5.819 8.637 2.056 6.713-2.269 6.413-5.505 7.095-6.178 7.848 5.005 7.04-2.513 6.429 5.372 8.11-5.923 3.115 14.985 9.082-6.11 10.637-4.995.926 12.448 4.731 4.918 3.991 5.819 14.698-1.469-8.061 13.312-.343 7.186 9.22 4.679 7.694 6.628-12.746 7.904-1.644 6.42.987 6.959 9.92 10.585-13.343 2.866 4.027 9.898-6.258 5.035-9.831 2.39-5.55 4.671 7.836 14.553-13.398-1.154-6.844 3.539.848 10.166-12.55-1.736 2.081 11.44-3.964 5.857 3.279 12.544-14.77-4.103 4.125 13.323-11.95-1.494-12.04-1.577-4.398 5.469 3.828 13.056-14.544-3.889-3.163 6.613-3.569 6.246-.798 10.997 8.792-9.352 7.226 1.566 7.227 7.785 7.226-3.294 7.226-3.089 7.227 2.242 7.228-4.736 7.224 7.478 7.227-6.258 7.227 17.268 7.227-.227 7.229-9.794 7.231 7.252 7.229-5.874 7.234-3.918 10.501-.77-5.829 10.928 12.454 8.501-10.717 6.682z"/></svg>