<svg baseProfile="tiny" xmlns="http://www.w3.org/2000/svg" viewBox="0 0 256 256" overflow="visible"><path fill="none" d="M0 0h256v256H0z"/><path fill="#CBC086" d="M98.732 113.59h21.99c13.815-.21 24.68-3.849 32.59-10.916 7.91-7.065 11.865-16.611 11.865-28.635 0-26.999-13.447-40.5-40.342-40.5-12.656 0-22.756 3.614-30.296 10.837-7.542 7.226-11.312 16.797-11.312 28.714H53.961c0-18.245 6.669-33.406 20.013-45.483 13.34-12.076 30.296-18.115 50.862-18.115 21.726 0 38.76 5.75 51.1 17.244 12.34 11.497 18.51 27.476 18.51 47.936 0 10.021-3.243 19.724-9.729 29.109-6.486 9.388-15.321 16.401-26.499 21.041 12.656 4.009 22.438 10.654 29.347 19.934 6.906 9.282 10.362 20.621 10.362 34.014 0 20.673-6.751 37.074-20.25 49.201-13.502 12.13-31.062 18.193-52.682 18.193-21.622 0-39.209-5.854-52.761-17.561-13.554-11.707-20.329-27.156-20.329-46.354H81.33c0 12.13 3.955 21.832 11.865 29.109s18.51 10.916 31.799 10.916c14.132 0 24.941-3.69 32.432-11.074 7.487-7.381 11.232-17.98 11.232-31.799 0-13.393-4.113-23.676-12.34-30.85-8.227-7.171-20.092-10.861-35.596-11.074h-21.99V113.59z"/><path fill="#930" d="M101.874 115.298c-6.284-3.417 18.345-3.417 19.351 0 14.467-3.652 26.635-7.728 28.679-9.606 15.675-13.95 20.104-24.642 10.441-25.199 9.663-43.148-5.398-58.269-35.501-35.64-14.194-22.629-25.506-18.582-26.66 9.536-15.737-11.936-19.959-1.216-9.954 25.268-10.005-13.137-42.784-13.137-25.755 0-17.029-33.572-9.559-50.552 17.611-40.025 2.716-37.577 21.705-44.341 44.759-15.941C149.159-4.71 168.237 1.73 169.813 38.866c26.066-11.385 32.976 6.511 16.289 42.183 16.687-1.534 13.055 9.333-8.562 25.616 7.087 4.744-2.808 12.598-23.319 18.516 22.167 3.769 33.122 11.211 25.825 17.542 22.771 14.459 26.641 27.158 9.119 29.932 17.523 35.38 9.961 53.749-17.82 43.297-2.46 37.62-22.127 44.411-46.36 16.01-24.198 28.401-43.896 21.845-46.429-15.453-27.824 11.074-35.412-6.229-17.89-40.791-17.523 13.061 15.434 13.061 25.895 0-10.46 26.647-6.031 37.513 10.441 25.616 1.247 28.198 13.118 32.273 27.983 9.606 15.847 22.667 27.953 18.534 28.54-9.745 16.188 11.743 20.383-.129 9.885-27.983 10.498-2.622 5.891-14.139-10.859-27.148-1.677-3.057-14.966-7.191-31.324-9.745-1.006 2.316-25.635 2.316-19.351 0-6.285 2.318-6.285-24.438-.002-21.021z"/></svg>