<svg baseProfile="tiny" xmlns="http://www.w3.org/2000/svg" viewBox="0 0 256 256" overflow="visible"><path fill="none" d="M0 0h256v256H0z"/><path fill="#930" d="M179.732 165.639h31.957v23.889h-31.957V243h-29.426v-53.473H45.418v-17.244L148.566 12.656h31.166v152.983zm-101.091 0h71.666V52.682l-3.48 6.328-68.186 106.629z"/><path fill="#CBC086" d="M168.667 174l43.023-8.361v23.889H172L179.732 243h-29.426l6.36-65.667L58 180l-4-12 96.307-148.333 14.027 10L168.667 174zm-55.324-8.361h25.964c0-6.075 4.925-11 11-11V59.904c-.924 1.681-3.48 1.024-3.48-.894l-49.49 77.393c-8.088 12.647.994 29.236 16.006 29.236z"/></svg>