<svg baseProfile="tiny" xmlns="http://www.w3.org/2000/svg" viewBox="0 0 256 256" overflow="visible"><path fill="none" d="M0 0h256v256H0z"/><path fill="#DEA500" d="M69.623 127.512L81.33 12.656h118.02v27.053h-93.182l-6.961 62.807c11.284-6.645 24.099-9.967 38.443-9.967 20.986 0 37.652 6.936 49.992 20.804 12.34 13.87 18.51 32.617 18.51 56.241 0 23.73-6.407 42.426-19.222 56.083-12.814 13.66-30.719 20.487-53.71 20.487-20.356 0-36.968-5.641-49.834-16.928-12.869-11.284-20.198-26.895-21.99-46.828h27.686c1.792 13.186 6.486 23.125 14.08 29.821 7.594 6.699 17.612 10.046 30.059 10.046 13.605 0 24.284-4.64 32.036-13.922 7.752-9.279 11.628-22.094 11.628-38.443 0-15.397-4.192-27.765-12.577-37.099s-19.538-14.001-33.46-14.001c-12.763 0-22.781 2.796-30.059 8.385l-7.752 6.328-23.414-6.011z"/><path fill="#930" d="M68.383 127.492L77.99 15.177 176.236 30.1l.548 22.867-77.939-8.955-5.474 59.474c9.494-5.989 20.288-8.656 32.398-8.128 17.716.773 31.901 7.437 42.588 19.699 10.737 11.881 16.375 27.571 16.877 47.359.504 19.877-4.62 36.16-15.411 49.139-10.842 13.375-26.247 21.764-46.174 24.879-17.643 2.758-32.069-.412-43.247-9.759-11.137-9.67-17.463-24.488-19.005-44.267l23.737-1.771c1.593 12.635 5.677 21.824 12.254 27.524 6.592 5.589 15.265 7.661 26.008 6.309 11.744-1.479 20.897-6.779 27.442-15.781 6.524-8.839 9.639-20.314 9.362-34.545-.261-13.403-4.04-24.089-11.32-32.188-7.257-8.275-16.78-12.529-28.586-12.632-10.823-.094-19.3 2.481-25.442 7.792l-6.554 6.119-19.915-5.743z"/></svg>