<svg baseProfile="tiny" xmlns="http://www.w3.org/2000/svg" viewBox="0 0 256 256" overflow="visible"><path fill="none" d="M0 0h256v256H0z"/><path fill="#CBC086" d="M171.031 12.498v24.838h-5.379c-22.781.423-40.923 7.173-54.422 20.25-13.501 13.079-21.306 31.482-23.414 55.213 12.127-13.922 28.687-20.883 49.676-20.883 20.037 0 36.043 7.067 48.015 21.199 11.969 14.134 17.956 32.38 17.956 54.738 0 23.73-6.462 42.715-19.38 56.953-12.921 14.238-30.244 21.357-51.97 21.357-22.044 0-39.921-8.464-53.631-25.392-13.712-16.928-20.566-38.732-20.566-65.417v-11.232c0-42.398 9.042-74.803 27.132-97.216 18.087-22.411 45.009-33.88 80.763-34.409h5.22zm-38.443 103.781c-10.021 0-19.249 3.006-27.686 9.018-8.439 6.012-14.292 13.554-17.561 22.623v10.758c0 18.984 4.271 34.278 12.814 45.879 8.543 11.604 19.194 17.402 31.957 17.402 13.183 0 23.545-4.85 31.087-14.555 7.539-9.702 11.312-22.41 11.312-38.127 0-15.82-3.824-28.607-11.47-38.364-7.647-9.754-17.797-14.634-30.453-14.634z"/><path fill="#DEA500" d="M195.046 38.039a640.56 640.56 0 00-3.965 18.911 1854.03 1854.03 0 01-8.265-2.582c-35.001-10.804-60.881-13.698-77.762-4.443-16.945 9.005-24.396 29.036-25.527 56.005 13.583-14.27 33.381-17.701 60.19-12.927 25.574 4.533 46.686 14.067 60.122 25.84 13.523 11.963 17.365 24.102 11.278 41.256-6.422 18.131-20.692 35.597-36.205 52.412-15.74 16.691-30.269 29.417-48.295 33.644-18.252 4.298-33.587-3.099-49.75-20.731-16.077-17.713-28.492-41.815-30.438-72.939-.304-4.368-.586-8.771-.856-13.208-2.249-50.237 4.664-92.661 24.078-112.414 19.587-20.55 57.509-14.764 116.783 7.91 2.858 1.092 5.728 2.181 8.612 3.266zm-62.01 77.878c-12.063-1.244-23.019.548-32.701 6.172-9.686 5.602-16.131 13.593-19.456 23.558.182 4.007.363 7.997.548 11.972.95 21.053 6.859 37.637 15.995 49.376 9.176 11.739 19.013 16.528 30.736 14.456 12.109-2.139 21.955-9.324 30.865-19.968 8.83-10.687 15.406-22.754 18.02-36.4 2.646-13.755.016-24.148-8.226-33.031-8.204-8.811-20.547-14.54-35.781-16.135z"/></svg>