<svg baseProfile="tiny" xmlns="http://www.w3.org/2000/svg" viewBox="0 0 256 256" overflow="visible"><path fill="none" d="M0 0h256v256H0z"/><path fill="#930" d="M204.887 29.109L109.49 243H78.799l95.08-206.297H49.215V12.656h155.672v16.453z"/><path fill="#FFFC9D" d="M184.452 19.56H73.887c-5.578 0-10.1 5.168-10.1 11.543s4.522 11.542 10.1 11.542h78.843c7.368 0 12.257 8.726 9.172 16.374L95.241 224.316c-3.084 7.648 1.804 16.374 9.172 16.374h3.451c3.987 0 7.6-2.68 9.224-6.841l76.588-196.25c.577-1.48.876-3.082.876-4.702v-1.795c-.001-6.374-4.522-11.542-10.1-11.542z"/></svg>