<svg baseProfile="tiny" xmlns="http://www.w3.org/2000/svg" viewBox="0 0 256 256" overflow="visible"><path fill="none" d="M0 0h256v256H0z"/><path fill="#938970" d="M195.869 72.773c0 11.497-3.033 21.728-9.097 30.691-6.066 8.966-14.266 15.979-24.601 21.041 12.023 5.169 21.54 12.711 28.556 22.623 7.013 9.915 10.521 21.147 10.521 33.697 0 19.934-6.724 35.809-20.171 47.619-13.447 11.813-31.142 17.719-53.077 17.719-22.148 0-39.895-5.933-53.235-17.798-13.343-11.865-20.013-27.71-20.013-47.54 0-12.443 3.401-23.676 10.204-33.697 6.803-10.019 16.216-17.612 28.239-22.781-10.231-5.062-18.3-12.075-24.205-21.041-5.908-8.963-8.859-19.143-8.859-30.533 0-19.405 6.222-34.805 18.668-46.195C91.243 15.188 107.644 9.492 128 9.492c20.25 0 36.624 5.695 49.122 17.086s18.747 26.791 18.747 46.195zm-23.889 107.42c0-12.866-4.089-23.359-12.261-31.482-8.175-8.12-18.854-12.182-32.036-12.182-13.185 0-23.758 4.01-31.72 12.023C88 156.569 84.02 167.117 84.02 180.193c0 13.079 3.876 23.362 11.628 30.85 7.752 7.49 18.535 11.232 32.353 11.232 13.709 0 24.467-3.77 32.273-11.312 7.803-7.538 11.706-17.797 11.706-30.77zM128 33.539c-11.497 0-20.804 3.56-27.923 10.679s-10.679 16.797-10.679 29.03c0 11.707 3.505 21.174 10.521 28.397 7.013 7.226 16.374 10.837 28.081 10.837s21.065-3.611 28.081-10.837c7.013-7.223 10.521-16.69 10.521-28.397s-3.639-21.251-10.916-28.635c-7.278-7.381-16.508-11.074-27.686-11.074z"/><path fill="#F4DC5E" d="M186.671 71.463c-1.244 13.963-8.461 22.896 1.372 29.998-3.485 8.64-22.164 15.87-21.925 17.064 2.925 11.985 17.411 12.703 20.362 23.351 4.949 15.247 22.855 21.305 19.923 35.808-6.274 17.837-20.096 36.908-33.926 48.142 1.449 8.07-14.255 14.719-43.637 13.955-29.294.128-27.117-5.669-60.073-26.124-14.118-4.004-11.521-24.783-20.484-41.891 24.939-10.756 11.504-19.395 15.083-28.346 4.84-10.012 18.341-20.059 40.548-20.266-31.582-6.917-36.7-15.373-33.922-22.364-8.439-8.075-6.169-22.962 5.261-34.209-17.403-18.952-19.327-34.282 9.509-40.068-2.381-9.209 22.118-16.596 46.797-20.788 21.408.63 21.215 4.876 43.42 24.833 10.18 4.409 5.736 19.741 11.692 40.905zm-21.895 103.532c-.35-11.479-6.422-22.154-4.71-30.618-6.126-8.03-22.578-12.078-29.038-13.578-17.471 2.04-24.202 3.222-33.696 10.966-8.108 9.359-2.822 17.653-4.076 30.918-3.221 11.863-3.719 23.117 2.748 30.645 15.554 6.57 25.711 11.191 32.544 11.726 6.882.865 27.861-1.962 22.754-12.285 6.134-4.149 9.633-16.14 13.474-27.774zM124.041 32.629c-11.853.857-23.221 3.908-21.624 10.144-5.541 6.761-14.655 16.187-9.029 26.71-4.255 13.388 2.172 20.248 7.185 27.543 6.151 8.817 23.099 10.83 32.995 11.789 8.115-.306 13.2-2.326 19.279-9.078 14.584-7.895 18.368-16.462 13.148-27.665-5.132-10.875 1.885-20.132-16.796-30.017-8.178-4.511-17.533-10.123-25.158-9.426z"/></svg>