<svg baseProfile="tiny" xmlns="http://www.w3.org/2000/svg" viewBox="0 0 256 256" overflow="visible"><path fill="none" d="M0 0h256v256H0z"/><path fill="#938970" d="M168.342 141.75c-6.118 7.277-13.423 13.131-21.911 17.561-8.491 4.43-17.798 6.645-27.923 6.645-13.289 0-24.865-3.268-34.726-9.809-9.863-6.538-17.481-15.741-22.86-27.606s-8.068-24.969-8.068-39.313c0-15.397 2.927-29.268 8.78-41.607s14.159-21.778 24.917-28.318c10.758-6.538 23.308-9.809 37.652-9.809 22.781 0 40.737 8.518 53.868 25.55 13.131 17.034 19.696 40.263 19.696 69.688v8.543c0 44.826-8.859 77.547-26.578 98.165-17.719 20.621-44.455 31.193-80.209 31.72h-5.695v-24.84h6.17c24.151-.42 42.715-6.709 55.688-18.865 12.972-12.157 20.037-31.392 21.199-57.705zm-45.088 0c9.809 0 18.851-3.006 27.132-9.018 8.278-6.012 14.317-13.447 18.114-22.307V98.719c0-19.194-4.168-34.805-12.498-46.828-8.333-12.023-18.881-18.035-31.641-18.035-12.869 0-23.204 4.932-31.008 14.792-7.806 9.863-11.707 22.86-11.707 38.997 0 15.716 3.77 28.662 11.312 38.839 7.54 10.179 17.64 15.266 30.296 15.266z"/><path fill="#930" d="M160.148 138.736c-.347.383.158-3.442-.197-3.068-.356.375 5.427 6.941 5.063 7.305-.365.365-6.737-5.613-7.111-5.26-.374.354 5.104 7.179 4.721 7.522-.383.344-6.478-5.928-6.869-5.596-.392.333 4.764 7.4 4.364 7.722-.401.321-6.2-6.229-6.609-5.918-.409.31 4.411 7.602 3.993 7.901-.417.298-5.906-6.512-6.332-6.225-.425.287 4.047 7.782 3.614 8.057-.432.274-5.6-6.776-6.04-6.511-.439.263 3.676 7.939 3.228 8.19-.447.25-5.283-7.017-5.738-6.776-.453.239 3.302 8.073 2.841 8.3-.459.226-4.961-7.234-5.428-7.018-.465.216 2.929 8.183 2.455 8.386-.485.208-4.631-7.431-5.122-7.238-.492.194 2.434 8.304 1.937 8.479-.499.175-4.18-7.664-4.685-7.503-.505.16 1.921 8.388 1.41 8.529-.511.141-3.708-7.865-4.225-7.738-.516.126 1.397 8.436.876 8.543-.521.107-3.223-8.032-3.749-7.939-.525.092.873 8.449.343 8.523-.528.073-2.732-8.163-3.266-8.104-.531.059.356 8.429-.181 8.468-.534.04-2.243-8.259-2.783-8.232-.536.026-.147 8.377-.688 8.384-.538.008-1.765-8.32-2.308-8.325-.539-.005-.629 8.298-1.173 8.275-.54-.023-1.301-8.351-1.846-8.385-.54-.034-1.088 8.197-1.632 8.145-.69-.066-1.137-8.382-1.817-8.462-.689-.081-1.857 8.026-2.535 7.922-.688-.106-.628-8.369-1.305-8.49-.686-.123-2.376 7.832-3.05 7.686-.683-.148-.074-8.323-.745-8.488-.679-.166-2.924 7.592-3.591 7.401-.674-.192.524-8.237-.138-8.446-.668-.212-3.495 7.3-4.15 7.064-.661-.238 1.155-8.102.508-8.359-.653-.258-4.077 6.955-4.717 6.673-.643-.284 1.809-7.917 1.179-8.221-.633-.304-4.657 6.559-5.276 6.23-.621-.33 2.471-7.68 1.863-8.029-.608-.349-5.217 6.117-5.812 5.743-.594-.373 3.122-7.394 2.541-7.787-.58-.392-5.743 5.641-6.309 5.225-.562-.412 3.743-7.068 3.198-7.496-.547-.429-6.199 5.166-6.73 4.719-.531-.447 4.31-6.722 3.796-7.185-.514-.463-6.624 4.665-7.121 4.185-.496-.479 4.854-6.34 4.375-6.837-.478-.494-7.009 4.145-7.47 3.634-.459-.509 5.364-5.933 4.921-6.459-.44-.523-7.347 3.617-7.771 3.079-.421-.534 5.83-5.51 5.426-6.062-.401-.547-7.635 3.096-8.02 2.534-.382-.556 6.248-5.083 5.881-5.657-.363-.567-7.872 2.59-8.219 2.009-.344-.575 6.613-4.663 6.285-5.255-.325-.584-8.062 2.109-8.371 1.512-.306-.59 6.929-4.257 6.637-4.864-.288-.599-8.209 1.655-8.484 1.045-.303-.674 7.141-4.003 6.858-4.687-.282-.683-8.384 1.069-8.646.383-.262-.685 7.401-3.599 7.159-4.294-.241-.693-8.464.623-8.685-.073-.22-.694 7.632-3.192 7.432-3.897-.199-.701-8.514.186-8.694-.519-.179-.701 7.834-2.789 7.675-3.5-.158-.707-8.537-.238-8.675-.949-.138-.706 8.006-2.393 7.887-3.109-.118-.711-8.533-.644-8.632-1.358-.098-.708 8.148-2.008 8.068-2.728-.079-.714-8.507-1.03-8.568-1.746-.06-.71 8.263-1.641 8.221-2.362-.042-.714-8.462-1.392-8.486-2.108-.024-.71 8.353-1.291 8.346-2.012-.007-.714-8.4-1.732-8.39-2.448.011-.76 8.423-1.05 8.452-1.805.029-.763-8.32-2.152-8.273-2.901.047-.757 8.479-.705 8.545-1.457.067-.76-8.215-2.498-8.129-3.243.087-.753 8.518-.334 8.625-1.082.107-.755-8.082-2.862-7.955-3.602.128-.747 8.537.063 8.686-.678.15-.748-7.919-3.241-7.749-3.974.171-.739 8.532.485 8.724-.248.194-.738-7.723-3.635-7.508-4.358.216-.728 8.498.926 8.735.204.239-.726-7.491-4.036-7.23-4.747.262-.715 8.432 1.384 8.715.677.285-.711-7.224-4.441-6.917-5.137.308-.699 8.332 1.852 8.662 1.161.331-.693-6.924-4.841-6.57-5.519.318-.611 8.126 2.459 8.459 1.863.337-.605-6.68-5.082-6.327-5.667.357-.593 7.951 2.92 8.324 2.343.377-.584-6.321-5.474-5.928-6.039.397-.57 7.728 3.406 8.142 2.853.418-.559-5.91-5.872-5.475-6.411.438-.544 7.453 3.912 7.908 3.386.458-.53-5.445-6.266-4.969-6.775.478-.513 7.124 4.425 7.62 3.931.498-.496-4.93-6.645-4.414-7.122.517-.478 6.744 4.933 7.279 4.475.536-.459-4.375-6.999-3.821-7.439.554-.44 6.318 5.425 6.889 5.005.57-.419-3.791-7.317-3.203-7.717.587-.399 5.856 5.886 6.46 5.508.601-.377-3.191-7.593-2.572-7.952.636-.369 5.404 6.29 6.053 5.947.65-.344-2.532-7.85-1.869-8.173.662-.322 4.878 6.691 5.553 6.395.674-.295-1.898-8.041-1.211-8.316.684-.274 4.33 7.052 5.027 6.805.693-.246-1.266-8.185-.56-8.412.702-.225 3.774 7.369 4.489 7.171.709-.197-.649-8.284.072-8.463.715-.177 3.223 7.639 3.95 7.489.72-.149-.061-8.341.671-8.472.724-.13 2.687 7.863 3.422 7.759.727-.103.492-8.36 1.231-8.446.73-.085 2.177 8.044 2.918 7.984.731-.06 1.005-8.349 1.747-8.393.733-.043 1.696 8.188 2.44 8.168.734-.019 1.477-8.313 2.221-8.317 1.174-.007 2.033 8.311 3.178 8.361 1.171.051 3.011-8.175 4.151-8.078 1.166.1 1.227 8.512 2.361 8.674 1.158.165 3.819-7.887 4.944-7.671 1.145.221.301 8.645 1.411 8.931 1.128.292 4.678-7.457 5.77-7.109 1.106.353-.726 8.67.343 9.092 1.079.427 5.543-6.87 6.584-6.382 1.047.491-1.809 8.556-.8 9.118 1.01.563 6.355-6.133 7.328-5.506.97.625-2.883 8.293-1.951 8.987.926.69 7.061-5.286 7.95-4.531.879.748-3.88 7.897-3.037 8.71.831.802 7.625-4.389 8.421-3.523.783.852-4.754 7.408-4.005 8.32.735.896 8.044-3.499 8.746-2.543.824 1.123-5.251 7.21-4.488 8.39.756 1.17 8.621-2.138 9.318-.906.688 1.218-6.028 6.541-5.398 7.811.621 1.252 8.796-1.116 9.36.195.555 1.29-6.675 5.833-6.175 7.17.491 1.313 8.861-.163 9.299 1.206.429 1.341-7.193 5.125-6.814 6.508.371 1.355 8.844.695 9.167 2.103.316 1.377-7.596 4.451-7.326 5.864.264 1.381 8.771 1.451 8.991 2.882.215 1.398-7.903 3.825-7.73 5.255.169 1.397 8.664 2.11 8.793 3.551.126 1.41-8.137 3.253-8.049 4.691.086 1.405 8.538 2.684 8.587 4.131.048 1.415-8.314 2.735-8.3 4.174.013 1.407 8.404 3.182 8.383 4.627-.004.247-8.397-.218-8.401.028-.003.247 8.39.715 8.387.963-.004.247-8.397-.223-8.401.022-.003.246 8.39.719 8.387.966-.003.247-8.397-.229-8.401.017-.004.247 8.39.726 8.387.974-.004.248-8.397-.234-8.401.013-.003.246 8.39.731 8.387.979-.003.246-8.397-.241-8.4.003-.003.246 8.39.736 8.386.983-.004.249-8.397-.244-8.4.004-.003.247 8.39.742 8.386.99-.004.25-8.397-.248-8.4 0-.004.249 8.39.749 8.386.999-.004.251-8.397-.253-8.4-.003-.004.249 8.39.755 8.386 1.006-.029 2.037-8.467 3.431-8.533 5.401-.068 2.024 8.229 4.847 8.122 6.822-.11 2.032-8.614 2.979-8.766 4.936-.156 2.014 8.021 5.294 7.821 7.252-.207 2.019-8.768 2.441-9.022 4.377-.262 1.997 7.75 5.799 7.438 7.729-.322 1.993-8.923 1.797-9.298 3.697-.388 1.963 7.389 6.359 6.945 8.243-.46 1.949-9.066 1.018-9.587 2.862-.54 1.908 6.9 6.984 6.295 8.799-.627 1.88-9.171.07-9.868 1.83-.722 1.82 6.231 7.66 5.433 9.368-.826 1.767-9.191-1.083-10.097.549-.937 1.684 5.315 8.35 4.292 9.902-1.053 1.596-9.053-2.44-10.197-.993-1.174 1.481 4.103 8.959 2.833 10.289-1.106 1.157-8.335-4.252-9.516-3.194-1.186 1.06 3.269 8.951 2.008 9.911-1.26.957-7.799-5.344-9.134-4.484-1.328.854 2.09 9.153.688 9.906-1.389.744-7.131-6.298-8.593-5.646-1.442.641.925 9.167-.588 9.709-1.487.532-6.39-7.063-7.946-6.615-1.525.438-.154 9.024-1.745 9.37-1.556.336-5.64-7.633-7.259-7.371-1.58.255-1.103 8.777-2.743 8.947-1.6.164-4.93-8.032-6.587-7.932-1.615.096-1.915 8.475-3.584 8.493-1.625.017-4.282-8.295-5.959-8.334-1.633-.039-2.597 8.151-4.279 8.042-1.639-.107-3.706-8.458-5.391-8.614-1.642-.152-3.178 7.828-4.864 7.611-.159-.021-.097-8.149-.256-8.171-.16-.022-.274 8.096-.433 8.073-.159-.023-.045-8.139-.204-8.16-.159-.022-.273 8.092-.432 8.07-.159-.023-.045-8.135-.204-8.157-.16-.022-.274 8.089-.433 8.066-.159-.023-.045-8.131-.204-8.153-.158-.022-.272 8.085-.43 8.063-.158-.023-.044-8.128-.202-8.149-.159-.022-.273 8.081-.433 8.059-.16-.023-.046-8.124-.206-8.146-.16-.022-.274 8.078-.434 8.055-.158-.023-.045-8.12-.203-8.142-.162-.022-.276 8.074-.437 8.051-.162-.023-.048-8.117-.211-8.139s-4.441 4.505-4.476 4.348c-.149-.674 8.295-.434 8.305-1.107.009-.674-8.373-1.833-8.364-2.503.009-.669 8.392.483 8.402-.19.009-.674-8.374-1.817-8.364-2.487.009-.669 8.393.466 8.402-.207.009-.674-8.374-1.802-8.365-2.472.009-.668 8.393.452 8.402-.22.009-.672-8.374-1.784-8.365-2.452.009-.67 8.393.434 8.403-.241.009-.673-8.374-1.769-8.365-2.438.009-.67 8.393.418 8.403-.256.009-.675-8.375-1.755-8.365-2.426.009-.67 8.394.402 8.403-.272.009-.675-8.375-1.74-8.365-2.411.009-.673 8.394.384 8.403-.293.01-.676-8.407-2.715-8.23-3.348.043-.156 4.172 5.54 4.345 5.562.173.022.287-8.072.459-8.051.172.021.058 8.117.231 8.139.172.022.286-8.076.458-8.055.172.021.058 8.121.231 8.143.173.022.287-8.08.46-8.059.172.021.058 8.125.23 8.147.171.022.285-8.084.456-8.063.171.021.057 8.129.229 8.151.173.022.287-8.088.459-8.067.174.021.06 8.133.233 8.155.173.022.287-8.092.461-8.071.174.021.06 8.137.234 8.159.174.022.289-8.096.463-8.074.175.021.061 8.141.236 8.163.175.022.233-8.104.408-8.085 1.139.119 2.39 8.385 3.502 8.479 1.138.096 1.889-8.025 2.998-7.969 1.137.058 2.879 8.331 3.986 8.36 1.134.029 1.365-8.217 2.468-8.232 1.131-.015 3.417 8.224 4.515 8.176 1.125-.049.753-8.395 1.843-8.492 1.116-.1 4.02 8.044 5.1 7.907 1.107-.141.04-8.541 1.109-8.733 1.093-.198 4.688 7.766 5.741 7.525 1.075-.246-.782-8.627.251-8.928 1.055-.308 5.406 7.361 6.417 7.004 1.029-.364-1.703-8.62-.72-9.042.999-.43 6.142 6.804 7.094 6.321.964-.49-2.696-8.486-1.78-9.036.924-.555 6.85 6.086 7.726 5.473.879-.616-3.71-8.2-2.879-8.877.868-.709 7.583 5.125 8.395 4.339.804-.779-4.724-7.762-3.976-8.616.737-.842 8.133 4.004 8.816 3.085.671-.902-5.7-7.116-5.081-8.085.605-.948 8.481 2.898 9.036 1.879.542-.995-6.47-6.413-5.975-7.467.481-1.026 8.662 1.886 9.099.795.425-1.062-7.05-5.72-6.667-6.834.372-1.082 8.727.997 9.059-.144.322-1.108-7.478-5.073-7.192-6.226.277-1.12 8.719.233 8.961-.941.235-1.14-7.791-4.488-7.589-5.666.196-1.146 8.667-.418 8.832-1.612.16-1.162-8.02-3.97-7.889-5.165.127-1.163 8.592-.972 8.691-2.18.094-1.18-7.966-1.849-7.896-3.054zm-36.457-8.442c.547.041 1.135 8.373 1.676 8.396.546.023.719-8.287 1.26-8.288.545-.001 1.79 8.32 2.33 8.3.542-.02.041-8.378.579-8.423.539-.045 2.458 8.208 2.992 8.143.535-.065-.656-8.415-.126-8.505.53-.09 3.12 8.035 3.644 7.925.524-.11-1.353-8.393-.834-8.528.517-.134 3.759 7.806 4.27 7.651.509-.154-2.032-8.313-1.528-8.491.501-.177 4.357 7.527 4.853 7.331.492-.196-2.675-8.181-2.188-8.4.483-.217 4.906 7.211 5.383 6.974.473-.235-3.272-8.005-2.804-8.262.463-.254 5.396 6.87 5.854 6.596.453-.27-3.813-7.797-3.365-8.088.447-.291 5.821 6.521 6.254 6.219.438-.304-4.263-7.587-3.84-7.903.428-.319 6.18 6.181 6.593 5.851.417-.333-4.706-7.337-4.304-7.682.405-.348 6.535 5.793 6.925 5.434.393-.362-5.153-7.04-4.776-7.413.38-.376 6.88 5.358 7.244 4.971.366-.39-5.597-6.695-5.247-7.096.352-.403 7.204 4.879 7.539 4.464.337-.417-6.026-6.303-5.706-6.731.321-.429 7.5 4.362 7.805 3.92.305-.442-6.431-5.871-6.143-6.324.289-.453 7.761 3.816 8.033 3.35.272-.465-6.804-5.406-6.549-5.881.255-.474 7.98 3.252 8.219 2.765.238-.486-7.419-4.037-7.197-4.532.064-.322 8.316.932 8.321.599.005-.334-8.389-.821-8.384-1.153.005-.331 8.398.153 8.403-.18.005-.332-8.389-.812-8.384-1.143.005-.331 8.398.145 8.403-.188.005-.335-8.389-.807-8.384-1.14.005-.332 8.398.137 8.403-.197.005-.334-8.389-.799-8.384-1.131.005-.333 8.399.128 8.403-.207.005-.334-8.389-.792-8.385-1.124.005-.332 8.399.122 8.403-.213.005-.334-8.389-.784-8.385-1.115.005-.333 8.399.113 8.404-.222.005-.336-8.389-.778-8.385-1.112.005-.335 8.399.104 8.404-.233.005-.337-8.39-.772-8.385-1.107.013-.942 8.41-1.554 8.402-2.483-.009-.948-8.422-1.981-8.454-2.905-.033-.942 8.308-2.02 8.252-2.947-.058-.947-8.499-1.487-8.581-2.409-.084-.941 8.166-2.536 8.056-3.461-.113-.944-8.555-.929-8.695-1.845-.143-.934 7.974-3.102 7.803-4.017-.174-.933-8.58-.297-8.784-1.2-.207-.92 7.717-3.713 7.479-4.612-.242-.916-8.559.409-8.833-.476-.279-.9 7.38-4.367 7.069-5.243-.316-.89-8.476 1.182-8.827.324-.355-.869 6.951-5.046 6.561-5.888-.395-.853-8.313 2.013-8.743 1.194-.435-.827 6.421-5.725 5.95-6.524-.475-.804-8.056 2.874-8.568 2.103-.403-.606 6.061-5.994 5.646-6.568-.426-.589-7.522 3.93-7.962 3.377-.451-.568 5.513-6.511 5.048-7.043-.477-.545-7.109 4.638-7.601 4.132-.504-.518 4.818-7.045 4.299-7.523-.531-.488-6.549 5.398-7.096 4.952-.558-.455 3.957-7.559 3.383-7.968-.584-.416-5.82 6.17-6.421 5.798-.609-.377 2.937-7.998 2.311-8.326-.632-.331-4.922 6.893-5.572 6.607-.652-.287 1.798-8.307 1.128-8.544-.668-.236-3.899 7.498-4.585 7.306-.682-.191.617-8.451-.083-8.592-.692-.14-2.825 7.94-3.535 7.841-.699-.097-.517-8.43-1.233-8.479-.703-.049-1.784 8.209-2.503 8.198-.675-.01-1.418-8.286-2.079-8.262-.674.024-.868 8.321-1.527 8.372-.672.053-2.23-8.088-2.886-8-.668.09.011 8.338-.64 8.458-.661.122-3.113-7.781-3.756-7.622-.652.162.982 8.257.348 8.45-.64.195-4.031-7.348-4.652-7.114-.625.235 2.006 8.056 1.4 8.324-.607.269-4.93-6.791-5.519-6.484-.588.306 3.022 7.732 2.453 8.072-.566.338-5.753-6.136-6.3-5.761-.542.371 3.97 7.304 3.446 7.709-.518.4-6.456-5.429-6.956-4.995-.492.427 4.804 6.812 4.329 7.272-.467.452-7.023-4.718-7.474-4.235-.442.473 5.506 6.296 5.08 6.8-.49.58-7.618-3.841-8.075-3.237-.456.602 6.027 5.879 5.604 6.508-.421.625-7.992-3.046-8.38-2.398-.385.641 6.632 5.244 6.279 5.912-.349.661-8.262-2.26-8.581-1.578-.314.673 7.133 4.601 6.849 5.3-.28.689-8.435-1.514-8.686-.805-.247.697 7.531 3.978 7.312 4.701-.215.71-8.525-.829-8.712-.101-.184.713 7.835 3.394 7.678 4.132-.155.723-8.55-.218-8.68.522-.127.725 8.061 2.863 7.958 3.611-.101.733-8.53.325-8.608 1.073-.076.731 8.225 2.385 8.171 3.139-.053.74-8.478.798-8.51 1.55-.031.737 8.341 1.962 8.33 2.72-.011.75-8.406 1.217-8.396 1.95.01.747 8.423 1.551 8.455 2.288.033.751-8.304 1.654-8.249 2.386.056.746 8.486 1.087 8.565 1.823.081.75-8.158 2.143-8.053 2.874.107.744 8.518.561 8.651 1.293.135.745-7.956 2.683-7.795 3.408.163.737 8.509-.034 8.699.69.193.735-7.684 3.27-7.463 3.983.224.724 8.442-.692 8.695.018.256.72-7.332 3.896-7.047 4.594.288.706 8.305-1.405 8.623-.715.321.697-6.893 4.541-6.541 5.217.354.681 8.086-2.156 8.47-1.492.386.667-6.368 5.184-5.95 5.83.418.648 7.781-2.919 8.231-2.289.391.548-5.9 5.621-5.493 6.14.416.53 7.268-3.824 7.701-3.323.442.511-5.238 6.217-4.779 6.697.468.489 6.743-4.596 7.23-4.141.494.463-4.431 6.814-3.918 7.244.519.436 6.071-5.393 6.609-4.994.543.403-3.487 7.366-2.925 7.735.565.371 5.258-6.163 5.844-5.829.585.334-2.452 7.822-1.846 8.122.602.299 4.348-6.846 4.971-6.585.617.259-1.387 8.149-.751 8.375.629.224 3.401-7.402 4.049-7.216.638.184-.364 8.338.293 8.492.645.151 2.481-7.819 3.144-7.704.649.113.569 8.407 1.235 8.493.652.088 1.631-8.103 2.3-8.053z"/></svg>