<?xml version="1.0" encoding="utf-8"?>
<!-- Generator: Adobe Illustrator 25.0.1, SVG Export Plug-In . SVG Version: 6.00 Build 0)  -->
<svg version="1.1" baseProfile="tiny" xmlns="http://www.w3.org/2000/svg" xmlns:xlink="http://www.w3.org/1999/xlink" x="0px"
	 y="0px" viewBox="0 0 256 256" overflow="visible" xml:space="preserve">
<g id="colors" display="none">
	
		<ellipse transform="matrix(0.025 -0.9997 0.9997 0.025 203.7937 232.3809)" display="inline" fill="#DEA500" cx="221.028" cy="11.714" rx="11.714" ry="11.715"/>
	<path display="inline" fill="#EDBA08" d="M209.486,11.714c0,6.47-5.244,11.714-11.716,11.714c-6.47,0-11.714-5.244-11.714-11.714
		C186.057,5.245,191.301,0,197.77,0C204.242,0,209.486,5.245,209.486,11.714z"/>
	<path display="inline" fill="#F0CB3C" d="M186.229,11.714c0,6.47-5.244,11.714-11.714,11.714c-6.47,0-11.715-5.244-11.715-11.714
		C162.8,5.245,168.045,0,174.515,0C180.984,0,186.229,5.245,186.229,11.714z"/>
	<path display="inline" fill="#F4DC5E" d="M162.972,11.714c0,6.47-5.244,11.714-11.714,11.714s-11.715-5.244-11.715-11.714
		c0-6.47,5.245-11.714,11.715-11.714S162.972,5.245,162.972,11.714z"/>
	<path display="inline" fill="#F9EC7E" d="M139.715,11.714c0,6.47-5.244,11.714-11.715,11.714c-6.47,0-11.714-5.244-11.714-11.714
		C116.286,5.245,121.53,0,127.999,0C134.471,0,139.715,5.245,139.715,11.714z"/>
	<path display="inline" fill="#938970" d="M23.43,11.715c0,6.469-5.244,11.713-11.715,11.713C5.245,23.428,0,18.184,0,11.715
		C0,5.245,5.245,0,11.715,0C18.185,0,23.43,5.245,23.43,11.715z"/>
	<path display="inline" fill="#FFFC9D" d="M116.457,11.715c0,6.47-5.244,11.714-11.715,11.714c-6.47,0-11.714-5.244-11.714-11.714
		C93.028,5.245,98.273,0,104.743,0C111.213,0,116.457,5.245,116.457,11.715z"/>
	<path display="inline" fill="#E6DD91" d="M93.201,11.714c0,6.47-5.244,11.714-11.715,11.714c-6.47,0-11.714-5.244-11.714-11.714
		C69.771,5.244,75.016,0,81.486,0C87.956,0,93.201,5.244,93.201,11.714z"/>
	<path display="inline" fill="#CBC086" d="M69.943,11.714c0,6.47-5.244,11.714-11.715,11.714c-6.47,0-11.714-5.244-11.714-11.714
		C46.514,5.244,51.759,0,58.229,0C64.699,0,69.943,5.244,69.943,11.714z"/>
	<path display="inline" fill="#B0A47B" d="M46.687,11.715c0,6.47-5.244,11.714-11.715,11.714c-6.47,0-11.714-5.244-11.714-11.714
		C23.257,5.245,28.502,0,34.972,0C41.442,0,46.687,5.245,46.687,11.715z"/>
	
		<ellipse transform="matrix(0.0119 -0.9999 0.9999 0.0119 229.6681 255.8425)" display="inline" fill="#993300" cx="244.285" cy="11.714" rx="11.714" ry="11.715"/>
</g>
<g id="A" display="none">
	<g>
		<rect display="inline" fill="none" width="256" height="256"/>
		<path display="inline" fill="#938970" d="M176.252,182.725H79.748L58.074,243H26.75l87.961-230.344h26.578L229.408,243h-31.166
			L176.252,182.725z M88.924,157.887h78.311L128,50.15L88.924,157.887z"/>
	</g>
	<path display="inline" fill="#E6DD91" d="M114.711,12.656 M141.289,12.656L229.408,243h-31.166l-21.99-60.275H79.748L58.074,243
		H26.75 M88.924,157.887h78.311L128,50.15L88.924,157.887z M26.75,243l87.961-230.344h26.578 M200.285,70.072L8,175.943
		l10.688,19.414L210.973,89.486L200.285,70.072z M222.32,89.446L53.109,182.613l10.68,17.084L233,106.529L222.32,89.446z
		 M231.766,16.76L62.555,109.926l9.405,17.084l169.21-93.167L231.766,16.76z M242.875,141.789L73.664,234.955l9.405,17.084
		l169.21-93.166L242.875,141.789z M172.211,46.303L3,139.469l9.406,17.084l169.209-93.167L172.211,46.303z M236.762,38.32
		L67.55,131.487l9.405,17.085l169.211-93.168L236.762,38.32z M187.766,7.96L18.555,101.127l9.405,17.084l169.21-93.167L187.766,7.96
		z M218.875,122.989L49.664,216.155l9.405,17.085l169.21-93.168L218.875,122.989z"/>
</g>
<g id="B" display="none">
	<g id="B_1_" display="inline">
		<rect fill="none" width="256" height="256"/>
		<path fill="#EDBA08" d="M53.882,243V12.656h75.305c24.996,0,43.795,5.169,56.399,15.504
			c12.602,10.337,18.905,25.629,18.905,45.879c0,10.758-3.061,20.277-9.176,28.556c-6.118,8.281-14.451,14.688-24.996,19.222
			c12.443,3.48,22.279,10.101,29.505,19.854c7.223,9.757,10.837,21.385,10.837,34.884c0,20.673-6.699,36.916-20.092,48.727
			C177.174,237.095,158.241,243,133.774,243H53.882z M84.257,110.9h45.879c13.289,0,23.913-3.327,31.878-9.986
			c7.962-6.66,11.944-15.697,11.944-27.112c0-12.684-3.693-21.906-11.074-27.666c-7.384-5.759-18.616-8.642-33.697-8.642h-44.93
			V110.9z M84.257,135.264v82.898h50.15c14.132,0,25.285-3.663,33.46-10.995c8.172-7.329,12.261-17.427,12.261-30.296
			c0-27.737-15.084-41.607-45.246-41.607H84.257z"/>
	</g>
	<path display="inline" fill="#CBC086" d="M53.882,243V12.656h75.305c24.996,0,43.795,5.169,56.399,15.504
		c12.602,10.337,18.905,25.629,18.905,45.879c0,10.758-3.061,20.277-9.176,28.556c-6.118,8.281-14.451,14.688-24.996,19.222
		c12.443,3.48,22.279,10.101,29.505,19.854c7.223,9.757,10.837,21.385,10.837,34.884c0,20.673-6.699,36.916-20.092,48.727
		C177.174,237.095,158.241,243,133.774,243H53.882z M84.257,110.9h45.879c13.289,0,23.913-3.327,31.878-9.986
		c7.962-6.66,11.944-15.697,11.944-27.112c0-12.684-3.693-21.906-11.074-27.666c-7.384-5.759-18.616-8.642-33.697-8.642h-44.93
		V110.9z M84.257,135.264v82.898h50.15c14.132,0,25.285-3.663,33.46-10.995c8.172-7.329,12.261-17.427,12.261-30.296
		c0-27.737-15.084-41.607-45.246-41.607H84.257z M96.41,59.499c-10.493,0-19,8.507-19,19c0,10.493,8.507,19,19,19
		c10.493,0,19-8.507,19-19C115.41,68.006,106.903,59.499,96.41,59.499z M59.445,26.513c-9.657,0-17.486,7.829-17.486,17.486
		c0,9.657,7.829,17.486,17.486,17.486c9.657,0,17.486-7.829,17.486-17.486C76.931,34.342,69.102,26.513,59.445,26.513z
		 M164.717,4.666c-15.479,0-28.027,12.549-28.027,28.028s12.549,28.028,28.027,28.028c15.48,0,28.029-12.549,28.029-28.028
		S180.197,4.666,164.717,4.666z M178.668,63.999c-10.494,0-19,8.507-19,19c0,10.493,8.506,19,19,19c10.492,0,19-8.507,19-19
		C197.668,72.506,189.16,63.999,178.668,63.999z M191.039,121.499c-9.609,0-17.4,7.79-17.4,17.4c0,9.609,7.791,17.399,17.4,17.399
		c9.609,0,17.4-7.79,17.4-17.399C208.439,129.289,200.648,121.499,191.039,121.499z M136.689,91.499
		c-7.469,0-13.522,6.054-13.522,13.521c0,7.468,6.054,13.521,13.522,13.521c7.467,0,13.521-6.054,13.521-13.521
		C150.211,97.553,144.156,91.499,136.689,91.499z M142.418,63.999c-6.215,0-11.251,5.037-11.251,11.25s5.036,11.25,11.251,11.25
		c6.213,0,11.25-5.037,11.25-11.25S148.631,63.999,142.418,63.999z M66.917,125.499c-9.803,0-17.75,7.947-17.75,17.75
		c0,9.803,7.947,17.75,17.75,17.75s17.75-7.947,17.75-17.75C84.667,133.446,76.72,125.499,66.917,125.499z M81.834,180.834
		c-19.606,0-35.5,15.893-35.5,35.5c0,19.606,15.894,35.5,35.5,35.5s35.5-15.894,35.5-35.5
		C117.333,196.727,101.439,180.834,81.834,180.834z M166.707,156.299c-16.578,0-30.018,13.439-30.018,30.018
		s13.439,30.018,30.018,30.018c16.578,0,30.018-13.439,30.018-30.018S183.285,156.299,166.707,156.299z M196.789,43.999
		c-3.176,0-5.75,2.574-5.75,5.75s2.574,5.75,5.75,5.75c3.176,0,5.75-2.574,5.75-5.75S199.965,43.999,196.789,43.999z M115.41,26.971
		c-4.702,0-8.514,3.812-8.514,8.514c0,4.702,3.812,8.514,8.514,8.514c4.702,0,8.514-3.812,8.514-8.514
		C123.924,30.783,120.112,26.971,115.41,26.971z M119.917,136.999c-6.213,0-11.25,5.037-11.25,11.25
		c0,6.213,5.037,11.25,11.25,11.25c6.213,0,11.25-5.037,11.25-11.25C131.167,142.036,126.13,136.999,119.917,136.999z M88.419,6.666
		c-6.346,0-11.488,5.144-11.488,11.489s5.143,11.489,11.488,11.489c6.346,0,11.49-5.144,11.49-11.489S94.765,6.666,88.419,6.666z
		 M112.659,163.787c-6.234,0-11.287,5.054-11.287,11.286c0,6.234,5.053,11.287,11.287,11.287c6.233,0,11.287-5.053,11.287-11.287
		C123.945,168.841,118.892,163.787,112.659,163.787z M94.417,109.499c-5.385,0-9.75,4.365-9.75,9.75c0,5.385,4.365,9.75,9.75,9.75
		c5.385,0,9.75-4.365,9.75-9.75C104.167,113.864,99.802,109.499,94.417,109.499z M96.91,160.999c-2.628,0-4.757,2.13-4.757,4.757
		c0,2.627,2.129,4.757,4.757,4.757c2.627,0,4.757-2.13,4.757-4.757C101.667,163.129,99.537,160.999,96.91,160.999z"/>
</g>
<g id="C" display="none">
	<g id="C_1_">
		<rect display="inline" fill="none" width="256" height="256"/>
		<path display="inline" fill="#938970" d="M218.729,169.91c-2.848,24.363-11.841,43.165-26.974,56.399
			c-15.136,13.237-35.255,19.854-60.354,19.854c-27.211,0-49.018-9.754-65.417-29.268c-16.401-19.511-24.601-45.614-24.601-78.311
			v-22.148c0-21.409,3.822-40.235,11.47-56.479c7.646-16.241,18.482-28.714,32.511-37.415c14.026-8.701,30.269-13.052,48.727-13.052
			c24.467,0,44.084,6.83,58.852,20.487c14.765,13.66,23.359,32.565,25.787,56.716h-30.533c-2.638-18.406-8.36-31.737-17.165-39.988
			c-8.808-8.251-21.12-12.377-36.94-12.377c-19.407,0-34.622,7.179-45.642,21.535c-11.022,14.357-16.532,34.78-16.532,61.274v22.326
			c0,25.019,5.221,44.917,15.662,59.694s25.048,22.166,43.822,22.166c16.873,0,29.821-3.821,38.839-11.47
			c9.018-7.646,15.002-20.962,17.956-39.946H218.729z"/>
	</g>
	<path display="inline" fill="#CBC086" d="M218.729,169.91c-2.848,24.363-11.841,43.165-26.974,56.399
		c-15.136,13.237-35.255,19.854-60.354,19.854c-27.211,0-49.018-9.754-65.417-29.268c-16.401-19.511-24.601-45.614-24.601-78.311
		v-22.148c0-21.409,3.822-40.235,11.47-56.479c7.646-16.241,18.482-28.714,32.511-37.415c14.026-8.701,30.268-13.052,48.726-13.052
		c24.467,0,44.084,6.83,58.852,20.487c14.765,13.66,23.359,32.565,25.787,56.716h-30.533c-2.638-18.406-8.36-31.737-17.165-39.988
		c-8.808-8.251-21.12-12.377-36.941-12.377c-19.407,0-34.622,7.179-45.642,21.535c-11.022,14.358-16.532,34.78-16.532,61.274v22.326
		c0,25.019,5.221,44.917,15.662,59.694c10.441,14.777,25.048,22.166,43.822,22.166c16.873,0,29.821-3.821,38.839-11.47
		c9.018-7.645,15.002-20.962,17.956-39.946H218.729z M46.342,64.931l7.729-12.997l-15.018,1.771l-9.972-11.367l-2.957,14.83
		l-13.893,5.972l13.19,7.395l1.386,15.058l11.109-10.26l14.75,3.335L46.342,64.931z M48.531,131.479l6.541-19.638l-19.566,6.753
		l-16.656-12.289L19.228,127L2.393,139.043l19.799,6.037l6.251,19.731l11.86-16.964L61,148L48.531,131.479z M84.347,50.375
		l8.951-16.907l-18.864,3.18L61.12,22.91l-2.806,18.924L41.135,50.25l17.131,8.516l2.696,18.939l13.393-13.661l18.846,3.288
		L84.347,50.375z M121.163,38.723l11.526-3.688l-9.938-6.905l0.054-12.101l-9.638,7.317l-11.492-3.791l3.981,11.428l-7.157,9.758
		l12.099-0.255l7.069,9.822L121.163,38.723z M143.963,50.615l3.092-5.006l-5.854,0.59l-3.806-4.488l-1.247,5.75l-5.444,2.232
		l5.083,2.963l0.44,5.868l4.389-3.918L146.333,56L143.963,50.615z M76.078,101.035l6.104-13.413l-14.359,3.314l-10.87-9.95
		l-1.285,14.68l-12.822,7.264l13.564,5.759l2.946,14.438l9.668-11.121l14.643,1.66L76.078,101.035z M55.364,183.892l3.18-19.678
		l-17.554,9.445l-17.732-9.105l3.559,19.613l-14.139,14.051l19.753,2.676l8.994,17.789l8.649-17.959l19.698-3.057L55.364,183.892z
		 M197.11,164.596l17.459-21.997l-28.08-0.478l-15.525-23.402l-9.131,26.558l-27.055,7.534l22.437,16.891l-1.195,28.059
		l22.998-16.118l26.315,9.807L197.11,164.596z M89.74,173.278l-19.585,2.846l14.172,13.815l-3.346,19.506l17.518-9.21l17.518,9.21
		l-3.346-19.506l14.172-13.815l-19.585-2.846l-8.759-17.747L89.74,173.278z M200.257,37.429l-16.835-5.156l8.773,15.266
		l-14.528,9.948l17.405,2.659l-1.28,17.56l12.931-11.95l12.931,11.95l-1.28-17.56l17.405-2.659l-14.528-9.948l8.773-15.266
		l-16.835,5.156l-6.466-16.377L200.257,37.429z"/>
</g>
<g id="D" display="none">
	<g id="D_1_">
		<rect display="inline" fill="none" width="256" height="256"/>
		<path display="inline" fill="#938970" d="M48.503,243V12.656h65.021c20.037,0,37.756,4.43,53.156,13.289
			c15.397,8.859,27.29,21.464,35.675,37.811c8.385,16.349,12.629,35.121,12.735,56.32v14.713c0,21.729-4.192,40.765-12.577,57.111
			c-8.385,16.35-20.356,28.899-35.912,37.652c-15.559,8.756-33.673,13.237-54.343,13.447H48.503z M78.878,37.494v180.668h31.957
			c23.414,0,41.632-7.282,54.659-21.85c13.024-14.566,19.538-35.312,19.538-62.23v-13.459c0-26.178-6.146-46.524-18.431-61.04
			c-12.288-14.515-29.718-21.876-52.286-22.089H78.878z"/>
	</g>
	<path display="inline" fill="#F0CB3C" d="M48.503,243V12.656h65.021c20.037,0,37.756,4.43,53.156,13.289
		c15.397,8.859,27.29,21.464,35.675,37.811c8.385,16.349,12.629,35.121,12.735,56.32v14.713c0,21.729-4.192,40.765-12.577,57.111
		c-8.385,16.35-20.357,28.899-35.912,37.652c-15.559,8.756-33.673,13.237-54.343,13.447H48.503z M78.878,37.494v180.668h31.957
		c23.414,0,41.632-7.282,54.659-21.85c13.025-14.566,19.538-35.311,19.538-62.23v-13.459c0-26.178-6.146-46.524-18.431-61.04
		c-12.288-14.515-29.718-21.876-52.286-22.089H78.878z M221.667,210.334L193.333,214L232,190.334l-52.667,9.332l57.667-50
		L140.797,202l93.536-86L43,242.334L224.091,90.667L48,218.666L218,70.334L45.667,188L206.333,54.667L50.667,162.334L191.333,38.333
		L39.667,131.667L161,32.333l-115.333,75l84.999-80.667L47.667,83L109,28.667l-61,36l39.334-41l-50,41"/>
</g>
<g id="E" display="none">
	<g id="E_1_">
		<rect display="inline" fill="none" width="256" height="256"/>
		<path display="inline" fill="#938970" d="M192.863,136.529H93.037v81.633H209V243H62.662V12.656h144.756v24.838H93.037v74.197
			h99.826V136.529z"/>
	</g>
	<path display="inline" fill="#CBC086" d="M192.863,136.529H93.037v81.633H209V243H62.662V12.656h144.756v24.838H93.037v74.197
		h99.826V136.529z M111.333,35c0-3.313-2.687-6-6-6H88.666c-3.313,0-6,2.687-6,6v16.667c0,3.313,2.687,6,6,6h16.667
		c3.313,0,6-2.687,6-6V35z M131.333,99c0-2.025-1.642-3.666-3.666-3.666H84c-2.025,0-3.666,1.642-3.666,3.666l0,0
		c0,2.025,1.642,3.666,3.666,3.666h43.666C129.691,102.666,131.333,101.025,131.333,99L131.333,99z M128,113.5
		c0-2.301-1.865-4.166-4.167-4.166h-30c-2.301,0-4.167,1.865-4.167,4.166l0,0c0,2.301,1.865,4.166,4.167,4.166h30
		C126.135,117.666,128,115.801,128,113.5L128,113.5z M202,112.334c0-3.314-2.687-6-6-6h-8c-3.314,0-6,2.686-6,6V137
		c0,3.314,2.686,6,6,6h8c3.313,0,6-2.686,6-6V112.334z M224.333,35c0-3.313-2.686-6-6-6H194c-3.314,0-6,2.687-6,6v2.333
		c0,3.314,2.686,6,6,6h24.333c3.314,0,6-2.686,6-6V35z M229.333,237.667c0-3.314-2.686-6-6-6H194c-3.314,0-6,2.686-6,6V242
		c0,3.314,2.686,6,6,6h29.333c3.314,0,6-2.686,6-6V237.667z M28.333,184.333c0,3.314,2.687,6,6,6h70.999c3.313,0,6-2.686,6-6v-12
		c0-3.313-2.687-6-6-6H34.333c-3.313,0-6,2.687-6,6V184.333z M73,130.667c0-3.314-2.687-6-6-6h-6.333c-3.313,0-6,2.686-6,6v20
		c0,3.313,2.687,6,6,6H67c3.313,0,6-2.687,6-6V130.667z M108.833,215.667c0-3.314-2.686-6-6-6H88.666c-3.313,0-6,2.686-6,6v4
		c0,3.313,2.687,6,6,6h14.167c3.314,0,6-2.687,6-6V215.667z M133.667,136c0-3.314-2.687-6-6-6H88.666c-3.313,0-6,2.686-6,6v5.667
		c0,3.313,2.687,6,6,6h39.001c3.313,0,6-2.687,6-6V136z M192,214c0-3.314-2.687-6-6-6h-27.333c-3.314,0-6,2.686-6,6v2.333
		c0,3.314,2.686,6,6,6H186c3.313,0,6-2.686,6-6V214z M138.333,199.333c0-3.313-2.686-6-6-6h-0.999c-3.314,0-6.001,2.687-6.001,6V242
		c0,3.314,2.687,6,6.001,6h0.999c3.314,0,6-2.686,6-6V199.333z M108.833,71.5c0-3.038-2.462-5.5-5.5-5.5H38.5
		c-3.038,0-5.5,2.462-5.5,5.5l0,0c0,3.038,2.462,5.5,5.5,5.5h64.833C106.371,77,108.833,74.538,108.833,71.5L108.833,71.5z M77,24
		c0-3.313-2.687-6-6-6H17.667c-3.314,0-6,2.687-6,6v0.333c0,3.313,2.686,6,6,6H71c3.313,0,6-2.687,6-6V24z M170.667,33.333
		c0-3.313-2.687-6-6-6h-1.334c-3.313,0-6,2.687-6,6V40c0,3.313,2.687,6,6,6h1.334c3.313,0,6-2.687,6-6V33.333z"/>
</g>
<g id="F" display="none">
	<g id="F_1_">
		<rect display="inline" fill="none" width="256" height="256"/>
		<path display="inline" fill="#938970" d="M192.23,141.275H95.568V243H65.193V12.656h142.699v24.838H95.568v78.943h96.662V141.275z
			"/>
	</g>
	<path display="inline" fill="#F4DC5E" d="M192.23,141.275H95.568V243H65.193V12.656h142.699v24.838H95.568v78.943h96.662V141.275z
		 M51,40c-14.912,0-27,18.356-27,41s12.088,41,27,41s27-18.356,27-41S65.912,40,51,40z M108.5,32C97.73,32,89,36.701,89,42.5
		S97.73,53,108.5,53S128,48.299,128,42.5S119.27,32,108.5,32z M122.5,103c-3.038,0-5.5,12.536-5.5,28s2.462,28,5.5,28
		c3.038,0,5.5-12.536,5.5-28S125.538,103,122.5,103z M62,153c-6.075,0-11,3.806-11,8.5s4.925,8.5,11,8.5s11-3.806,11-8.5
		S68.075,153,62,153z M96.5,161.5c-4.142,0-7.5,15.559-7.5,34.75S92.358,231,96.5,231s7.5-15.559,7.5-34.75
		S100.642,161.5,96.5,161.5z M178,27c-4.418,0-8,8.059-8,18s3.582,18,8,18s8-8.059,8-18S182.418,27,178,27z M192,103
		c-3.314,0-6,6.268-6,14s2.686,14,6,14c3.313,0,6-6.268,6-14S195.313,103,192,103z M162,131c-8.837,0-16,4.925-16,11s7.163,11,16,11
		s16-4.925,16-11S170.837,131,162,131z M68.5,9C62.149,9,57,11.686,57,15s5.149,6,11.5,6S80,18.313,80,15S74.851,9,68.5,9z M150,9
		c-16.937,0-30.667,2.239-30.667,5s13.73,5,30.667,5c16.938,0,30.667-2.239,30.667-5S166.938,9,150,9z M96.5,72.334
		c-2.669,0-4.833,3.731-4.833,8.333c0,4.602,2.164,8.333,4.833,8.333c2.669,0,4.833-3.731,4.833-8.333
		C101.333,76.064,99.169,72.334,96.5,72.334z M62.833,235.333c-5.615,0-10.167,2.761-10.167,6.167c0,3.406,4.552,6.167,10.167,6.167
		S73,244.906,73,241.5C73,238.094,68.448,235.333,62.833,235.333z M111.667,95c-2.946,0-5.334,2.388-5.334,5.333
		c0,2.946,2.388,5.333,5.334,5.333c2.945,0,5.333-2.388,5.333-5.333C117,97.388,114.612,95,111.667,95z M51.833,131
		c-3.038,0-5.5,2.463-5.5,5.5s2.462,5.5,5.5,5.5s5.5-2.463,5.5-5.5S54.871,131,51.833,131z M138.334,108.334
		c-2.025,0-3.667,1.642-3.667,3.666s1.642,3.666,3.667,3.666c2.024,0,3.666-1.642,3.666-3.666S140.358,108.334,138.334,108.334z
		 M149.834,32c-4.327,0-7.834,2.351-7.834,5.25s3.507,5.25,7.834,5.25c4.326,0,7.833-2.351,7.833-5.25S154.16,32,149.834,32z
		 M207.667,9c-2.393,0-4.333,2.686-4.333,6s1.94,6,4.333,6c2.393,0,4.333-2.687,4.333-6S210.06,9,207.667,9z M208.5,32
		c-2.853,0-5.166,2.351-5.166,5.25s2.313,5.25,5.166,5.25c2.854,0,5.167-2.351,5.167-5.25S211.354,32,208.5,32z M192,138.333
		c-3.314,0-6,2.836-6,6.333c0,3.498,2.686,6.334,6,6.334c3.313,0,6-2.836,6-6.334C198,141.169,195.313,138.333,192,138.333z"/>
</g>
<g id="G" display="none">
	<g display="inline">
		<rect fill="none" width="256" height="256"/>
		<path fill="#EDBA08" d="M214.458,212.783c-7.807,11.181-18.695,19.538-32.669,25.075c-13.977,5.537-30.244,8.306-48.806,8.306
			c-18.774,0-35.438-4.402-49.992-13.21c-14.555-8.805-25.814-21.33-33.776-37.573c-7.964-16.24-12.051-35.066-12.261-56.479
			v-20.092c0-34.698,8.093-61.593,24.284-80.684c16.188-19.088,38.943-28.635,68.265-28.635c24.047,0,43.399,6.145,58.061,18.431
			c14.658,12.288,23.624,29.717,26.895,52.286h-30.375c-5.695-30.585-23.837-45.879-54.422-45.879
			c-20.356,0-35.781,7.154-46.274,21.456c-10.496,14.303-15.795,35.02-15.899,62.147v18.841c0,25.861,5.905,46.42,17.719,61.672
			c11.811,15.254,27.79,22.88,47.936,22.88c11.391,0,21.357-1.261,29.9-3.787s15.607-6.788,21.199-12.785v-51.613h-53.314v-24.838
			h83.531V212.783z"/>
	</g>
	<path display="inline" fill="#B0A47B" d="M214.458,212.783c-7.807,11.181-18.695,19.538-32.669,25.075
		c-13.977,5.537-30.244,8.306-48.806,8.306c-18.774,0-35.438-4.402-49.992-13.21c-14.555-8.805-25.814-21.33-33.776-37.573
		c-7.964-16.24-12.051-35.066-12.261-56.479v-20.092c0-34.698,8.093-61.593,24.284-80.684
		c16.189-19.088,38.943-28.635,68.265-28.635c24.047,0,43.399,6.145,58.061,18.431c14.658,12.288,23.624,29.717,26.895,52.286
		h-30.375c-5.695-30.585-23.837-45.879-54.422-45.879c-20.356,0-35.781,7.154-46.274,21.456
		c-10.496,14.303-15.795,35.02-15.899,62.147v18.841c0,25.861,5.905,46.42,17.719,61.672c11.811,15.254,27.789,22.88,47.936,22.88
		c11.391,0,21.357-1.261,29.9-3.787c8.543-2.526,15.607-6.788,21.199-12.785v-51.613h-53.314v-24.838h83.531V212.783z
		 M150.131,12.493c-2.503,5.205,78.811,44.353,64.608,49.349C200.537,66.837,105.634,3.091,90.74,1.096
		C75.847-0.899,182.379,95.98,204.761,98.925C256,105.666,22.667-23.333,53.932,6.814C61.046,13.674,175,122.666,226.004,153.782
		C240.054,162.354,6.653,30.138,19,37.667C73.666,71,121.645,118.353,121.645,118.353 M121.646,214.142
		c0,0-101.187-80.492-93.662-68.142c49.35,81,255.017,93.667,198.02,103.571C209.788,252.39,63.023,106.48,53.933,102.604
		c-104.6-44.604,139.84,77.811,154.4,95.064C248,244.667,54.292,61.508,90.741,96.885c10.782,10.465,109.796,65.741,123.999,60.746
		c26.818-9.434-80.791-15.698-64.609-49.349"/>
</g>
<g id="H" display="none">
	<g id="H_1_">
		<rect display="inline" fill="none" width="256" height="256"/>
		<path display="inline" fill="#993300" d="M216.277,243h-30.533V136.529H69.623V243H39.248V12.656h30.375v99.035h116.121V12.656
			h30.533V243z"/>
	</g>
	<path display="inline" fill="#EDBA08" d="M216.277,243h-30.533V136.529H69.623V243H39.248V12.656h30.375v99.035h116.121V12.656
		h30.533V243z M54.833,22.333c-3.038,0-5.5,2.462-5.5,5.5s2.462,5.5,5.5,5.5s5.5-2.462,5.5-5.5S57.871,22.333,54.833,22.333z M53,52
		c-3.682,0-6.667,2.985-6.667,6.667c0,3.682,2.985,6.667,6.667,6.667c3.682,0,6.667-2.985,6.667-6.667
		C59.667,54.985,56.682,52,53,52z M44.667,85.5c0,3.59,2.91,6.5,6.5,6.5s6.5-2.91,6.5-6.5s-2.91-6.5-6.5-6.5
		S44.667,81.91,44.667,85.5z M58,108c-5.523,0-10,4.477-10,10s4.477,10,10,10s10-4.477,10-10S63.523,108,58,108z M112.167,121.666
		c-1.749,0-3.167,1.418-3.167,3.167c0,1.749,1.418,3.167,3.167,3.167c1.748,0,3.166-1.418,3.166-3.167
		C115.333,123.085,113.915,121.666,112.167,121.666z M158.08,116.334c-3.174,0-5.747,2.573-5.747,5.748
		c0,3.174,2.573,5.747,5.747,5.747c3.175,0,5.748-2.573,5.748-5.747C163.828,118.907,161.255,116.334,158.08,116.334z M183,118
		c-4.603,0-8.333,3.731-8.333,8.333c0,4.603,3.73,8.333,8.333,8.333c4.602,0,8.333-3.73,8.333-8.333
		C191.333,121.731,187.602,118,183,118z M201.5,17c-4.511,0-8.167,3.656-8.167,8.167c0,4.51,3.656,8.167,8.167,8.167
		c4.51,0,8.166-3.656,8.166-8.167C209.666,20.656,206.01,17,201.5,17z M199,43.333c-4.234,0-7.667,3.433-7.667,7.667
		c0,4.234,3.433,7.667,7.667,7.667c4.233,0,7.666-3.433,7.666-7.667C206.666,46.766,203.233,43.333,199,43.333z M213.666,79
		c-6.72,0-12.166,5.447-12.166,12.167c0,6.719,5.446,12.167,12.166,12.167c6.72,0,12.167-5.447,12.167-12.167
		C225.833,84.447,220.386,79,213.666,79z M212.5,120c-6.075,0-11,4.925-11,11c0,6.075,4.925,11,11,11c6.075,0,11-4.925,11-11
		C223.5,124.925,218.575,120,212.5,120z M172.666,134.666c-2.945,0-5.333,2.388-5.333,5.334c0,2.945,2.388,5.333,5.333,5.333
		c2.946,0,5.334-2.388,5.334-5.333C178,137.054,175.612,134.666,172.666,134.666z M153,149.333c-4.05,0-7.333,3.283-7.333,7.333
		s3.283,7.333,7.333,7.333c4.05,0,7.333-3.283,7.333-7.333S157.05,149.333,153,149.333z M172.666,173
		c-2.945,0-5.333,2.388-5.333,5.334c0,2.945,2.388,5.333,5.333,5.333c2.946,0,5.334-2.388,5.334-5.333
		C178,175.388,175.612,173,172.666,173z M180.333,219.333c-2.209,0-4,1.791-4,4c0,2.209,1.791,4,4,4c2.209,0,4-1.791,4-4
		C184.333,221.124,182.542,219.333,180.333,219.333z M103.75,92c-4.648,0-8.416,3.768-8.416,8.416c0,4.648,3.768,8.417,8.416,8.417
		s8.417-3.768,8.417-8.417C112.167,95.768,108.398,92,103.75,92z M75.834,87.334c-6.351,0-11.5,5.149-11.5,11.5
		c0,6.351,5.149,11.5,11.5,11.5c6.351,0,11.5-5.149,11.5-11.5C87.334,92.482,82.185,87.334,75.834,87.334z M71.667,52
		c-4.05,0-7.333,3.283-7.333,7.333c0,4.05,3.283,7.333,7.333,7.333c4.05,0,7.333-3.283,7.333-7.333C79,55.283,75.717,52,71.667,52z
		 M86.166,42c-1.933,0-3.5,1.567-3.5,3.5s1.567,3.5,3.5,3.5c1.933,0,3.5-1.567,3.5-3.5S88.1,42,86.166,42z M70.834,229
		c-3.59,0-6.5,2.91-6.5,6.5s2.91,6.5,6.5,6.5c3.59,0,6.5-2.91,6.5-6.5S74.423,229,70.834,229z M37,221.333
		c-5.155,0-9.333,4.179-9.333,9.333c0,5.155,4.179,9.334,9.333,9.334s9.333-4.179,9.333-9.334
		C46.333,225.512,42.155,221.333,37,221.333z M30.667,210.667c-1.657,0-3,1.343-3,3c0,1.657,1.343,3,3,3s3-1.343,3-3
		C33.667,212.01,32.323,210.667,30.667,210.667z M82.166,144c-3.498,0-6.333,2.835-6.333,6.333c0,3.498,2.835,6.333,6.333,6.333
		c3.498,0,6.333-2.835,6.333-6.333C88.499,146.835,85.664,144,82.166,144z M110.917,131c-3.958,0-7.167,3.209-7.167,7.166
		c0,3.958,3.209,7.167,7.167,7.167c3.957,0,7.166-3.209,7.166-7.167C118.083,134.209,114.874,131,110.917,131z M37,9.411
		c-4.191,0-7.588,3.397-7.588,7.589c0,4.191,3.398,7.588,7.588,7.588c4.191,0,7.589-3.397,7.589-7.588
		C44.589,12.809,41.191,9.411,37,9.411z M39.916,138.166c-5.108,0-9.25,4.142-9.25,9.25s4.141,9.25,9.25,9.25
		c5.109,0,9.25-4.142,9.25-9.25S45.025,138.166,39.916,138.166z M68.5,178.334c-7.548,0-13.667,6.118-13.667,13.666
		s6.119,13.667,13.667,13.667c7.548,0,13.667-6.119,13.667-13.667S76.048,178.334,68.5,178.334z M177.833,98.834
		c-2.854,0-5.167,2.313-5.167,5.166s2.313,5.167,5.167,5.167S183,106.854,183,104S180.686,98.834,177.833,98.834z M185.667,80.334
		c-3.773,0-6.833,3.06-6.833,6.833c0,3.773,3.06,6.833,6.833,6.833c3.774,0,6.833-3.06,6.833-6.833
		C192.5,83.393,189.441,80.334,185.667,80.334z M200.833,154c-5.247,0-9.5,4.253-9.5,9.5s4.253,9.5,9.5,9.5s9.5-4.253,9.5-9.5
		S206.08,154,200.833,154z M220.666,183.667c-6.075,0-11,4.925-11,11c0,6.075,4.925,11,11,11c6.075,0,11-4.925,11-11
		C231.666,188.592,226.741,183.667,220.666,183.667z M52.833,166.667c-2.669,0-4.833,2.164-4.833,4.833
		c0,2.67,2.164,4.834,4.833,4.834c2.669,0,4.833-2.164,4.833-4.834C57.667,168.831,55.502,166.667,52.833,166.667z M171.166,195.333
		c-4.234,0-7.667,3.433-7.667,7.667s3.433,7.667,7.667,7.667c4.234,0,7.667-3.433,7.667-7.667S175.4,195.333,171.166,195.333z"/>
</g>
<g id="I" display="none">
	<g id="I_1_">
		<rect display="inline" fill="none" width="256" height="256"/>
		<path display="inline" fill="#938970" d="M143.267,243h-30.375V12.656h30.375V243z"/>
	</g>
	<path display="inline" fill="#E6DD91" d="M143.267,243h-30.375V12.656h30.375V243z M105.176,41.846
		c1.359,1.799,3.918,2.156,5.717,0.797c2.249-1.699,2.695-4.899,0.996-7.147c-2.123-2.811-6.122-3.369-8.934-1.245
		c-3.513,2.654-4.21,7.654-1.557,11.167c3.317,4.392,9.568,5.263,13.959,1.945c5.49-4.146,6.58-11.958,2.433-17.449
		c-5.184-6.862-14.949-8.224-21.812-3.04c-8.577,6.479-10.279,18.686-3.8,27.263c8.1,10.723,23.357,12.85,34.08,4.751
		c13.403-10.124,16.062-29.197,5.938-42.6 M138.639,79.782c-2.367,0.059-4.239,2.025-4.181,4.393c0.073,2.96,2.531,5.3,5.491,5.227
		c3.699-0.091,6.624-3.165,6.533-6.864c-0.114-4.624-3.956-8.28-8.58-8.166c-5.78,0.143-10.351,4.944-10.208,10.724
		c0.178,7.226,6.18,12.939,13.405,12.761c9.032-0.223,16.174-7.726,15.951-16.757c-0.279-11.29-9.657-20.217-20.947-19.938
		c-14.112,0.348-25.271,12.071-24.922,26.183c0.436,17.641,15.089,31.588,32.729,31.153 M112.319,124.134
		c-0.815,1.191-0.511,2.817,0.68,3.633c1.489,1.019,3.522,0.638,4.541-0.851c1.274-1.861,0.798-4.402-1.063-5.676
		c-2.327-1.592-5.503-0.997-7.096,1.329c-1.991,2.908-1.247,6.878,1.661,8.87c3.635,2.488,8.599,1.559,11.087-2.076
		c3.11-4.544,1.949-10.748-2.595-13.858c-5.68-3.888-13.436-2.436-17.323,3.244c-4.86,7.099-3.045,16.794,4.055,21.654
		c8.874,6.075,20.993,3.806,27.068-5.068 M119.67,163.241c-0.766,1.354-0.289,3.072,1.065,3.838c1.692,0.958,3.84,0.362,4.798-1.331
		c1.197-2.115,0.452-4.801-1.664-5.997c-2.645-1.496-6.001-0.566-7.497,2.079c-1.87,3.307-0.706,7.502,2.6,9.372
		c4.132,2.337,9.377,0.883,11.714-3.25c2.922-5.165,1.104-11.721-4.062-14.643c-6.457-3.652-14.651-1.379-18.304,5.077
		c-4.565,8.071-1.724,18.314,6.347,22.88c10.088,5.707,22.893,2.155,28.6-7.934 M125.357,222.329
		c0.766-0.676,0.84-1.844,0.165-2.609c-0.844-0.958-2.305-1.05-3.262-0.206c-1.197,1.055-1.312,2.881-0.257,4.077
		c1.318,1.496,3.6,1.64,5.096,0.321c1.87-1.648,2.05-4.501,0.401-6.37c-2.061-2.338-5.626-2.562-7.963-0.502
		c-2.922,2.575-3.202,7.032-0.627,9.954c3.22,3.652,8.791,4.003,12.443,0.783c4.565-4.024,5.004-10.987,0.979-15.553
		c-5.03-5.707-13.735-6.255-19.441-1.225"/>
</g>
<g id="J" display="none">
	<g id="J_1_">
		<rect display="inline" fill="none" width="256" height="256"/>
		<path display="inline" fill="#938970" d="M161.855,12.656h30.533v163.107c0,22.045-6.62,39.289-19.854,51.732
			c-13.237,12.446-30.877,18.668-52.919,18.668c-22.888,0-40.712-5.854-53.473-17.561C53.38,216.896,47,200.498,47,179.402h30.375
			c0,13.186,3.611,23.469,10.837,30.85c7.223,7.384,17.691,11.074,31.403,11.074c12.55,0,22.702-3.955,30.454-11.865
			s11.68-18.984,11.786-33.223V12.656z"/>
	</g>
	<path display="inline" fill="#EDBA08" d="M161.855,12.656h30.533v163.107c0,22.045-6.62,39.289-19.855,51.732
		c-13.237,12.446-30.877,18.668-52.919,18.668c-22.888,0-40.712-5.854-53.473-17.561C53.38,216.896,47,200.498,47,179.402h30.375
		c0,13.186,3.611,23.469,10.837,30.85c7.223,7.384,17.691,11.074,31.403,11.074c12.55,0,22.702-3.955,30.454-11.865
		c7.752-7.91,11.68-18.984,11.786-33.223V12.656z M166.572,51.238c-4.568-0.559-10.02,13.283-12.178,30.917
		c-2.157,17.633-0.202,32.381,4.365,32.94c4.568,0.559,10.021-13.283,12.179-30.916C173.096,66.545,171.141,51.797,166.572,51.238z
		 M184.033,104.571c-4.568-0.559-9.752,11.089-11.578,26.017c-1.826,14.928,0.397,27.48,4.965,28.039
		c4.568,0.559,9.753-11.088,11.579-26.016C190.825,117.684,188.602,105.13,184.033,104.571z M195.365,16.504
		c-1.86-0.228-4.7,10.48-6.345,23.917c-1.643,13.437-1.468,24.514,0.393,24.741c1.859,0.228,4.701-10.48,6.345-23.917
		C197.401,27.809,197.226,16.732,195.365,16.504z M67.239,167.904c-4.568-0.559-10.021,13.283-12.178,30.917
		c-2.157,17.634-0.202,32.382,4.365,32.94c4.568,0.559,10.021-13.283,12.179-30.917C73.762,183.211,71.807,168.463,67.239,167.904z
		 M189.51,162.482c-5.92-0.725-12.562,13.744-14.834,32.317c-2.273,18.573,0.686,34.217,6.605,34.94
		c5.922,0.725,12.564-13.745,14.837-32.317C198.391,178.85,195.432,163.207,189.51,162.482z M165.459,129.424
		c-3.494-0.428-7.576,9.448-9.119,22.059c-1.543,12.611,0.039,23.18,3.531,23.607c3.494,0.428,7.577-9.449,9.121-22.059
		C170.534,140.42,168.952,129.851,165.459,129.424z M151.261,198.881c-2.35-0.287-5.552,10.062-7.149,23.118
		c-1.597,13.056-0.984,23.872,1.365,24.159c2.352,0.287,5.553-10.062,7.15-23.117C154.225,209.985,153.612,199.17,151.261,198.881z
		 M95.572,192.125c-4.568-0.559-10.021,13.283-12.178,30.918c-2.157,17.634-0.202,32.382,4.365,32.94
		c4.568,0.559,10.021-13.283,12.179-30.917C102.095,207.433,100.14,192.685,95.572,192.125z"/>
</g>
<g id="K" display="none">
	<g id="K_1_">
		<rect display="inline" fill="none" width="256" height="256"/>
		<path display="inline" fill="#938970" d="M111.705,135.896l-28.16,29.268V243H53.17V12.656h30.375v113.906L185.902,12.656h36.703
			l-90.65,101.725L229.725,243h-36.387L111.705,135.896z"/>
	</g>
	<path display="inline" fill="#938970" d="M111.705,135.896l-28.16,29.268V243H53.17V12.656h30.375v113.906L185.902,12.656h36.703
		l-90.65,101.725L229.725,243h-36.387L111.705,135.896z M49.333,25.333c0,37.586,9.989,68,22.333,68 M42.667,117
		c11.976,0,21.667-25.793,21.667-57.667 M46.514,93.334c0,38.507,9.312,69.666,20.819,69.666 M23.257,218.333
		c25.71,0,46.514-37.123,46.514-83 M42.667,163c0,32.795,11.033,59.333,24.667,59.333 M60.5,128.167
		c-9.857,0-17.833,44.95-17.833,100.5 M71.666,165c0-70.382-12.971-127.333-29-127.333 M190.667,10.333
		c0,6.703,15.666,12.127,35.025,12.127 M218.333,27.667c-44.587,0-80.666,13.269-80.666,29.667 M141.447,88.167
		c28.126,0,50.886-21.246,50.886-47.5 M164.667,95.334c-41.087,0-74.334,24.152-74.334,53.999 M166.891,149.333
		C142.631,149.333,123,156.34,123,165 M166.891,175c-14.063,0-25.443,5.367-25.443,12 M169.667,198.667
		c-16.556,0-29.952,8.796-29.952,19.666 M190.667,214c-23.952,0-43.334,8.945-43.334,20 M78.666,187c0,24.32,6.423,44,14.362,44"/>
</g>
<g id="L" display="none">
	<g>
		<rect display="inline" fill="none" width="256" height="256"/>
		<path display="inline" fill="#938970" d="M98.1,218.162h109.16V243H67.566V12.656H98.1V218.162z"/>
	</g>
	<path display="inline" fill="#B0A47B" d="M98.1,218.162h109.16V243H67.566V12.656H98.1V218.162z M141.426,160.412l-81.318,81.316
		l3.953,8.776l94.336-91.978L141.426,160.412z M81.722,93.086l-35.779,35.78l1.739,3.86l41.507-40.469L81.722,93.086z
		 M100.996,104.352l-39.562,39.564l1.923,4.267l45.896-44.747L100.996,104.352z M105.147,14.167L39.981,79.331l3.168,7.033
		l75.597-73.707L105.147,14.167z M83.657,200.699L56.28,228.074l1.331,2.955l31.758-30.965L83.657,200.699z M170.148,209.368
		l-40.336,40.335l1.961,4.354l46.793-45.623L170.148,209.368z M113.161,41.675L72.825,82.01l1.961,4.353l46.793-45.623
		L113.161,41.675z M76.066,155.375l-40.335,40.336l1.961,4.354l46.792-45.623L76.066,155.375z M117.407,145.674L77.071,186.01
		l1.961,4.354l46.792-45.623L117.407,145.674z M225.445,209.152l-40.336,40.335l1.961,4.354l46.793-45.623L225.445,209.152z"/>
</g>
<g id="M" display="none">
	<g id="M_1_">
		<rect x="-13.833" display="inline" fill="none" width="283.668" height="256"/>
		<path display="inline" fill="#938970" d="M52.537,12.656l75.305,187.945l75.304-187.945h39.393V243h-30.375v-89.701l2.848-96.82
			L139.391,243h-23.255L40.672,56.953l3.006,96.346V243H13.303V12.656H52.537z"/>
	</g>
	<g display="inline">
		<path fill="#F4DC5E" d="M74,3.247c25.798,35.963,34.1,88.331,40.49,141.192c2.862,19.879,5.56,40.047,9.863,59.974
			c2.857-11.899,5.418-22.494,8.61-34.808c7.179-27.704,14.006-54.939,21.861-81.25c7.81-29.381,18.488-56.611,29.596-81.358
			c8.582,4.583,19.155,6.91,28.167,12.253c-2.046,5.061-3.921,10.186-4.735,15.633c-17.01,50.237-24.126,107.161-6.547,156.624
			c-3.986,9.124-8.585,19.184-14.467,27.262c-16.414-53.568-13.642-115.083-1.688-167.047
			c-7.003,14.828-12.373,30.086-17.534,48.222c-12.712,40.826-19.555,90.242-31.43,137.209c-0.882,4.65-0.694,10.698-2.807,12.423
			c-5.33,3.544-11.948,1.783-18.325,0.324c-3.458-17.378-7.898-35.725-10.059-54.646c-2.307-17.433-3.695-34.283-6.232-50.952
			c-4.162-37.12-10.861-71.33-24.629-99.447c6.889,40.794,7.471,81.552,1.445,119.695c-2.509,14.676-3.465,34.007-7.993,48.793
			c-4.637-8.203-9.717-12.661-12.907-21.802c1.38-5.052,2.62-10.161,3.157-16.196c9.088-51.516,10.849-103.332-14.427-156.146
			C52.97,12.342,64.009,6.931,74,3.247L74,3.247z"/>
	</g>
</g>
<g id="N" display="none">
	<g id="M_3_">
		<rect x="-13.833" display="inline" fill="none" width="283.668" height="256"/>
		<path display="inline" fill="#938970" d="M216.277,243h-30.533L69.781,65.496V243H39.248V12.656h30.533l116.279,178.295V12.656
			h30.217V243z"/>
	</g>
	<g display="inline">
		<path fill="#DEA500" d="M219.586,247.548c-56.766-31.371-63.825-59.706-72.589-62.581C123.423,138.343,105,110.143,67.465,63.228
			c19.113,61.101,19.113,103.486,0,182.983c19.113-35.725-2.92-30.895-31.706-15.074c28.786-61.375,28.786-90.239,0-124.607
			c28.786-16.229,28.786-37.961,0-93.823C64.545,33.342,89.025,47.567,77.15,23.21c41.884,70.369,67.609,109.815,111.06,170.291
			c-17.725-48.819-17.725-76.61,0-119.972c-17.725,7.835-24.591-53.808,31.376-65.17c-19.664,41.869-27.297,103.532,0,112.422
			C192.289,151.303,192.289,180.666,219.586,247.548z"/>
	</g>
</g>
<g id="O" display="none">
	<g id="O_1_">
		<rect x="-13.833" display="inline" fill="none" width="283.668" height="256"/>
		<path display="inline" fill="#938970" d="M220.549,135.264c0,22.571-3.797,42.268-11.391,59.089
			c-7.594,16.824-18.352,29.663-32.273,38.522s-30.166,13.289-48.726,13.289c-18.142,0-34.227-4.454-48.252-13.368
			c-14.028-8.911-24.917-21.619-32.669-38.127c-7.752-16.505-11.734-35.62-11.944-57.349v-16.611
			c0-22.148,3.849-41.711,11.549-58.693c7.698-16.979,18.589-29.979,32.669-38.997S109.7,9.492,127.842,9.492
			c18.455,0,34.724,4.457,48.804,13.368c14.08,8.914,24.918,21.832,32.512,38.76s11.391,36.624,11.391,59.089V135.264z
			 M190.332,120.393c0-27.315-5.486-48.277-16.453-62.886c-10.971-14.606-26.316-21.911-46.037-21.911
			c-19.197,0-34.306,7.305-45.326,21.911c-11.022,14.609-16.69,34.884-17.007,60.829v16.928c0,26.475,5.562,47.278,16.69,62.411
			c11.126,15.136,26.445,22.702,45.958,22.702c19.617,0,34.804-7.144,45.562-21.437c10.758-14.29,16.295-34.777,16.611-61.462
			V120.393z"/>
	</g>
	<g display="inline">
		<path fill="#FFFC9D" d="M202.814,140.944c-4.43-0.342-3.697,42.162-2.628,62.956c-12.976-13.577-17.665-3.166-45.098,8.232
			c-5.909,15.688-19.01,6.936-11.957,21.381c-19.767-18.506-39.519-12.457-57.002-34.033c-10.308,0.273-21.722-14.532-41.583-16.95
			c-3.183-4.634-11.659-29.383,6.987-31.504c-17.516-9.893-6.132-37.692-14.858-47.059c14.678-8.694-2.894-7.098,32.859-20.465
			c-18.253-14.286,6.925-54.257,5.628-50.457c19.317-6.929,23.687,11.211,38.298-3.369c15.399,11.337,45.536,0.231,49.721,6.044
			c31.953,21.363,40.473,11.522,26.721,19.932c17.27,9.809,4.322,55.882,17.026,54.138
			C201.36,130.753,196.814,123.857,202.814,140.944z M178.383,126.416c-2.984-39.812-5.067-38.606-9.495-46.784
			c-13.895-35.013-24.18-42.133-51.763-39.321c-12.621,6.162-25.111,2.712-19.052,26.845c-12.261-1.593-21.021,24.032-24.763,36.143
			c1.372,6.336,0.138,18.403-8.647,27.857c2.452,31.021,3.997,43.138,26.478,69.727c-2.011,5.597,19.139,1.964,30.432-5.35
			c27.152,8.43,26.395,16.83,55.387,5.483c-7.396-12.062,7.984-52.367-0.96-66.687C180.666,135.116,174.341,113.076,178.383,126.416
			z"/>
	</g>
</g>
<g id="P" display="none">
	<g id="P_1_">
		<rect x="-13.833" display="inline" fill="none" width="283.668" height="256"/>
		<path display="inline" fill="#938970" d="M82.912,152.824V243H52.537V12.656h84.955c25.205,0,44.953,6.435,59.246,19.301
			c14.291,12.869,21.438,29.9,21.438,51.1c0,22.361-6.988,39.578-20.963,51.653c-13.977,12.078-33.988,18.114-60.037,18.114H82.912z
			 M82.912,127.986h54.58c16.24,0,28.686-3.829,37.336-11.489c8.646-7.658,12.973-18.728,12.973-33.203
			c0-13.734-4.326-24.722-12.973-32.963c-8.65-8.242-20.516-12.521-35.596-12.837h-56.32V127.986z"/>
	</g>
	<path display="inline" fill="#E6DD91" d="M81,148c-2,31-3,63,0,94c-10-1-19,1-29,1c-1-12-1-25-2-37c-2-64,9-129,3-193
		c35-2,69-2,104,1c15,2,28,7,40,17c1,2,3,3,5,5c10,11,16,24,18,39c1,15-1,29-6,43c-3,6-7,12-12,17c-16,15-37,22-59,19
		C122,151,102,151,81,148L81,148z M83,123c20,2,39,3,59,6c12,2,24-1,34-8c1-2,3-3,5-5c16-19,14-49-4-66c-8-7-19-10-29-12
		c-21-2-41-3-62-2C89,65,86,94,83,123L83,123z M95,104c-3,2-4,5-2,9c3,3,7,6,11,5s8-4,10-8c3-11-8-20-19-18c-11,3-16,13-15,23
		c2,10,11,16,21,18c16,3,29-9,32-24c2-13-4-25-15-33c-7-4-14-7-22-6c-5,0-10-1-14,1c-5,3-10,5-15,9c-20,17-22,48-6,68
		c10,11,22,19,37,22c20,3,42-2,56-17"/>
</g>
<g id="Q" display="none">
	<g id="Q_1_">
		<rect x="-13.833" display="inline" fill="none" width="283.668" height="256"/>
		<path display="inline" fill="#938970" d="M219.283,135.264c0,22.255-3.535,41.425-10.6,57.507
			c-7.068,16.085-16.982,28.662-29.742,37.731l41.133,32.273l-20.725,19.143l-48.568-38.602c-7.594,1.898-15.611,2.848-24.046,2.848
			c-18.142,0-34.227-4.454-48.252-13.368c-14.028-8.911-24.917-21.619-32.669-38.127c-7.752-16.505-11.734-35.62-11.944-57.349
			v-16.611c0-22.148,3.849-41.711,11.549-58.693c7.698-16.979,18.589-29.979,32.669-38.997s30.189-13.526,48.332-13.526
			c18.56,0,34.882,4.484,48.962,13.447c14.08,8.966,24.918,21.859,32.512,38.681c7.594,16.824,11.391,36.466,11.391,58.931V135.264z
			 M188.908,120.393c0-27.104-5.406-48.015-16.217-62.728c-10.812-14.713-26.236-22.069-46.273-22.069
			c-19.091,0-34.147,7.305-45.167,21.911c-11.022,14.609-16.69,34.884-17.007,60.829v16.928c0,26.368,5.51,47.145,16.532,62.332
			c11.02,15.188,26.341,22.781,45.958,22.781c19.617,0,34.804-7.144,45.562-21.437c10.758-14.29,16.295-34.777,16.611-61.462
			V120.393z"/>
	</g>
	<g display="inline">
		<path fill="#E6DD91" d="M207.424,130.315c1.306,22.372-1.528,38.642-3.081,57.921c0.405,23.069-9.306,35.63-22.639,43.107
			c-8.454-12.274,33.474,16.945,36.102,8.506c-6.56,11.268-42.478,13.482-46.076-3.022c2.816,1.337-20.787,5.89-32.22-7.421
			c-2.165,7.42-8.204,7.496-8.417,7.763c-25.503,0.777-39.369,6.503-59.672-10c-13.117-11.47-21.372-15.811-11.967-34.143
			c-12.554-17.63-16.213-32.656-26.804-50.952c-1.726-7.458,15.527-22.994,1.998-27.077c6.501-12.554,16.142-33.597,10.282-50.813
			c11.271-7.368,29.784-24.87,31.861-36.763c24.868-6.12,23.304-16.207,40.282-19.833c29.829,12.328,34.055,6.179,61.426,23.001
			c-0.884,15.528,20.282,17.015,28.923,41.313c-6.412,6.281,11.115,37.815,7.559,50.178
			C208.195,130.324,222.241,141.632,207.424,130.315z M178.871,116.336c1.306-24.026-3.287-45.432-8.361-55.099
			c-3.113-5.881-18.004-12.058-38.177-13.105c-26.401-12.274-37.29,2.663-45.021,7.954c-16.921,25-20.81,46.273-24.706,54.157
			c2.817,1.336,6.99,30.905-4.442,17.594c4.973,30.421,11.651,49.134,29.728,63.678c1.91,15.053,17.564,32.104,28.886,23.98
			c18.51-3.093,34.766-2.203,61.571-18.454c4.844-15.549,10.134-31.865,0.037-54.819
			C176.659,134.764,193.688,127.653,178.871,116.336z"/>
	</g>
</g>
<g id="R" display="none">
	<g id="R_1_">
		<rect x="-13.833" display="inline" fill="none" width="283.668" height="256"/>
		<path display="inline" fill="#938970" d="M139.469,149.818H85.364V243H54.831V12.656h76.253c25.945,0,45.904,5.908,59.881,17.719
			c13.973,11.813,20.961,29.005,20.961,51.574c0,14.345-3.875,26.843-11.627,37.494c-7.752,10.654-18.537,18.616-32.354,23.889
			l54.105,97.77V243h-32.59L139.469,149.818z M85.364,124.98h46.669c15.082,0,27.078-3.908,35.992-11.727
			c8.91-7.819,13.367-18.28,13.367-31.384c0-14.263-4.246-25.196-12.734-32.805c-8.492-7.609-20.752-11.465-36.783-11.571H85.364
			V124.98z"/>
	</g>
	<g display="inline">
		<path fill="#F4DC5E" d="M155.669,153.09c11.753,14.979-15.193,3.776-43.56,0.15c33.634-14.646-15.95,13.949-20.97,12.686
			c12.797-14.98,28.474,1.016-23.355-20.745c37.137,33.707,18.202,85.957,7.396,96.265c21.464-3.59-21.727-24.994-4.544,3.369
			c-1.2-7.47-16.862-26.438-12.943,7.633c33.658-23.225-17.234-14.381,2.43-48.439c-20.324-1.229-28.494-158.811,2.661-182.264
			c23.674,20.215,3.696-17.771-5.7-20.08c24.96,19.74,34.953-0.057,57.342,24.96c-6.845-0.999,3.31,4.007,45.732-20.634
			c-22.596-3.261,1.506,20.443,40.42,51.534c-31.054-17.378,6.108,4.669,18.5,43.516c16.378-12.685-36.752,9.836-26.74,18.957
			c-23.209,17.497-16.282,14.546-45.752,16.813c-6.78,23.034,85.456,80.513,96.863,92.794c-62.781,19.512-0.478-10.52-1.981,5.438
			c-33.962-18.421-21.18,0.387-53.439-14.257c0.939-0.993,17.739-1.226,1.974,6.792c-0.801,3.958,26.78,13.909-1.533-9.709
			C160.639,236.659,121.333,154.221,155.669,153.09z M96.246,113.773c8.243,13.029,1.074,14.781-6.558,13.403
			c19.314-5.563,30.876,5.298,27.993,4.818c16.007-5.689,36.548-1.967,12.228-13.106c21.327,12.802,25.468,5.516,27.462,2.238
			c20.523-10.646,2.406-30.109,15.432-31.391c-0.689-15.959-8.943-33.222-14.503-27.282c14.674-15.821-23.247-14.3-26.702-25.245
			c-11.671-0.467-49.153,12.573-31.262,3.666c8.095,9.767-10.461,1.548-19.016,6.171C95.653,54.543,76.528,114.202,96.246,113.773z"
			/>
	</g>
</g>
<g id="S" display="none">
	<g id="S_1_">
		<rect x="-13.833" display="inline" fill="none" width="283.668" height="256"/>
		<path display="inline" fill="#938970" d="M126.497,140.326c-26.051-7.487-45.008-16.69-56.874-27.606S51.825,88.332,51.825,72.299
			c0-18.139,7.25-33.144,21.753-45.009c14.5-11.865,33.354-17.798,56.557-17.798c15.82,0,29.926,3.06,42.32,9.176
			c12.391,6.118,21.99,14.555,28.793,25.312S211.451,66.5,211.451,79.26h-30.533c0-13.971-4.43-24.952-13.289-32.943
			c-8.859-7.989-21.357-11.986-37.494-11.986c-14.977,0-26.656,3.303-35.041,9.907c-8.385,6.605-12.577,15.769-12.577,27.496
			c0,9.406,3.98,17.358,11.944,23.854c7.962,6.499,21.516,12.441,40.658,17.83c19.143,5.389,34.117,11.326,44.93,17.812
			c10.809,6.486,18.826,14.056,24.047,22.702c5.221,8.649,7.83,18.826,7.83,30.533c0,18.668-7.277,33.618-21.832,44.851
			s-34.014,16.849-58.377,16.849c-15.82,0-30.586-3.033-44.296-9.097c-13.712-6.063-24.284-14.369-31.72-24.917
			c-7.436-10.545-11.153-22.517-11.153-35.912h30.533c0,13.922,5.142,24.917,15.425,32.985s24.02,12.103,41.211,12.103
			c16.031,0,28.318-3.268,36.861-9.809c8.543-6.538,12.814-15.449,12.814-26.736c0-11.284-3.955-20.013-11.865-26.183
			S147.273,146.338,126.497,140.326z"/>
	</g>
	<path display="inline" fill="#E6DD91" d="M126.497,140.326c-26.051-7.487-45.008-16.691-56.874-27.606
		c-11.865-10.916-17.798-24.388-17.798-40.421c0-18.139,7.25-33.143,21.753-45.009c14.5-11.865,33.353-17.798,56.557-17.798
		c15.82,0,29.926,3.06,42.32,9.176c12.391,6.118,21.99,14.555,28.793,25.312c6.803,10.758,10.203,22.519,10.203,35.279h-30.533
		c0-13.971-4.43-24.952-13.289-32.943c-8.859-7.989-21.357-11.986-37.494-11.986c-14.977,0-26.656,3.303-35.041,9.907
		c-8.385,6.605-12.577,15.769-12.577,27.496c0,9.406,3.98,17.358,11.944,23.854c7.962,6.499,21.516,12.441,40.658,17.83
		c19.143,5.389,34.117,11.326,44.93,17.813c10.809,6.486,18.826,14.056,24.047,22.702c5.221,8.65,7.83,18.826,7.83,30.533
		c0,18.668-7.277,33.618-21.832,44.851c-14.555,11.232-34.014,16.849-58.377,16.849c-15.82,0-30.586-3.033-44.296-9.097
		c-13.712-6.063-24.284-14.369-31.72-24.917c-7.436-10.545-11.153-22.517-11.153-35.912h30.533c0,13.922,5.142,24.917,15.425,32.985
		c10.283,8.068,24.02,12.103,41.211,12.103c16.031,0,28.318-3.268,36.861-9.809c8.543-6.538,12.814-15.449,12.814-26.736
		c0-11.284-3.955-20.013-11.865-26.183C161.617,152.429,147.273,146.338,126.497,140.326z M68.5,22.333
		c-8.376,0-15.167,6.79-15.167,15.167s6.79,15.167,15.167,15.167s15.166-6.79,15.166-15.167S76.877,22.333,68.5,22.333z M115.667,58
		c-2.394,0-4.334,1.94-4.334,4.333c0,2.394,1.94,4.333,4.334,4.333c2.393,0,4.333-1.94,4.333-4.333C120,59.94,118.06,58,115.667,58z
		 M99.666,83.334c-2.761,0-5,2.239-5,5s2.239,5,5,5s5-2.239,5-5S102.428,83.334,99.666,83.334z M204.022,128
		c-8.48,0-15.355,6.875-15.355,15.355c0,8.48,6.875,15.355,15.355,15.355c8.48,0,15.355-6.875,15.355-15.355
		C219.378,134.875,212.503,128,204.022,128z M171.666,198.333c-5.707,0-10.333,4.626-10.333,10.333S165.959,219,171.666,219
		S182,214.373,182,208.666S177.373,198.333,171.666,198.333z M71.5,172c-7.824,0-14.167,6.343-14.167,14.166
		c0,7.824,6.343,14.167,14.167,14.167s14.166-6.343,14.166-14.167C85.666,178.343,79.324,172,71.5,172z M183.333,68.334
		c-6.443,0-11.667,5.223-11.667,11.666s5.224,11.666,11.667,11.666C189.776,91.666,195,86.443,195,80S189.776,68.334,183.333,68.334
		z M180.333,33c-3.313,0-6,2.687-6,6s2.687,6,6,6c3.314,0,6-2.687,6-6S183.646,33,180.333,33z M62.167,95
		C53.791,95,47,101.79,47,110.167c0,8.376,6.791,15.167,15.167,15.167c8.376,0,15.167-6.791,15.167-15.167
		C77.334,101.79,70.543,95,62.167,95z"/>
</g>
<g id="T" display="none">
	<g id="T_1_">
		<rect x="-13.833" display="inline" fill="none" width="283.668" height="256"/>
		<path display="inline" fill="#938970" d="M220.391,37.494h-74.039V243h-30.216V37.494H42.254V12.656h178.137V37.494z"/>
	</g>
	<path display="inline" fill="#938970" d="M213.266,44.451c-22.706,18.623-45.411,14.025-68.117,5.509c0,58.683,0,117.366,0,176.049
		c-9.266,4.737-18.532,10.363-27.798,15.091c0-67.404,0-134.808,0-202.211c-22.657-8.481-45.314-13.02-67.971,5.563
		c0-7.617,0-15.234,0-22.851c54.629-57.602,109.258,57.602,163.887,0C213.266,29.217,213.266,36.834,213.266,44.451z
		 M128.863,49.513c-3.31,2.097-3.31,7.746,0,12.137c4.137,5.513,10.845,7.325,14.983,4.67c5.172-3.369,5.172-10.747,0-17.554
		c-6.465-8.489-16.946-13.822-23.411-9.49c-8.081,5.422-8.081,20.429,0,30.867c10.102,13.219,26.479,15.938,36.579,8.937
		c12.627-9.234,12.627-25.328,0-40.294c-15.781-18.89-41.371-39.408-57.154-24.91c-19.728,18.816-19.728,58.192,0,81.265
		c24.661,29.884,64.643,27.958,89.304,7.378"/>
</g>
<g id="U" display="none">
	<g id="U_1_">
		<rect x="-13.833" display="inline" fill="none" width="283.668" height="256"/>
		<path display="inline" fill="#938970" d="M211.848,12.656v156.621c-0.107,21.729-6.938,39.499-20.488,53.314
			c-13.553,13.818-31.932,21.567-55.133,23.256l-8.068,0.316c-25.209,0-45.301-6.803-60.276-20.408
			c-14.978-13.605-22.571-32.325-22.781-56.162V12.656H75.16v155.988c0,16.666,4.588,29.611,13.764,38.839
			c9.176,9.23,22.252,13.843,39.235,13.843c17.189,0,30.347-4.588,39.47-13.764c9.121-9.176,13.686-22.094,13.686-38.76V12.656
			H211.848z"/>
	</g>
	<g display="inline">
		<path fill="#FFFC9D" d="M218.328,15.412l-19.815,31.984l20,30.07l-20,30.07l20,30.074l-20,30.067l19.193,12.51l-21.769,7.05
			l14.781,17.489l-22.878-0.233l8.143,21.375l-21.889-7.462l0.204,23.121l-18.348-14.132l-6.594,22.18l-14.074-18.363l-0.523,20.032
			l-2.328-19.924l-0.764,20.045l-2.339-19.923l-1.055,20.052l-11.561-20.569l-15.652,17.628l-5.901-22.761l-20.163,12.133
			l2.034-23.423l-22.791,4.595l10.689-20.634l-22.877-4.012l17.109-15.804l-20.724-10.649l20-30.141l-20-30.131l20-30.13l-20-30.134
			l19.822-28.254l-4.053-11.88l5.766,20l5.771-20l5.775,20l15.594-11.894L67.293,47.274l20,29.949l-20,29.948l20,29.952l-20,29.952
			l20.354,7.067l-18.31,11.391l21.452,1.508l-13.745,16.553l20.552-6.283l-6.272,20.582l16.599-13.734l1.656,21.469l11.422-18.329
			l7.169,20.353l7.231-20.347l11.397,18.363l1.805-21.472L165.163,218l-6.193-20.613l20.545,6.28l-13.781-16.512l21.442-1.523
			l-18.326-11.35l20.352-7.057l-20-29.978l20-29.979l-20-29.978l20-29.982l-19.815-31.901l15.675,11.918l5.857-20l5.862,20
			l4.981-19.961L218.328,15.412z"/>
	</g>
</g>
<g id="V" display="none">
	<g id="V_1_">
		<rect x="-13.833" display="inline" fill="none" width="283.668" height="256"/>
		<path display="inline" fill="#938970" d="M127.92,202.658l65.812-190.002h33.223L141.525,243h-26.894L29.36,12.656h33.064
			L127.92,202.658z"/>
	</g>
	<path display="inline" fill="#EDBA08" d="M123.202,196.12c9.245-32.805,23.72-55.357,36.977-82.779
		c13.401-27.004,25.584-58.878,33.554-100.685c11.074,0,22.148,0,33.223,0c-12.957,46.355-30.51,87.673-47.885,120.627
		c-17.033,34.404-33.889,60.444-37.545,109.717c-8.965,0-17.929,0-26.894,0c-22.25-50.844-24.62-85.867-37.154-121.161
		C66.789,87.046,45.937,51.982,29.36,12.656c11.021,0,22.043,0,33.064,0c18.714,33.38,31.941,63.406,39.447,92.269
		C109.976,134.005,112.358,161.923,123.202,196.12z M65.399,39.534c-0.398-3.244-3.653-5.998-7.246-6.075
		c-6.164-0.137-12.451-0.211-18.879-0.204c-3.737-0.001-6.796,2.711-6.771,6.014c0.006,0.442,0.012,0.884,0.018,1.327
		c0.027,3.305,3.345,5.875,7.31,5.811c6.758-0.099,13.305-0.065,19.669,0.073c3.728,0.079,6.433-2.406,6.052-5.643
		C65.502,40.403,65.451,39.969,65.399,39.534z M121.91,64.53c-0.094-3.131-2.726-5.988-5.829-6.297
		c-10.798-1.097-21.998-2.148-33.869-2.867c-3.406-0.207-6.027,2.146-5.846,5.178l0,0c0.183,3.035,3.114,5.594,6.522,5.802
		c11.872,0.724,22.976,1.884,33.633,3.134C119.575,69.842,122.005,67.663,121.91,64.53L121.91,64.53z M79.942,90.459
		c0.092-2.747-2.467-5.1-5.769-5.173c-6.517-0.138-13.309-0.072-20.435,0.264c-3.607,0.161-6.631,2.74-6.647,5.66c0,0,0,0,0,0
		c-0.018,2.922,2.961,4.995,6.541,4.744c7.081-0.485,13.818-0.67,20.275-0.624C77.172,95.349,79.847,93.209,79.942,90.459
		C79.942,90.459,79.942,90.459,79.942,90.459z M96.557,129.49c0.363-2.963-1.848-5.544-5.008-5.704
		c-0.24-0.012-0.48-0.023-0.72-0.034c-3.166-0.152-6.046,2.232-6.358,5.257c-1.318,12.561-2.782,25.474-3.911,39.255
		c-0.271,3.316,2.037,5.944,5.082,5.893c0.231-0.004,0.463-0.007,0.694-0.01c3.043-0.044,5.672-2.726,5.952-5.999
		C93.448,154.522,95.056,141.835,96.557,129.49z M184.818,38.112c-0.09-3.507-2.517-6.407-5.349-6.396c0,0,0,0,0,0
		c-2.834,0.011-4.931,2.93-4.766,6.432c0.845,18.51,0.182,34.9-1.132,50.089c-0.247,2.872,1.656,5.288,4.312,5.393c0,0,0,0,0,0
		c2.655,0.105,5.059-2.179,5.311-5.091C184.527,73.177,185.33,56.649,184.818,38.112z M244.333,26.334
		c-0.002-2.74-2.247-4.796-5.006-4.615c-7.772,0.569-15.48,1.005-23.146,1.329c-2.726,0.104-4.88,2.879-4.856,6.146l0,0
		c0.024,3.266,2.183,5.708,4.876,5.479c7.588-0.624,15.269-1.47,23.087-2.585C242.066,31.675,244.336,29.075,244.333,26.334
		C244.333,26.333,244.333,26.333,244.333,26.334z M144.752,133.422c0.329-2.312-1.279-4.491-3.59-4.874c0,0,0,0,0,0
		c-2.311-0.384-4.456,1.173-4.791,3.485c-1.608,11.111-3.148,22.294-4.076,34.13c-0.196,2.464,1.6,4.751,3.988,5.077l0,0
		c2.387,0.327,4.441-1.408,4.608-3.845C141.703,155.667,143.169,144.535,144.752,133.422z M170.499,140.375
		c0.195-1.699-1.089-3.22-2.853-3.414c0,0,0,0,0,0c-1.765-0.194-3.356,1.003-3.565,2.69c-1.542,12.523-2.762,24.999-2.972,38.163
		c-0.03,1.775,1.461,3.408,3.324,3.62c0,0,0,0,0,0c1.863,0.212,3.382-1.07,3.396-2.838
		C167.937,165.474,169.046,152.968,170.499,140.375z M209.628,109.502c0.16-2.13-1.538-3.653-3.747-3.445
		c-6.677,0.624-13.077,0.868-19.29,0.825c-2.058-0.012-3.89,1.622-4.126,3.672c0,0,0,0,0,0c-0.235,2.049,1.229,3.759,3.303,3.797
		c6.256,0.108,12.718-0.069,19.476-0.627C207.486,113.542,209.469,111.631,209.628,109.502
		C209.628,109.502,209.628,109.502,209.628,109.502z M154.811,234.664c-0.674-3.224-3.342-5.845-6.05-5.947
		c-3.708-0.128-7.402-0.251-11.085-0.365c-2.686-0.087-4.483,2.51-3.924,5.902c0,0,0,0,0,0c0.556,3.39,3.321,6.232,6.075,6.239
		c3.762,0.02,7.525,0.042,11.291,0.065C153.876,240.566,155.482,237.884,154.811,234.664L154.811,234.664z"/>
</g>
<g id="W" display="none">
	<g display="inline">
		<path fill="#B0A47B" d="M82.489,183.102c-7.449-14.211-4.812,10.971-30.933-2.908c23.875,6.733,34.814,2.27,31.972-25.945
			c-16.295,6.067,34.665-138.672,48.541-120.115C97.28,23.932,163.61,18.81,149.482,19.771
			c-7.49,1.991,42.506,141.892,45.093,151.233c-22.091-8.814-17.843,37.538-10.136,9.899c15.307-7.059-10.006-14.41,8.336-31.015
			c5.574,24.295,12.741-115.811,14.99-137.133c9.751,29.104,42.887,9.703,48.794,11.481c-14.287-0.45-69.161,196.808-73.788,225.363
			c36.362-29.694-21.049-35.996-22.851-13.116c14.597,2.985-48.15-161.455-8.198-166.984c-28.8-6.967-13.729-14.561-12.05,6.915
			c-0.982-17.693-31.369,13.224-24.539,21.115c17.582,3.274-54.327,152.301-39.385,118.671c22.777,7.559-12.254,7.635-27.771,9.131
			C66.477,248.57,15.722,18.487-8.47,12.961c7.46,21.185,37.133,29.555,60.476-5.603C53.438,23.63,68.914,149.692,82.489,183.102z"
			/>
	</g>
</g>
<g id="X" display="none">
	<g id="X_1_">
		<rect display="inline" fill="none" width="256" height="256"/>
		<path display="inline" fill="#938970" d="M128.316,100.934l55.213-88.277h35.754L146.51,126.879L221.023,243h-36.07
			l-56.637-89.859L71.363,243H35.451l74.672-116.121L37.191,12.656h35.596L128.316,100.934z"/>
	</g>
	<path display="inline" fill="#F4DC5E" d="M137,102c24-23,44-53,52-86c10-1,21-1,31-3c-5,19-11,38-21,56c-2,3-3,6-5,9
		c-12,22-29,39-48,55c6,27,18,50,35,73c1,1,3,2,4,3c10,14,23,24,36,34c-14,2-28,3-42,3c-27-26-47-58-59-94c-22,20-39,46-50,74
		c-1,3-1,6-3,9c-1,2-1,4-1,4c-10,2-21,2-31,4c12-47,37-92,76-122C101,77,73,40,38,12c14-1,27-3,41-2C106,35,126,67,137,102L137,102z
		 M102,96c-12,1-23,4-35,6c8,7,16,13,23,21c-3,12-6,23-8,35c9-6,20-10,30-15c9,7,19,13,28,20c0-11-3-22-2-33c10-6,18-14,27-22
		c-11-2-21-6-32-8c-4-11-10-22-16-32C114,78,108,87,102,96L102,96z"/>
	<polygon display="inline" fill="#F4DC5E" points="63.309,79.006 56.598,73.155 47.973,75.367 51.463,67.176 46.694,59.656 
		55.563,60.445 61.241,53.586 63.232,62.265 71.51,65.545 63.871,70.12 	"/>
	<polygon display="inline" fill="#F4DC5E" points="175.976,159.672 169.265,153.82 160.64,156.033 164.13,147.842 159.361,140.322 
		168.23,141.111 173.908,134.252 175.899,142.931 184.177,146.211 176.538,150.786 	"/>
</g>
<g id="Y" display="none">
	<g id="Y_1_">
		<rect display="inline" fill="none" width="256" height="256"/>
		<path display="inline" fill="#938970" d="M127.684,128.303l60.117-115.646h34.488l-79.418,144.439V243h-30.375v-85.904
			L33.078,12.656h34.805L127.684,128.303z"/>
	</g>
	<path display="inline" fill="#F9EC7E" d="M127.684,128.303l60.117-115.646h34.488l-79.418,144.439V243h-30.375v-85.904
		L33.078,12.656h34.805L127.684,128.303z M48.356,58.117l9.689-16.783L48.356,24.55h-19.38l-9.69,16.783l9.69,16.783H48.356z
		 M108.16,49.045l-0.333-10l-8.827-4.711l-8.494,5.289l0.333,10l8.827,4.711L108.16,49.045z M69.166,89.324l7.5-12.99l-7.5-12.99
		h-15l-7.5,12.99l7.5,12.99H69.166z M106.516,99.774l7.182-12.44l-7.182-12.44H92.151l-7.182,12.44l7.182,12.44H106.516z
		 M108.421,157.854l7.42-12.854l-7.42-12.854H93.579L86.159,145l7.42,12.854H108.421z M139.333,192.333l12.99-7.5v-15l-12.99-7.5
		l-12.99,7.5v15L139.333,192.333z M123.859,207.554l-15.334-11l-17.193,7.779l-1.859,18.779l15.333,11L122,226.333L123.859,207.554z
		 M217.339,41.45l-8.333-8.667l-11.672,2.883l-3.339,11.55l8.333,8.667L214,53L217.339,41.45z M180.267,123.069l-3-16.667
		l-15.934-5.735l-12.934,10.931l3,16.667L167.333,134L180.267,123.069z"/>
</g>
<g id="Z" display="none">
	<g id="Z_1_" display="inline">
		<rect fill="none" width="256" height="256"/>
		<path fill="#938970" d="M80.539,218.162h131.783V243H44.627v-22.781L170.873,37.494H46.684V12.656H207.26v22.166L80.539,218.162z"
			/>
	</g>
	<g display="inline">
		<path fill="#E6DD91" d="M80.539,230.954c43.928-0.339,87.855-47.62,131.783-12.792c0,8.279,0,16.559,0,24.838
			c-55.898,0-111.797,0-167.695,0c0-7.594,0-15.187,0-22.781c10.521-6.769,21.041-7.672,31.562-18.219
			c10.52-9.701,21.041-29.047,31.562-53.127c10.52-23.834,21.041-52.414,31.562-75.01c10.52-22.958,21.041-39.933,31.561-48.878
			C129.477,28.806,88.08,69.501,46.684,39.065c0-8.74,0-17.543,0-26.409c53.525,0,107.051,0,160.576,0c0,6.169,0,12.455,0,18.859
			c-10.56,6.286-21.12,9.056-31.68,21.542c-10.56,11.685-21.12,33.086-31.68,58.11c-10.56,24.834-21.12,53.303-31.68,74.853
			C101.659,207.999,91.099,223.06,80.539,230.954z"/>
	</g>
</g>
<g id="space" display="none">
	<rect display="inline" fill="none" stroke="#938970" stroke-width="0.75" stroke-miterlimit="10" width="256" height="256"/>
</g>
<g id="period" display="none">
	<g id="period_1_" display="inline">
		<rect x="-50" y="-10" fill="none" width="256" height="256"/>
		<path fill="#DEA500" d="M57.655,223.275c0-5.188,1.54-9.509,4.62-12.969c3.08-3.457,7.7-5.188,13.86-5.188
			s10.833,1.73,14.022,5.188c3.187,3.46,4.782,7.781,4.782,12.969c0,4.973-1.596,9.134-4.782,12.482
			c-3.189,3.349-7.862,5.025-14.022,5.025s-10.78-1.677-13.86-5.025S57.655,228.248,57.655,223.275z"/>
	</g>
</g>
<g id="comma" display="none">
	<g id="period_3_" display="inline">
		<rect x="-30" y="-40" fill="none" width="256" height="256"/>
		<path fill="#B0A47B" d="M87.139,256.012L70.117,244.34c10.157-14.159,15.454-28.749,15.887-43.77v-27.072h29.342v23.506
			c0,10.917-2.675,21.829-8.024,32.746C101.972,240.664,95.244,249.418,87.139,256.012z"/>
	</g>
</g>
<g id="_x30_" display="none">
	<g id="_x30__1_" display="inline">
		<rect fill="none" width="256" height="256"/>
		<path fill="#938970" d="M200.615,144.756c0,34.278-5.854,59.749-17.561,76.412c-11.707,16.666-30.007,24.996-54.896,24.996
			c-24.576,0-42.769-8.147-54.58-24.442c-11.813-16.295-17.931-40.631-18.352-73.011v-39.076c0-33.855,5.854-59.01,17.561-75.463
			s30.059-24.68,55.055-24.68c24.783,0,43.031,7.938,54.738,23.81c11.707,15.875,17.719,40.369,18.035,73.485V144.756z
			 M171.348,104.73c0-24.784-3.48-42.846-10.441-54.185c-6.961-11.336-17.983-17.007-33.064-17.007
			c-14.978,0-25.894,5.644-32.748,16.928c-6.857,11.287-10.39,28.635-10.6,52.049v46.828c0,24.893,3.611,43.269,10.837,55.134
			c7.223,11.865,18.166,17.798,32.827,17.798c14.448,0,25.179-5.589,32.194-16.77c7.013-11.178,10.679-28.793,10.995-52.84V104.73z"
			/>
	</g>
	<g id="_x30__2_" display="inline">
		<path fill="#F4DC5E" d="M195.93,150.903c1.584,32.2-2.258,55.169-11.424,68.807c-9.031,13.511-23.987,18.003-44.968,13.581
			c-20.716-4.366-36.753-14.939-48.211-31.622c-11.593-16.555-19.181-39.241-22.669-68.153l-3.77-34.811
			c-3.266-30.16-0.363-51.911,8.809-65.349c9.306-13.566,25.567-19.165,48.683-16.698c22.919,2.446,40.243,11.624,51.87,27.624
			c11.498,16.127,18.11,39.807,19.925,70.954L195.93,150.903z M167.979,109.485c-1.396-23.039-5.569-40.234-12.56-51.544
			c-7.045-11.255-17.501-17.669-31.322-19.279c-13.727-1.598-23.278,2.353-28.613,11.811c-5.284,9.409-6.99,24.624-5.157,45.685
			l4.044,42.174c2.15,22.419,6.848,39.546,14.052,51.429c7.143,11.94,16.933,19.176,29.413,21.664
			c12.298,2.452,21.083-0.889,26.396-10.064c5.365-9.225,7.527-25.011,6.447-47.316L167.979,109.485z"/>
	</g>
</g>
<g id="_x31_" display="none">
	<g id="_x31__1_" display="inline">
		<rect fill="none" width="256" height="256"/>
		<path fill="#993300" d="M152.363,243h-29.426V47.936l-59.01,21.674V43.031l83.848-31.482h4.588V243z"/>
	</g>
	<g id="_x31__2_" display="inline">
		<path fill="#E6DD91" d="M166.865,212.264l-20.987-22.514l-1.148,40l-1.148-40l-1.147,40l-1.147-40l-1.149,40l-1.147-40l-1.143,40
			l-1.144-40l-1.15,40l-1.147-40l-1.147,40l-1.151-40l-1.149,40l-1.15-40l-1.152,40l-1.15-40l-1.152,40l-1.155-40l-20.929,23.001
			l39.774-10.612l-40-7.613l40-7.613l-40-7.615l40-7.613l-40-7.615l40-7.616l-40-7.615l40-7.615l-40-7.616l40-7.617l-40-7.612
			l40-7.615l-40-7.615l40-7.616l-40-7.618l40-7.62l-40-7.618l40-7.623l-38.941-1.201l9.747-24.351l11.489,38.393l-16.092-36.702
			l11.491,38.392l-16.092-36.702l11.487,38.394l-16.092-36.702l11.487,38.394L96.437,46.266l11.486,38.394L91.829,47.958
			l11.486,38.394L87.22,49.651l11.49,38.392L82.615,51.342L94.1,89.737l-16.098-36.7l11.484,38.395L73.384,54.733l2.977,39.558
			l21.607-20.97l-40-1.037l40-1.037l-40-1.036l40-1.036l-40-1.038l40-1.033l-40-1.032l40-1.034l-40-1.039l40-1.036l-40-1.036
			l40-1.04l-40-1.038l40-1.039l-40-1.035l40-1.04l-40-1.042l40-1.045L66.556,37.177L88.27,71.097L77.482,32.421l17.333,36.219
			L84.021,29.965l17.33,36.22L90.563,27.509l17.33,36.22L97.106,25.053l17.332,36.219l-10.786-38.677l17.333,36.219l-10.787-38.677
			l17.336,36.217l-10.785-38.677l17.332,36.219l-10.785-38.677l17.336,36.217l-10.784-38.678l17.342,36.215l-10.463-38.795
			l6.89,38.839l0.175-40l0.175,40l0.174-40l0.175,40l0.175-40l0.176,40l0.177-40l0.179,40l0.181-40l0.181,40l0.18-40l0.18,40
			l0.181-40l0.182,40l0.18-40l0.181,40l0.185-40l0.185,40l20.181-20.41l-39.996,9.441l40,9.033l-40,9.033l40,9.035l-40,9.033
			l40,9.035l-40,9.037l40,9.035l-40,9.036l40,9.037l-40,9.038l40,9.037l-40,9.035l40,9.035l-40,9.036l40,9.038l-40,9.041l40,9.038
			l-34.406,22.918L166.865,212.264z"/>
	</g>
</g>
<g id="_x32_" display="none">
	<g id="_x32__1_" display="inline">
		<rect fill="none" width="256" height="256"/>
		<path fill="#993300" d="M207.102,243H56.176v-21.041l79.734-88.594c11.811-13.393,19.958-24.284,24.442-32.669
			c4.481-8.385,6.724-17.059,6.724-26.024c0-12.023-3.639-21.884-10.916-29.584c-7.277-7.698-16.982-11.549-29.109-11.549
			c-14.555,0-25.866,4.141-33.935,12.419c-8.068,8.281-12.103,19.803-12.103,34.567H51.746c0-21.199,6.828-38.337,20.487-51.416
			c13.657-13.077,31.93-19.617,54.817-19.617c21.409,0,38.337,5.616,50.783,16.849c12.443,11.232,18.668,26.183,18.668,44.851
			c0,22.677-14.451,49.676-43.348,81l-61.699,66.92h115.646V243z"/>
	</g>
	<g display="inline">
		<path fill="#DEA500" d="M206.278,242.257l-6.361,1.663l-7.183-6.117l-7.184,9.811l-7.184-1.589l-7.186-5.658l-7.184,12.785
			l-7.186-6.335l-7.187-13.214l-7.186-1.432l-7.186,20.998l-7.187,0.752l-7.188-12.426l-7.183-5.155l-7.187-1.304L99.318,246.6
			l-7.187,5.335l-7.189,0.129l-7.185-16.871l-7.191,16.361L63.372,233.1l-8.437,11.174l-9.029-8.285l17.353-7.015l-13.753-9.573
			l9.87-3.992l6.575-3.511l9.201-1.15l-1.417-10.708l9.073-1.265l5.843-4.163l-1.361-10.655l11.551,0.971l3.102-6.638l8.411-1.863
			l-6.456-15.244l10.616,0.121l9.739-0.671l-1.594-10.865l9.15-1.204l3.749-6.071l-4.5-13.473l4.057-5.285l15.62,4.139
			l-10.85-17.253l20.799,7.024l-9.157-14.54l1.171-6.503l8.508-2.861l-6.167-8.347l21.019-2.739l-3.432-7.985l-8.239-7.734
			l1.169-8.519l-12.458-2.047l8.056-16.004l-5.963-8.211l-8.767-5.355l-10.398,1.542l-8.974-4.546l-6.44,19.1l-10.174-15.201
			l-3.232,14.302l-11.885-5.879l1.972,13.907l-9.087,1.646l-0.557,7.912l-12.583,4.217l-4.063,8.128l12.086,14.426l-9.392-15.361
			l-7.314,18.019l-7.319-5.794L54.4,72.519l7.006,1.612l-1.955-6.706L47.72,57.609l8.402-5.168l-6.328-11.323l6.323-5.798
			l19.913,6.303l-4.565-13.316l5.494-5.287l8.07-1.358l5.314-5.819l8.637,2.056l6.713-2.269l6.413-5.505l7.095-6.178l7.848,5.005
			l7.04-2.513l6.429,5.372l8.11-5.923l3.115,14.985l9.082-6.11l10.637-4.995l0.926,12.448l4.731,4.918l3.991,5.819l14.698-1.469
			l-8.061,13.312l-0.343,7.186l9.22,4.679l7.694,6.628l-12.746,7.904l-1.644,6.42l0.987,6.959l9.92,10.585l-13.343,2.866
			l4.027,9.898l-6.258,5.035l-9.831,2.39l-5.55,4.671l7.836,14.553l-13.398-1.154l-6.844,3.539l0.848,10.166l-12.55-1.736
			l2.081,11.44l-3.964,5.857l3.279,12.544l-14.77-4.103l4.125,13.323l-11.95-1.494l-12.04-1.577l-4.398,5.469l3.828,13.056
			l-14.544-3.889l-3.163,6.613l-3.569,6.246l-0.798,10.997l8.792-9.352l7.226,1.566l7.227,7.785l7.226-3.294l7.226-3.089
			l7.227,2.242l7.228-4.736l7.224,7.478l7.227-6.258l7.227,17.268l7.227-0.227l7.229-9.794l7.231,7.252l7.229-5.874l7.234-3.918
			l10.501-0.769l-5.829,10.928l12.454,8.501L206.278,242.257z"/>
	</g>
</g>
<g id="_x33_" display="none">
	<g id="_x33__1_" display="inline">
		<rect fill="none" width="256" height="256"/>
		<path fill="#CBC086" d="M98.732,113.59h21.99c13.815-0.21,24.68-3.849,32.59-10.916c7.91-7.065,11.865-16.611,11.865-28.635
			c0-26.999-13.447-40.5-40.342-40.5c-12.656,0-22.756,3.614-30.296,10.837c-7.542,7.226-11.312,16.797-11.312,28.714H53.961
			c0-18.245,6.669-33.406,20.013-45.483C87.314,15.531,104.27,9.492,124.836,9.492c21.726,0,38.76,5.75,51.1,17.244
			c12.34,11.497,18.51,27.476,18.51,47.936c0,10.021-3.243,19.724-9.729,29.109c-6.486,9.388-15.321,16.401-26.499,21.041
			c12.656,4.009,22.438,10.654,29.347,19.934c6.906,9.282,10.362,20.621,10.362,34.014c0,20.673-6.751,37.074-20.25,49.201
			c-13.502,12.13-31.062,18.193-52.682,18.193c-21.622,0-39.209-5.854-52.761-17.561c-13.554-11.707-20.329-27.156-20.329-46.354
			H81.33c0,12.13,3.955,21.832,11.865,29.109s18.51,10.916,31.799,10.916c14.132,0,24.941-3.69,32.432-11.074
			c7.487-7.381,11.232-17.98,11.232-31.799c0-13.393-4.113-23.676-12.34-30.85c-8.227-7.171-20.092-10.861-35.596-11.074h-21.99
			V113.59z"/>
	</g>
	<g id="_x33__2_" display="inline">
		<path fill="#993300" d="M101.874,115.298c-6.284-3.417,18.345-3.417,19.351,0c14.467-3.652,26.635-7.728,28.679-9.606
			c15.675-13.95,20.104-24.642,10.441-25.199c9.663-43.148-5.398-58.269-35.501-35.64c-14.194-22.629-25.506-18.582-26.66,9.536
			c-15.737-11.936-19.959-1.216-9.954,25.268c-10.005-13.137-42.784-13.137-25.755,0c-17.029-33.572-9.559-50.552,17.611-40.025
			c2.716-37.577,21.705-44.341,44.759-15.941c24.314-28.401,43.392-21.961,44.968,15.175c26.066-11.385,32.976,6.511,16.289,42.183
			c16.687-1.534,13.055,9.333-8.562,25.616c7.087,4.744-2.808,12.598-23.319,18.516c22.167,3.769,33.122,11.211,25.825,17.542
			c22.771,14.459,26.641,27.158,9.119,29.932c17.523,35.38,9.961,53.749-17.82,43.297c-2.46,37.62-22.127,44.411-46.36,16.01
			c-24.198,28.401-43.896,21.845-46.429-15.453c-27.824,11.074-35.412-6.229-17.89-40.791c-17.523,13.061,15.434,13.061,25.895,0
			c-10.46,26.647-6.031,37.513,10.441,25.616c1.247,28.198,13.118,32.273,27.983,9.606c15.847,22.667,27.953,18.534,28.54-9.745
			c16.188,11.743,20.383-0.129,9.885-27.983c10.498-2.622,5.891-14.139-10.859-27.148c-1.677-3.057-14.966-7.191-31.324-9.745
			c-1.006,2.316-25.635,2.316-19.351,0C95.591,138.637,95.591,111.881,101.874,115.298z"/>
	</g>
</g>
<g id="_x34_" display="none">
	<g id="_x34__1_" display="inline">
		<rect fill="none" width="256" height="256"/>
		<path fill="#993300" d="M179.732,165.639h31.957v23.889h-31.957V243h-29.426v-53.473H45.418v-17.244L148.566,12.656h31.166
			V165.639z M78.641,165.639h71.666V52.682l-3.48,6.328L78.641,165.639z"/>
	</g>
	<g display="inline">
		<path fill="#CBC086" d="M168.667,174l43.023-8.361v23.889H172L179.732,243h-29.426l6.36-65.667L58,180l-4-12l96.307-148.333
			l14.027,10L168.667,174z M113.343,165.639h25.964c0-6.075,4.925-11,11-11V59.904c-0.924,1.681-3.48,1.024-3.48-0.894l0,0
			l-49.49,77.393C89.249,149.05,98.331,165.639,113.343,165.639z"/>
	</g>
</g>
<g id="_x35_" display="none">
	<g id="_x35__1_">
		<rect display="inline" fill="none" width="256" height="256"/>
		<path display="inline" fill="#DEA500" d="M69.623,127.512L81.33,12.656h118.02v27.053h-93.182l-6.961,62.807
			c11.284-6.645,24.099-9.967,38.443-9.967c20.986,0,37.652,6.936,49.992,20.804c12.34,13.87,18.51,32.617,18.51,56.241
			c0,23.73-6.407,42.426-19.222,56.083c-12.814,13.66-30.719,20.487-53.71,20.487c-20.356,0-36.968-5.641-49.834-16.928
			c-12.869-11.284-20.198-26.895-21.99-46.828h27.686c1.792,13.186,6.486,23.125,14.08,29.821
			c7.594,6.699,17.612,10.046,30.059,10.046c13.605,0,24.284-4.64,32.036-13.922c7.752-9.279,11.628-22.094,11.628-38.443
			c0-15.397-4.192-27.765-12.577-37.099s-19.538-14.001-33.46-14.001c-12.763,0-22.781,2.796-30.059,8.385l-7.752,6.328
			L69.623,127.512z"/>
	</g>
	<g>
		<path display="inline" fill="#993300" d="M68.383,127.492L77.99,15.177L176.236,30.1l0.548,22.867l-77.939-8.955l-5.474,59.474
			c9.494-5.989,20.288-8.656,32.398-8.128c17.716,0.773,31.901,7.437,42.588,19.699c10.737,11.881,16.375,27.571,16.877,47.359
			c0.504,19.877-4.62,36.16-15.411,49.139c-10.842,13.375-26.247,21.764-46.174,24.879c-17.643,2.758-32.069-0.412-43.247-9.759
			c-11.137-9.67-17.463-24.488-19.005-44.267l23.737-1.771c1.593,12.635,5.677,21.824,12.254,27.524
			c6.592,5.589,15.265,7.661,26.008,6.309c11.744-1.479,20.897-6.779,27.442-15.781c6.524-8.839,9.639-20.314,9.362-34.545
			c-0.261-13.403-4.04-24.089-11.32-32.188c-7.257-8.275-16.78-12.529-28.586-12.632c-10.823-0.094-19.3,2.481-25.442,7.792
			l-6.554,6.119L68.383,127.492z"/>
	</g>
</g>
<g id="_x36_" display="none">
	<g id="_x36__1_" display="inline">
		<rect fill="none" width="256" height="256"/>
		<path fill="#CBC086" d="M171.031,12.498v24.838h-5.379c-22.781,0.423-40.923,7.173-54.422,20.25
			c-13.501,13.079-21.306,31.482-23.414,55.213c12.127-13.922,28.687-20.883,49.676-20.883c20.037,0,36.043,7.067,48.015,21.199
			c11.969,14.134,17.956,32.38,17.956,54.738c0,23.73-6.462,42.715-19.38,56.953c-12.921,14.238-30.244,21.357-51.97,21.357
			c-22.044,0-39.921-8.464-53.631-25.392c-13.712-16.928-20.566-38.732-20.566-65.417v-11.232c0-42.398,9.042-74.803,27.132-97.216
			c18.087-22.411,45.009-33.88,80.763-34.409H171.031z M132.588,116.279c-10.021,0-19.249,3.006-27.686,9.018
			c-8.439,6.012-14.292,13.554-17.561,22.623v10.758c0,18.984,4.271,34.278,12.814,45.879c8.543,11.604,19.194,17.402,31.957,17.402
			c13.183,0,23.545-4.85,31.087-14.555c7.539-9.702,11.312-22.41,11.312-38.127c0-15.82-3.824-28.607-11.47-38.364
			C155.394,121.159,145.244,116.279,132.588,116.279z"/>
	</g>
	<g display="inline">
		<path fill="#DEA500" d="M195.046,38.039c-1.411,6.237-2.724,12.538-3.965,18.911c-2.768-0.858-5.523-1.718-8.265-2.582
			c-35.001-10.804-60.881-13.698-77.762-4.443C88.109,58.93,80.658,78.961,79.527,105.93c13.583-14.27,33.381-17.701,60.19-12.927
			c25.574,4.533,46.686,14.067,60.122,25.84c13.523,11.963,17.365,24.102,11.278,41.256c-6.422,18.131-20.692,35.597-36.205,52.412
			c-15.74,16.691-30.269,29.417-48.295,33.644c-18.252,4.298-33.587-3.099-49.75-20.731c-16.077-17.713-28.492-41.815-30.438-72.939
			c-0.304-4.368-0.586-8.771-0.856-13.208c-2.249-50.237,4.664-92.661,24.078-112.414c19.587-20.55,57.509-14.764,116.783,7.91
			C189.292,35.865,192.162,36.954,195.046,38.039z M133.036,115.917c-12.063-1.244-23.019,0.548-32.701,6.172
			c-9.686,5.602-16.131,13.593-19.456,23.558c0.182,4.007,0.363,7.997,0.548,11.972c0.95,21.053,6.859,37.637,15.995,49.376
			c9.176,11.739,19.013,16.528,30.736,14.456c12.109-2.139,21.955-9.324,30.865-19.968c8.83-10.687,15.406-22.754,18.02-36.4
			c2.646-13.755,0.016-24.148-8.226-33.031C160.613,123.241,148.27,117.512,133.036,115.917z"/>
	</g>
</g>
<g id="_x37_" display="none">
	<g id="_x37__1_" display="inline">
		<rect fill="none" width="256" height="256"/>
		<path fill="#993300" d="M204.887,29.109L109.49,243H78.799l95.08-206.297H49.215V12.656h155.672V29.109z"/>
	</g>
	<g display="inline">
		<path fill="#FFFC9D" d="M184.452,19.56H73.887c-5.578,0-10.1,5.168-10.1,11.543s4.522,11.542,10.1,11.542h78.843
			c7.368,0,12.257,8.726,9.172,16.374L95.241,224.316c-3.084,7.648,1.804,16.374,9.172,16.374h3.451c3.987,0,7.6-2.68,9.224-6.841
			l76.588-196.25c0.577-1.48,0.876-3.082,0.876-4.702v-1.795C194.551,24.728,190.03,19.56,184.452,19.56z"/>
	</g>
</g>
<g id="_x38_" display="none">
	<g id="_x38__1_" display="inline">
		<rect fill="none" width="256" height="256"/>
		<path fill="#938970" d="M195.869,72.773c0,11.497-3.033,21.728-9.097,30.691c-6.066,8.966-14.266,15.979-24.601,21.041
			c12.023,5.169,21.54,12.711,28.556,22.623c7.013,9.915,10.521,21.147,10.521,33.697c0,19.934-6.724,35.809-20.171,47.619
			c-13.447,11.813-31.142,17.719-53.077,17.719c-22.148,0-39.895-5.933-53.235-17.798c-13.343-11.865-20.013-27.71-20.013-47.54
			c0-12.443,3.401-23.676,10.204-33.697c6.803-10.019,16.216-17.612,28.239-22.781c-10.231-5.062-18.3-12.075-24.205-21.041
			c-5.908-8.963-8.859-19.143-8.859-30.533c0-19.405,6.222-34.805,18.668-46.195C91.243,15.188,107.644,9.492,128,9.492
			c20.25,0,36.624,5.695,49.122,17.086S195.869,53.369,195.869,72.773z M171.98,180.193c0-12.866-4.089-23.359-12.261-31.482
			c-8.175-8.12-18.854-12.182-32.036-12.182c-13.185,0-23.758,4.01-31.72,12.023C88,156.569,84.02,167.117,84.02,180.193
			c0,13.079,3.876,23.362,11.628,30.85c7.752,7.49,18.535,11.232,32.353,11.232c13.709,0,24.467-3.77,32.273-11.312
			C168.077,203.425,171.98,193.166,171.98,180.193z M128,33.539c-11.497,0-20.804,3.56-27.923,10.679s-10.679,16.797-10.679,29.03
			c0,11.707,3.505,21.174,10.521,28.397c7.013,7.226,16.374,10.837,28.081,10.837s21.065-3.611,28.081-10.837
			c7.013-7.223,10.521-16.69,10.521-28.397s-3.639-21.251-10.916-28.635C148.408,37.232,139.178,33.539,128,33.539z"/>
	</g>
	<g display="inline">
		<path fill="#F4DC5E" d="M186.671,71.463c-1.244,13.963-8.461,22.896,1.372,29.998c-3.485,8.64-22.164,15.87-21.925,17.064
			c2.925,11.985,17.411,12.703,20.362,23.351c4.949,15.247,22.855,21.305,19.923,35.808c-6.274,17.837-20.096,36.908-33.926,48.142
			c1.449,8.07-14.255,14.719-43.637,13.955c-29.294,0.128-27.117-5.669-60.073-26.124c-14.118-4.004-11.521-24.783-20.484-41.891
			c24.939-10.756,11.504-19.395,15.083-28.346c4.84-10.012,18.341-20.059,40.548-20.266c-31.582-6.917-36.7-15.373-33.922-22.364
			c-8.439-8.075-6.169-22.962,5.261-34.209C57.85,47.629,55.926,32.299,84.762,26.513c-2.381-9.209,22.118-16.596,46.797-20.788
			c21.408,0.63,21.215,4.876,43.42,24.833C185.159,34.967,180.715,50.299,186.671,71.463z M164.776,174.995
			c-0.35-11.479-6.422-22.154-4.71-30.618c-6.126-8.03-22.578-12.078-29.038-13.578c-17.471,2.04-24.202,3.222-33.696,10.966
			c-8.108,9.359-2.822,17.653-4.076,30.918c-3.221,11.863-3.719,23.117,2.748,30.645c15.554,6.57,25.711,11.191,32.544,11.726
			c6.882,0.865,27.861-1.962,22.754-12.285C157.436,198.62,160.935,186.629,164.776,174.995z M124.041,32.629
			c-11.853,0.857-23.221,3.908-21.624,10.144c-5.541,6.761-14.655,16.187-9.029,26.71c-4.255,13.388,2.172,20.248,7.185,27.543
			c6.151,8.817,23.099,10.83,32.995,11.789c8.115-0.306,13.2-2.326,19.279-9.078c14.584-7.895,18.368-16.462,13.148-27.665
			c-5.132-10.875,1.885-20.132-16.796-30.017C141.021,37.544,131.666,31.932,124.041,32.629z"/>
	</g>
</g>
<g id="_x39_">
	<g id="_x39__1_">
		<rect fill="none" width="256" height="256"/>
		<path fill="#938970" d="M168.342,141.75c-6.118,7.277-13.423,13.131-21.911,17.561c-8.491,4.43-17.798,6.645-27.923,6.645
			c-13.289,0-24.865-3.268-34.726-9.809c-9.863-6.538-17.481-15.741-22.86-27.606s-8.068-24.969-8.068-39.313
			c0-15.397,2.927-29.268,8.78-41.607s14.159-21.778,24.917-28.318c10.758-6.538,23.308-9.809,37.652-9.809
			c22.781,0,40.737,8.518,53.868,25.55c13.131,17.034,19.696,40.263,19.696,69.688v8.543c0,44.826-8.859,77.547-26.578,98.165
			c-17.719,20.621-44.455,31.193-80.209,31.72h-5.695V218.32h6.17c24.151-0.42,42.715-6.709,55.688-18.865
			C160.115,187.298,167.18,168.063,168.342,141.75z M123.254,141.75c9.809,0,18.851-3.006,27.132-9.018
			c8.278-6.012,14.317-13.447,18.114-22.307V98.719c0-19.194-4.168-34.805-12.498-46.828c-8.333-12.023-18.881-18.035-31.641-18.035
			c-12.869,0-23.204,4.932-31.008,14.792c-7.806,9.863-11.707,22.86-11.707,38.997c0,15.716,3.77,28.662,11.312,38.839
			C100.498,136.663,110.598,141.75,123.254,141.75z"/>
	</g>
	<g>
		<path fill="#993300" d="M160.148,138.736c-0.347,0.383,0.158-3.442-0.197-3.068c-0.356,0.375,5.427,6.941,5.063,7.305
			c-0.365,0.365-6.737-5.613-7.111-5.26c-0.374,0.354,5.104,7.179,4.721,7.522c-0.383,0.344-6.478-5.928-6.869-5.596
			c-0.392,0.333,4.764,7.4,4.364,7.722c-0.401,0.321-6.2-6.229-6.609-5.918c-0.409,0.31,4.411,7.602,3.993,7.901
			c-0.417,0.298-5.906-6.512-6.332-6.225c-0.425,0.287,4.047,7.782,3.614,8.057c-0.432,0.274-5.6-6.776-6.04-6.511
			c-0.439,0.263,3.676,7.939,3.228,8.19c-0.447,0.25-5.283-7.017-5.738-6.776c-0.453,0.239,3.302,8.073,2.841,8.3
			c-0.459,0.226-4.961-7.234-5.428-7.018c-0.465,0.216,2.929,8.183,2.455,8.386c-0.485,0.208-4.631-7.431-5.122-7.238
			c-0.492,0.194,2.434,8.304,1.937,8.479c-0.499,0.175-4.18-7.664-4.685-7.503c-0.505,0.16,1.921,8.388,1.41,8.529
			c-0.511,0.141-3.708-7.865-4.225-7.738c-0.516,0.126,1.397,8.436,0.876,8.543c-0.521,0.107-3.223-8.032-3.749-7.939
			c-0.525,0.092,0.873,8.449,0.343,8.523c-0.528,0.073-2.732-8.163-3.266-8.104c-0.531,0.059,0.356,8.429-0.181,8.468
			c-0.534,0.04-2.243-8.259-2.783-8.232c-0.536,0.026-0.147,8.377-0.688,8.384c-0.538,0.008-1.765-8.32-2.308-8.325
			c-0.539-0.005-0.629,8.298-1.173,8.275c-0.54-0.023-1.301-8.351-1.846-8.385c-0.54-0.034-1.088,8.197-1.632,8.145
			c-0.69-0.066-1.137-8.382-1.817-8.462c-0.689-0.081-1.857,8.026-2.535,7.922c-0.688-0.106-0.628-8.369-1.305-8.49
			c-0.686-0.123-2.376,7.832-3.05,7.686c-0.683-0.148-0.074-8.323-0.745-8.488c-0.679-0.166-2.924,7.592-3.591,7.401
			c-0.674-0.192,0.524-8.237-0.138-8.446c-0.668-0.212-3.495,7.3-4.15,7.064c-0.661-0.238,1.155-8.102,0.508-8.359
			c-0.653-0.258-4.077,6.955-4.717,6.673c-0.643-0.284,1.809-7.917,1.179-8.221c-0.633-0.304-4.657,6.559-5.276,6.23
			c-0.621-0.33,2.471-7.68,1.863-8.029c-0.608-0.349-5.217,6.117-5.812,5.743c-0.594-0.373,3.122-7.394,2.541-7.787
			c-0.58-0.392-5.743,5.641-6.309,5.225c-0.562-0.412,3.743-7.068,3.198-7.496c-0.547-0.429-6.199,5.166-6.73,4.719
			c-0.531-0.447,4.31-6.722,3.796-7.185c-0.514-0.463-6.624,4.665-7.121,4.185c-0.496-0.479,4.854-6.34,4.375-6.837
			c-0.478-0.494-7.009,4.145-7.47,3.634c-0.459-0.509,5.364-5.933,4.921-6.459c-0.44-0.523-7.347,3.617-7.771,3.079
			c-0.421-0.534,5.83-5.51,5.426-6.062c-0.401-0.547-7.635,3.096-8.02,2.534c-0.382-0.556,6.248-5.083,5.881-5.657
			c-0.363-0.567-7.872,2.59-8.219,2.009c-0.344-0.575,6.613-4.663,6.285-5.255c-0.325-0.584-8.062,2.109-8.371,1.512
			c-0.306-0.59,6.929-4.257,6.637-4.864c-0.288-0.599-8.209,1.655-8.484,1.045c-0.303-0.674,7.141-4.003,6.858-4.687
			c-0.282-0.683-8.384,1.069-8.646,0.383c-0.262-0.685,7.401-3.599,7.159-4.294c-0.241-0.693-8.464,0.623-8.685-0.073
			c-0.22-0.694,7.632-3.192,7.432-3.897c-0.199-0.701-8.514,0.186-8.694-0.519c-0.179-0.701,7.834-2.789,7.675-3.5
			c-0.158-0.707-8.537-0.238-8.675-0.949c-0.138-0.706,8.006-2.393,7.887-3.109c-0.118-0.711-8.533-0.644-8.632-1.358
			c-0.098-0.708,8.148-2.008,8.068-2.728c-0.079-0.714-8.507-1.03-8.568-1.746c-0.06-0.71,8.263-1.641,8.221-2.362
			c-0.042-0.714-8.462-1.392-8.486-2.108c-0.024-0.71,8.353-1.291,8.346-2.012c-0.007-0.714-8.4-1.732-8.39-2.448
			c0.011-0.76,8.423-1.05,8.452-1.805c0.029-0.763-8.32-2.152-8.273-2.901c0.047-0.757,8.479-0.705,8.545-1.457
			c0.067-0.76-8.215-2.498-8.129-3.243c0.087-0.753,8.518-0.334,8.625-1.082c0.107-0.755-8.082-2.862-7.955-3.602
			c0.128-0.747,8.537,0.063,8.686-0.678c0.15-0.748-7.919-3.241-7.749-3.974c0.171-0.739,8.532,0.485,8.724-0.248
			c0.194-0.738-7.723-3.635-7.508-4.358c0.216-0.728,8.498,0.926,8.735,0.204c0.239-0.726-7.491-4.036-7.23-4.747
			c0.262-0.715,8.432,1.384,8.715,0.677c0.285-0.711-7.224-4.441-6.917-5.137c0.308-0.699,8.332,1.852,8.662,1.161
			c0.331-0.693-6.924-4.841-6.57-5.519c0.318-0.611,8.126,2.459,8.459,1.863c0.337-0.605-6.68-5.082-6.327-5.667
			c0.357-0.593,7.951,2.92,8.324,2.343c0.377-0.584-6.321-5.474-5.928-6.039c0.397-0.57,7.728,3.406,8.142,2.853
			c0.418-0.559-5.91-5.872-5.475-6.411c0.438-0.544,7.453,3.912,7.908,3.386c0.458-0.53-5.445-6.266-4.969-6.775
			c0.478-0.513,7.124,4.425,7.62,3.931c0.498-0.496-4.93-6.645-4.414-7.122c0.517-0.478,6.744,4.933,7.279,4.475
			c0.536-0.459-4.375-6.999-3.821-7.439c0.554-0.44,6.318,5.425,6.889,5.005c0.57-0.419-3.791-7.317-3.203-7.717
			c0.587-0.399,5.856,5.886,6.46,5.508c0.601-0.377-3.191-7.593-2.572-7.952c0.636-0.369,5.404,6.29,6.053,5.947
			c0.65-0.344-2.532-7.85-1.869-8.173c0.662-0.322,4.878,6.691,5.553,6.395c0.674-0.295-1.898-8.041-1.211-8.316
			c0.684-0.274,4.33,7.052,5.027,6.805c0.693-0.246-1.266-8.185-0.56-8.412c0.702-0.225,3.774,7.369,4.489,7.171
			c0.709-0.197-0.649-8.284,0.072-8.463c0.715-0.177,3.223,7.639,3.95,7.489c0.72-0.149-0.061-8.341,0.671-8.472
			c0.724-0.13,2.687,7.863,3.422,7.759c0.727-0.103,0.492-8.36,1.231-8.446c0.73-0.085,2.177,8.044,2.918,7.984
			c0.731-0.06,1.005-8.349,1.747-8.393c0.733-0.043,1.696,8.188,2.44,8.168c0.734-0.019,1.477-8.313,2.221-8.317
			c1.174-0.007,2.033,8.311,3.178,8.361c1.171,0.051,3.011-8.175,4.151-8.078c1.166,0.1,1.227,8.512,2.361,8.674
			c1.158,0.165,3.819-7.887,4.944-7.671c1.145,0.221,0.301,8.645,1.411,8.931c1.128,0.292,4.678-7.457,5.77-7.109
			c1.106,0.353-0.726,8.67,0.343,9.092c1.079,0.427,5.543-6.87,6.584-6.382c1.047,0.491-1.809,8.556-0.8,9.118
			c1.01,0.563,6.355-6.133,7.328-5.506c0.97,0.625-2.883,8.293-1.951,8.987c0.926,0.69,7.061-5.286,7.95-4.531
			c0.879,0.748-3.88,7.897-3.037,8.71c0.831,0.802,7.625-4.389,8.421-3.523c0.783,0.852-4.754,7.408-4.005,8.32
			c0.735,0.896,8.044-3.499,8.746-2.543c0.824,1.123-5.251,7.21-4.488,8.39c0.756,1.17,8.621-2.138,9.318-0.906
			c0.688,1.218-6.028,6.541-5.398,7.811c0.621,1.252,8.796-1.116,9.36,0.195c0.555,1.29-6.675,5.833-6.175,7.17
			c0.491,1.313,8.861-0.163,9.299,1.206c0.429,1.341-7.193,5.125-6.814,6.508c0.371,1.355,8.844,0.695,9.167,2.103
			c0.316,1.377-7.596,4.451-7.326,5.864c0.264,1.381,8.771,1.451,8.991,2.882c0.215,1.398-7.903,3.825-7.73,5.255
			c0.169,1.397,8.664,2.11,8.793,3.551c0.126,1.41-8.137,3.253-8.049,4.691c0.086,1.405,8.538,2.684,8.587,4.131
			c0.048,1.415-8.314,2.735-8.3,4.174c0.013,1.407,8.404,3.182,8.383,4.627c-0.004,0.247-8.397-0.218-8.401,0.028
			c-0.003,0.247,8.39,0.715,8.387,0.963c-0.004,0.247-8.397-0.223-8.401,0.022c-0.003,0.246,8.39,0.719,8.387,0.966
			c-0.003,0.247-8.397-0.229-8.401,0.017c-0.004,0.247,8.39,0.726,8.387,0.974c-0.004,0.248-8.397-0.234-8.401,0.013
			c-0.003,0.246,8.39,0.731,8.387,0.979c-0.003,0.246-8.397-0.241-8.4,0.003c-0.003,0.246,8.39,0.736,8.386,0.983
			c-0.004,0.249-8.397-0.244-8.4,0.004c-0.003,0.247,8.39,0.742,8.386,0.99c-0.004,0.25-8.397-0.248-8.4,0
			c-0.004,0.249,8.39,0.749,8.386,0.999c-0.004,0.251-8.397-0.253-8.4-0.003c-0.004,0.249,8.39,0.755,8.386,1.006
			c-0.029,2.037-8.467,3.431-8.533,5.401c-0.068,2.024,8.229,4.847,8.122,6.822c-0.11,2.032-8.614,2.979-8.766,4.936
			c-0.156,2.014,8.021,5.294,7.821,7.252c-0.207,2.019-8.768,2.441-9.022,4.377c-0.262,1.997,7.75,5.799,7.438,7.729
			c-0.322,1.993-8.923,1.797-9.298,3.697c-0.388,1.963,7.389,6.359,6.945,8.243c-0.46,1.949-9.066,1.018-9.587,2.862
			c-0.54,1.908,6.9,6.984,6.295,8.799c-0.627,1.88-9.171,0.07-9.868,1.83c-0.722,1.82,6.231,7.66,5.433,9.368
			c-0.826,1.767-9.191-1.083-10.097,0.549c-0.937,1.684,5.315,8.35,4.292,9.902c-1.053,1.596-9.053-2.44-10.197-0.993
			c-1.174,1.481,4.103,8.959,2.833,10.289c-1.106,1.157-8.335-4.252-9.516-3.194c-1.186,1.06,3.269,8.951,2.008,9.911
			c-1.26,0.957-7.799-5.344-9.134-4.484c-1.328,0.854,2.09,9.153,0.688,9.906c-1.389,0.744-7.131-6.298-8.593-5.646
			c-1.442,0.641,0.925,9.167-0.588,9.709c-1.487,0.532-6.39-7.063-7.946-6.615c-1.525,0.438-0.154,9.024-1.745,9.37
			c-1.556,0.336-5.64-7.633-7.259-7.371c-1.58,0.255-1.103,8.777-2.743,8.947c-1.6,0.164-4.93-8.032-6.587-7.932
			c-1.615,0.096-1.915,8.475-3.584,8.493c-1.625,0.017-4.282-8.295-5.959-8.334c-1.633-0.039-2.597,8.151-4.279,8.042
			c-1.639-0.107-3.706-8.458-5.391-8.614c-1.642-0.152-3.178,7.828-4.864,7.611c-0.159-0.021-0.097-8.149-0.256-8.171
			c-0.16-0.022-0.274,8.096-0.433,8.073c-0.159-0.023-0.045-8.139-0.204-8.16c-0.159-0.022-0.273,8.092-0.432,8.07
			c-0.159-0.023-0.045-8.135-0.204-8.157c-0.16-0.022-0.274,8.089-0.433,8.066c-0.159-0.023-0.045-8.131-0.204-8.153
			c-0.158-0.022-0.272,8.085-0.43,8.063c-0.158-0.023-0.044-8.128-0.202-8.149c-0.159-0.022-0.273,8.081-0.433,8.059
			c-0.16-0.023-0.046-8.124-0.206-8.146c-0.16-0.022-0.274,8.078-0.434,8.055c-0.158-0.023-0.045-8.12-0.203-8.142
			c-0.162-0.022-0.276,8.074-0.437,8.051c-0.162-0.023-0.048-8.117-0.211-8.139s-4.441,4.505-4.476,4.348
			c-0.149-0.674,8.295-0.434,8.305-1.107c0.009-0.674-8.373-1.833-8.364-2.503c0.009-0.669,8.392,0.483,8.402-0.19
			c0.009-0.674-8.374-1.817-8.364-2.487c0.009-0.669,8.393,0.466,8.402-0.207c0.009-0.674-8.374-1.802-8.365-2.472
			c0.009-0.668,8.393,0.452,8.402-0.22c0.009-0.672-8.374-1.784-8.365-2.452c0.009-0.67,8.393,0.434,8.403-0.241
			c0.009-0.673-8.374-1.769-8.365-2.438c0.009-0.67,8.393,0.418,8.403-0.256c0.009-0.675-8.375-1.755-8.365-2.426
			c0.009-0.67,8.394,0.402,8.403-0.272c0.009-0.675-8.375-1.74-8.365-2.411c0.009-0.673,8.394,0.384,8.403-0.293
			c0.01-0.676-8.407-2.715-8.23-3.348c0.043-0.156,4.172,5.54,4.345,5.562c0.173,0.022,0.287-8.072,0.459-8.051
			c0.172,0.021,0.058,8.117,0.231,8.139c0.172,0.022,0.286-8.076,0.458-8.055c0.172,0.021,0.058,8.121,0.231,8.143
			c0.173,0.022,0.287-8.08,0.46-8.059c0.172,0.021,0.058,8.125,0.23,8.147c0.171,0.022,0.285-8.084,0.456-8.063
			c0.171,0.021,0.057,8.129,0.229,8.151c0.173,0.022,0.287-8.088,0.459-8.067c0.174,0.021,0.06,8.133,0.233,8.155
			c0.173,0.022,0.287-8.092,0.461-8.071c0.174,0.021,0.06,8.137,0.234,8.159c0.174,0.022,0.289-8.096,0.463-8.074
			c0.175,0.021,0.061,8.141,0.236,8.163c0.175,0.022,0.233-8.104,0.408-8.085c1.139,0.119,2.39,8.385,3.502,8.479
			c1.138,0.096,1.889-8.025,2.998-7.969c1.137,0.058,2.879,8.331,3.986,8.36c1.134,0.029,1.365-8.217,2.468-8.232
			c1.131-0.015,3.417,8.224,4.515,8.176c1.125-0.049,0.753-8.395,1.843-8.492c1.116-0.1,4.02,8.044,5.1,7.907
			c1.107-0.141,0.04-8.541,1.109-8.733c1.093-0.198,4.688,7.766,5.741,7.525c1.075-0.246-0.782-8.627,0.251-8.928
			c1.055-0.308,5.406,7.361,6.417,7.004c1.029-0.364-1.703-8.62-0.72-9.042c0.999-0.43,6.142,6.804,7.094,6.321
			c0.964-0.49-2.696-8.486-1.78-9.036c0.924-0.555,6.85,6.086,7.726,5.473c0.879-0.616-3.71-8.2-2.879-8.877
			c0.868-0.709,7.583,5.125,8.395,4.339c0.804-0.779-4.724-7.762-3.976-8.616c0.737-0.842,8.133,4.004,8.816,3.085
			c0.671-0.902-5.7-7.116-5.081-8.085c0.605-0.948,8.481,2.898,9.036,1.879c0.542-0.995-6.47-6.413-5.975-7.467
			c0.481-1.026,8.662,1.886,9.099,0.795c0.425-1.062-7.05-5.72-6.667-6.834c0.372-1.082,8.727,0.997,9.059-0.144
			c0.322-1.108-7.478-5.073-7.192-6.226c0.277-1.12,8.719,0.233,8.961-0.941c0.235-1.14-7.791-4.488-7.589-5.666
			c0.196-1.146,8.667-0.418,8.832-1.612c0.16-1.162-8.02-3.97-7.889-5.165c0.127-1.163,8.592-0.972,8.691-2.18
			C168.138,140.61,160.078,139.941,160.148,138.736z M123.691,130.294c0.547,0.041,1.135,8.373,1.676,8.396
			c0.546,0.023,0.719-8.287,1.26-8.288c0.545-0.001,1.79,8.32,2.33,8.3c0.542-0.02,0.041-8.378,0.579-8.423
			c0.539-0.045,2.458,8.208,2.992,8.143c0.535-0.065-0.656-8.415-0.126-8.505c0.53-0.09,3.12,8.035,3.644,7.925
			c0.524-0.11-1.353-8.393-0.834-8.528c0.517-0.134,3.759,7.806,4.27,7.651c0.509-0.154-2.032-8.313-1.528-8.491
			c0.501-0.177,4.357,7.527,4.853,7.331c0.492-0.196-2.675-8.181-2.188-8.4c0.483-0.217,4.906,7.211,5.383,6.974
			c0.473-0.235-3.272-8.005-2.804-8.262c0.463-0.254,5.396,6.87,5.854,6.596c0.453-0.27-3.813-7.797-3.365-8.088
			c0.447-0.291,5.821,6.521,6.254,6.219c0.438-0.304-4.263-7.587-3.84-7.903c0.428-0.319,6.18,6.181,6.593,5.851
			c0.417-0.333-4.706-7.337-4.304-7.682c0.405-0.348,6.535,5.793,6.925,5.434c0.393-0.362-5.153-7.04-4.776-7.413
			c0.38-0.376,6.88,5.358,7.244,4.971c0.366-0.39-5.597-6.695-5.247-7.096c0.352-0.403,7.204,4.879,7.539,4.464
			c0.337-0.417-6.026-6.303-5.706-6.731c0.321-0.429,7.5,4.362,7.805,3.92c0.305-0.442-6.431-5.871-6.143-6.324
			c0.289-0.453,7.761,3.816,8.033,3.35c0.272-0.465-6.804-5.406-6.549-5.881c0.255-0.474,7.98,3.252,8.219,2.765
			c0.238-0.486-7.419-4.037-7.197-4.532c0.064-0.322,8.316,0.932,8.321,0.599c0.005-0.334-8.389-0.821-8.384-1.153
			c0.005-0.331,8.398,0.153,8.403-0.18c0.005-0.332-8.389-0.812-8.384-1.143c0.005-0.331,8.398,0.145,8.403-0.188
			c0.005-0.335-8.389-0.807-8.384-1.14c0.005-0.332,8.398,0.137,8.403-0.197c0.005-0.334-8.389-0.799-8.384-1.131
			c0.005-0.333,8.399,0.128,8.403-0.207c0.005-0.334-8.389-0.792-8.385-1.124c0.005-0.332,8.399,0.122,8.403-0.213
			c0.005-0.334-8.389-0.784-8.385-1.115c0.005-0.333,8.399,0.113,8.404-0.222c0.005-0.336-8.389-0.778-8.385-1.112
			c0.005-0.335,8.399,0.104,8.404-0.233c0.005-0.337-8.39-0.772-8.385-1.107c0.013-0.942,8.41-1.554,8.402-2.483
			c-0.009-0.948-8.422-1.981-8.454-2.905c-0.033-0.942,8.308-2.02,8.252-2.947c-0.058-0.947-8.499-1.487-8.581-2.409
			c-0.084-0.941,8.166-2.536,8.056-3.461c-0.113-0.944-8.555-0.929-8.695-1.845c-0.143-0.934,7.974-3.102,7.803-4.017
			c-0.174-0.933-8.58-0.297-8.784-1.2c-0.207-0.92,7.717-3.713,7.479-4.612c-0.242-0.916-8.559,0.409-8.833-0.476
			c-0.279-0.9,7.38-4.367,7.069-5.243c-0.316-0.89-8.476,1.182-8.827,0.324c-0.355-0.869,6.951-5.046,6.561-5.888
			c-0.395-0.853-8.313,2.013-8.743,1.194c-0.435-0.827,6.421-5.725,5.95-6.524c-0.475-0.804-8.056,2.874-8.568,2.103
			c-0.403-0.606,6.061-5.994,5.646-6.568c-0.426-0.589-7.522,3.93-7.962,3.377c-0.451-0.568,5.513-6.511,5.048-7.043
			c-0.477-0.545-7.109,4.638-7.601,4.132c-0.504-0.518,4.818-7.045,4.299-7.523c-0.531-0.488-6.549,5.398-7.096,4.952
			c-0.558-0.455,3.957-7.559,3.383-7.968c-0.584-0.416-5.82,6.17-6.421,5.798c-0.609-0.377,2.937-7.998,2.311-8.326
			c-0.632-0.331-4.922,6.893-5.572,6.607c-0.652-0.287,1.798-8.307,1.128-8.544c-0.668-0.236-3.899,7.498-4.585,7.306
			c-0.682-0.191,0.617-8.451-0.083-8.592c-0.692-0.14-2.825,7.94-3.535,7.841c-0.699-0.097-0.517-8.43-1.233-8.479
			c-0.703-0.049-1.784,8.209-2.503,8.198c-0.675-0.01-1.418-8.286-2.079-8.262c-0.674,0.024-0.868,8.321-1.527,8.372
			c-0.672,0.053-2.23-8.088-2.886-8c-0.668,0.09,0.011,8.338-0.64,8.458c-0.661,0.122-3.113-7.781-3.756-7.622
			c-0.652,0.162,0.982,8.257,0.348,8.45c-0.64,0.195-4.031-7.348-4.652-7.114c-0.625,0.235,2.006,8.056,1.4,8.324
			c-0.607,0.269-4.93-6.791-5.519-6.484c-0.588,0.306,3.022,7.732,2.453,8.072c-0.566,0.338-5.753-6.136-6.3-5.761
			c-0.542,0.371,3.97,7.304,3.446,7.709c-0.518,0.4-6.456-5.429-6.956-4.995c-0.492,0.427,4.804,6.812,4.329,7.272
			c-0.467,0.452-7.023-4.718-7.474-4.235c-0.442,0.473,5.506,6.296,5.08,6.8c-0.49,0.58-7.618-3.841-8.075-3.237
			c-0.456,0.602,6.027,5.879,5.604,6.508c-0.421,0.625-7.992-3.046-8.38-2.398c-0.385,0.641,6.632,5.244,6.279,5.912
			c-0.349,0.661-8.262-2.26-8.581-1.578c-0.314,0.673,7.133,4.601,6.849,5.3c-0.28,0.689-8.435-1.514-8.686-0.805
			c-0.247,0.697,7.531,3.978,7.312,4.701c-0.215,0.71-8.525-0.829-8.712-0.101c-0.184,0.713,7.835,3.394,7.678,4.132
			c-0.155,0.723-8.55-0.218-8.68,0.522c-0.127,0.725,8.061,2.863,7.958,3.611c-0.101,0.733-8.53,0.325-8.608,1.073
			c-0.076,0.731,8.225,2.385,8.171,3.139c-0.053,0.74-8.478,0.798-8.51,1.55c-0.031,0.737,8.341,1.962,8.33,2.72
			c-0.011,0.75-8.406,1.217-8.396,1.95c0.01,0.747,8.423,1.551,8.455,2.288c0.033,0.751-8.304,1.654-8.249,2.386
			c0.056,0.746,8.486,1.087,8.565,1.823c0.081,0.75-8.158,2.143-8.053,2.874c0.107,0.744,8.518,0.561,8.651,1.293
			c0.135,0.745-7.956,2.683-7.795,3.408c0.163,0.737,8.509-0.034,8.699,0.69c0.193,0.735-7.684,3.27-7.463,3.983
			c0.224,0.724,8.442-0.692,8.695,0.018c0.256,0.72-7.332,3.896-7.047,4.594c0.288,0.706,8.305-1.405,8.623-0.715
			c0.321,0.697-6.893,4.541-6.541,5.217c0.354,0.681,8.086-2.156,8.47-1.492c0.386,0.667-6.368,5.184-5.95,5.83
			c0.418,0.648,7.781-2.919,8.231-2.289c0.391,0.548-5.9,5.621-5.493,6.14c0.416,0.53,7.268-3.824,7.701-3.323
			c0.442,0.511-5.238,6.217-4.779,6.697c0.468,0.489,6.743-4.596,7.23-4.141c0.494,0.463-4.431,6.814-3.918,7.244
			c0.519,0.436,6.071-5.393,6.609-4.994c0.543,0.403-3.487,7.366-2.925,7.735c0.565,0.371,5.258-6.163,5.844-5.829
			c0.585,0.334-2.452,7.822-1.846,8.122c0.602,0.299,4.348-6.846,4.971-6.585c0.617,0.259-1.387,8.149-0.751,8.375
			c0.629,0.224,3.401-7.402,4.049-7.216c0.638,0.184-0.364,8.338,0.293,8.492c0.645,0.151,2.481-7.819,3.144-7.704
			c0.649,0.113,0.569,8.407,1.235,8.493C122.043,138.435,123.022,130.244,123.691,130.294z"/>
	</g>
	<g>
	</g>
	<g>
	</g>
	<g>
	</g>
	<g>
	</g>
	<g>
	</g>
	<g>
	</g>
</g>
</svg>
